<svg width="200" height="200" viewBox="0 0 200 200" fill="none" xmlns="http://www.w3.org/2000/svg">
<rect width="200" height="200" fill="white"/>
<path d="M82.469 103.651C80.6428 104.353 78.5803 103.587 77.6779 101.862L60.9201 69.8861C58.9651 66.0967 60.4475 61.477 64.2717 59.5397C64.508 59.4332 64.7229 59.3268 64.9592 59.2203C69.2776 57.4959 74.0256 60.008 75.2287 64.351L75.2502 64.4149L84.7678 99.1373C85.2619 100.989 84.2736 102.948 82.469 103.651V103.651Z" fill="#F98500"/>
<path d="M81.5666 87.535L76.8186 89.3871C75.9377 89.7064 74.9494 89.2807 74.5842 88.4078C74.2405 87.535 74.6701 86.5344 75.551 86.1938L80.6428 84.2139L81.5666 87.535Z" fill="#FA6D00"/>
<path d="M83.414 94.1983L79.332 95.7098C78.4511 96.0079 77.4843 95.6034 77.0976 94.7305C76.7539 93.8577 77.1835 92.8571 78.0859 92.5165L82.5117 90.8772L83.414 94.1983Z" fill="#FA6D00"/>
<path d="M102.686 72.3772C101.246 71.3979 100.516 69.6735 100.838 67.949C101.633 63.9893 99.0548 60.136 95.0372 59.327C94.9942 59.327 94.9298 59.3057 94.8868 59.3057C93.2325 59.0289 91.8575 57.858 91.3419 56.2613C91.213 55.8781 91.0626 55.4949 90.8907 55.133C89.0645 51.5139 84.6387 50.0449 80.9864 51.8545C77.5274 53.5576 75.9805 57.6238 77.4415 61.1578C78.1934 62.9887 78.5587 64.6492 77.2911 66.4162C74.9278 69.716 75.7227 74.2932 79.0528 76.6137C79.0743 76.635 79.1173 76.6563 79.1387 76.6776C80.5782 77.6781 81.2657 79.4238 80.922 81.127C80.1485 85.0867 82.7696 88.9401 86.7872 89.7065C90.3966 90.3877 93.9415 88.3652 95.1661 84.9377C98.8184 86.7473 103.244 85.257 105.07 81.6592C106.703 78.402 105.693 74.4635 102.686 72.3772Z" fill="#598C44"/>
<path d="M119.444 78.2316C118.477 76.784 118.455 74.9106 119.401 73.4416C121.656 70.0779 120.711 65.5221 117.317 63.2867C117.274 63.2654 117.231 63.2229 117.188 63.2016C115.082 61.8817 115.233 60.0082 115.061 57.858C114.76 53.8344 111.194 50.8113 107.133 51.1094C103.287 51.4074 100.301 54.5795 100.301 58.4115C100.301 60.3914 100 62.052 98.174 63.2229C94.7365 65.3943 93.7268 69.9289 95.9397 73.3352C95.9612 73.3565 95.9826 73.399 96.0041 73.4203C96.9494 74.8893 96.9494 76.7627 95.9612 78.2104C93.7483 81.5953 94.7151 86.1299 98.1311 88.344C101.203 90.3238 105.285 89.7703 107.692 87.0453C110.399 90.0684 115.061 90.3664 118.112 87.7053C120.862 85.3209 121.42 81.276 119.444 78.2316V78.2316Z" fill="#5F9548"/>
<path d="M130.937 98.7968L110.312 91.9843L121.678 58.2199C123.053 54.1536 127.242 51.0029 131.604 51.1093C134.311 51.1732 136.846 51.6841 138.973 53.3872C142.41 56.1122 143.764 60.6681 142.367 64.7982L130.937 98.7968Z" fill="#FFB531"/>
<path d="M117.188 81.7656V143.078H65.625V81.7656L70.7812 85.1719L75.9375 81.7656L81.0938 85.1719L86.25 81.7656L91.4062 85.1719L96.5625 81.7656L101.719 85.1719L106.875 81.7656L112.031 85.1719L117.188 81.7656Z" fill="#FFB531"/>
<path d="M117.188 95.8801V143.078H65.625V132.753C84.5527 126.451 103.309 114.976 117.188 95.8801Z" fill="#FCAC1F"/>
<path d="M137.812 81.7656V143.078H117.188V81.7656L122.344 85.1719L127.5 81.7656L132.656 85.1719L137.812 81.7656Z" fill="#F98500"/>
<path d="M65.9473 149.891C73.5412 149.891 79.6973 143.791 79.6973 136.266C79.6973 128.741 73.5412 122.641 65.9473 122.641C58.3534 122.641 52.1973 128.741 52.1973 136.266C52.1973 143.791 58.3534 149.891 65.9473 149.891Z" fill="#F35244"/>
<path d="M94.8438 114.125L96.5625 117.531C94.4355 119.639 93.5762 122.704 94.3066 125.621L94.8438 127.75H87.9688V125.153C87.9688 120.49 90.6328 116.211 94.8438 114.125Z" fill="#5F9548"/>
<path d="M84.7675 149.891C82.5976 149.891 80.664 148.486 80.0409 146.421L76.1738 133.626C75.0995 130.071 77.4628 126.047 81.4374 126.047C83.371 126.047 85.1542 127.047 86.1425 128.687L89.6874 134.562V145.015C89.6874 147.698 87.4745 149.891 84.7675 149.891V149.891Z" fill="#FA9F0C"/>
<path d="M98.0449 149.891C100.215 149.891 102.148 148.486 102.771 146.421L106.639 133.626C107.734 130.028 105.328 126.047 101.375 126.047C99.4414 126.047 97.6582 127.047 96.6699 128.687L93.125 134.562V145.015C93.125 147.698 95.3379 149.891 98.0449 149.891V149.891Z" fill="#FA9F0C"/>
<path d="M91.4062 126.047C94.2637 126.047 96.5625 128.325 96.5625 131.156V144.781C96.5625 147.613 94.2637 149.891 91.4062 149.891C88.5488 149.891 86.25 147.613 86.25 144.781V131.156C86.25 128.325 88.5488 126.047 91.4062 126.047Z" fill="#FFB531"/>
<path d="M140.047 52.0673C136.867 49.5339 132.506 48.7675 128.359 49.9597C124.32 51.1306 121.291 53.962 120.045 57.6876L113.105 78.338L112.289 77.1458L109.41 79.0405V72.1642L114.18 69.0134L112.268 66.1819L109.389 68.0767V60.2636H105.951V68.0554L103.094 66.1606L101.182 68.9921L105.951 72.1429V79.0192L103.094 77.1245L101.182 79.956L103.824 81.7017L101.697 83.1067L97.4863 80.3392C97.293 80.2114 97.0996 80.1263 96.8848 80.0837C97.0137 79.7644 97.1856 79.445 97.3789 79.147C98.7109 77.1245 98.7109 74.5272 97.4004 72.4835C96.1973 70.6739 96.2402 67.9702 97.4863 66.1606C98.0234 65.3942 100.215 63.8401 100.795 63.0737C101.934 61.5835 102.063 59.8804 102.191 58.3901C102.277 57.2192 102.363 56.1974 102.879 55.4097C104.533 52.7911 108.035 52.0034 110.678 53.6427C111.236 53.9833 111.709 54.4304 112.117 54.92C113.041 56.0696 113.127 57.2192 113.234 58.7733C113.277 59.3056 113.32 59.8804 113.385 60.4765L116.801 60.0507C116.736 59.5397 116.693 59.0288 116.672 58.5392C116.543 56.687 116.393 54.7923 114.824 52.8124C111.709 48.8952 105.994 48.2353 102.041 51.3009C101.225 51.9396 100.516 52.706 99.957 53.5788C99.0117 55.069 98.8828 56.687 98.7539 58.0921C98.7324 58.4114 98.7109 58.7095 98.668 59.0075C97.6152 58.305 96.4121 57.8153 95.1445 57.5812C94.1133 57.4108 93.2539 56.687 92.9316 55.7077C92.1797 53.3872 90.5469 51.4712 88.3555 50.3642C86.207 49.2358 83.6934 49.0229 81.3731 49.7681C77.957 50.8964 75.4648 54.0685 75.1641 57.7089C75.0566 59.0927 75.4004 60.3062 75.7441 61.3919C74.1328 58.7733 71.3184 57.1128 68.2246 56.9212L68.2891 49.3636L64.8516 49.3423L64.8086 54.2601L62.7461 49.0229L59.6094 50.3216L61.6719 55.5587L58.2773 51.9821L55.7852 54.3026L61.0059 59.8378C58.1699 62.7331 57.5039 67.0761 59.3945 70.6526L62.9609 77.4651L66.0117 75.8897L62.4453 69.0772C60.9199 66.1606 62.0586 62.5628 65.002 61.0513C67.9453 59.5397 71.5762 60.6681 73.1016 63.5847C73.2949 63.9679 73.4453 64.3511 73.5742 64.7769L73.6387 64.9897L68.0957 67.1399L69.3418 70.312L74.541 68.3108V68.3321C74.2188 69.5456 74.1328 70.8017 74.3477 72.0577L70.6094 73.5054L71.8555 76.6774L75.5508 75.2511C76.4102 76.6774 77.8926 77.9974 77.8926 77.9974L73.1016 79.8495L73.6602 81.2333L70.8027 83.128L66.5918 80.3604C65.7969 79.8282 64.7441 80.0411 64.207 80.8288C64.0137 81.1056 63.9277 81.4462 63.9277 81.7655V117.531H67.3652V84.9376L69.8574 86.5769C70.4375 86.9601 71.1895 86.9601 71.7695 86.5769L75.9805 83.8093L80.1914 86.5769C80.7715 86.9601 81.5234 86.9601 82.1035 86.5769L86.3145 83.8093L90.5254 86.5769C91.1055 86.9601 91.8574 86.9601 92.4375 86.5769L96.6484 83.8093L100.859 86.5769C101.439 86.9601 102.191 86.9601 102.771 86.5769L106.982 83.8093L111.193 86.5769C111.773 86.9601 112.525 86.9601 113.105 86.5769L115.598 84.9376V141.375H108.723V144.781H137.941C138.887 144.781 139.66 144.015 139.66 143.078V81.7655C139.66 81.2546 139.424 80.7862 139.037 80.4669L144.129 65.3517C145.611 60.5403 144.021 55.2394 140.047 52.0673V52.0673ZM94.5645 74.3995C94.7148 74.6337 94.8223 74.8892 94.8867 75.1659L93.7051 76.8903L91.084 70.5036L93.3828 67.1399C92.7813 69.5882 93.168 72.3132 94.5645 74.3995ZM82.5762 82.17C83.0273 80.3604 82.6621 78.4657 81.6094 76.9329C80.5996 75.4853 78.9883 74.4847 78.1719 72.9093C77.7422 72.079 77.5703 71.121 77.6777 70.1843C77.9356 68.0979 79.5254 66.3522 79.7617 64.2659C79.9336 62.7331 79.3106 61.2429 78.9883 59.7313C78.2363 56.389 80.3633 53.004 83.9941 52.8337C85.7559 52.7698 87.4316 53.5149 88.5488 54.8562C89.5371 56.0696 89.9883 57.6663 90.9766 58.9011C91.707 59.8165 92.6953 60.4765 93.8125 60.7958C94.9082 61.1151 96.1973 61.1577 96.9277 62.0306C95.6602 62.9247 94.6289 64.0956 93.9199 65.4794L91.4707 63.8614L89.5371 66.629L86.5723 59.4546L83.4141 60.7319L86.3574 67.9276L83.0059 67.289L82.3184 70.6101L87.8398 71.8448L90.5254 78.1038L87.1738 77.4651L86.7656 79.4663C86.7441 79.4876 83.457 81.5313 82.5762 82.17V82.17ZM88.5488 81.2333L92.0938 81.9571L92.3301 82.5319L91.4063 83.128L88.5488 81.2333ZM110.721 82.2552L112.053 81.361L111.559 82.8087L110.721 82.2552ZM118.906 84.9376L121.398 86.5769C121.979 86.9601 122.73 86.9601 123.311 86.5769L125.803 84.9376V132.135L118.928 138.948V84.9376H118.906ZM136.094 84.9376V138.948L129.219 132.135V84.9376L131.711 86.5769C132.291 86.9601 133.043 86.9601 133.623 86.5769L136.094 84.9376ZM127.5 135.265L133.666 141.375H121.334L127.5 135.265ZM140.734 64.2659L134.891 81.6378L132.656 83.1067L128.445 80.3392C127.865 79.956 127.113 79.956 126.533 80.3392L122.322 83.1067C122.322 83.1067 118.025 80.2753 117.982 80.254C117.424 79.956 116.736 79.9985 116.221 80.3392L115.963 80.5095L123.289 58.752C124.191 56.0909 126.383 54.0897 129.326 53.2169C132.377 52.3228 135.578 52.8763 137.898 54.7071C140.756 57.0063 141.895 60.8171 140.734 64.2659V64.2659Z" fill="black"/>
<path d="M125.467 63.0813L135.783 61.381L136.347 64.7395L126.031 66.4399L125.467 63.0813Z" fill="black"/>
<path d="M122.026 73.2947L132.343 71.5944L132.907 74.9529L122.59 76.6532L122.026 73.2947Z" fill="black"/>
<path d="M101.396 124.344C99.5059 124.322 97.6797 125.068 96.3477 126.409C96.3262 126.388 96.3047 126.366 96.2832 126.324L96.0039 125.195C96.0039 125.174 96.0039 125.174 95.9824 125.153C95.3164 122.832 96.6484 119.894 97.8086 118.745C98.3242 118.234 98.4531 117.425 98.1309 116.786L96.4121 113.38C95.9824 112.528 94.9512 112.188 94.1133 112.613C89.3008 114.977 86.2715 119.852 86.293 125.153V126.068C85.8848 125.77 85.4336 125.493 84.9824 125.238C81.6523 123.471 77.334 124.578 75.3574 127.686C74.2188 129.496 73.918 131.944 74.5625 134.094L76.7969 141.481C73.832 147.379 66.6133 149.784 60.6621 146.868C54.7754 143.972 52.3262 136.926 55.1621 131.05C55.2051 130.965 55.248 130.879 55.291 130.794L55.3555 136.585L58.793 136.542L58.6855 129.453L65.5391 129.772L65.7109 126.366L59.7383 126.089C61.5215 125.004 63.584 124.408 65.668 124.344C68.1602 124.28 70.6094 124.982 72.6719 126.366L74.584 123.535C70.7168 120.959 65.8828 120.256 61.4355 121.597L62.166 119.894L59.0078 118.553L56.6445 124.003C56.4727 124.131 56.2793 124.28 56.1074 124.429L50.8652 119.234L48.4375 121.64L53.7227 126.877C53.6152 127.026 53.5078 127.175 53.4004 127.324L47.7715 129.709L49.125 132.838L51.1016 131.987C48.7168 140.119 53.4434 148.613 61.6504 150.976C67.0645 152.53 72.9082 151.04 76.9043 147.08C77.3125 146.676 77.6992 146.229 78.0645 145.782L78.4082 146.889C79.4609 150.38 83.1563 152.339 86.6797 151.296C87.1738 151.147 87.625 150.955 88.0762 150.7C90.1602 151.849 92.6953 151.849 94.7793 150.7C97.959 152.509 102.02 151.402 103.846 148.251C104.104 147.826 104.297 147.357 104.447 146.868L108.314 134.073C108.551 133.221 108.658 132.327 108.615 131.433C108.594 127.537 105.371 124.344 101.396 124.344V124.344ZM94.1348 116.531L94.5215 117.297C93.168 119.149 92.2012 121.853 92.373 124.408C91.8789 124.322 90.5254 124.259 89.709 124.557C89.8809 121.342 91.5137 118.404 94.1348 116.531ZM81.6953 145.931L77.8281 133.136C77.4629 131.923 77.6348 130.475 78.2363 129.517C79.2246 127.942 81.6094 127.346 83.3281 128.261C84.1445 128.687 84.4668 128.985 84.7891 129.389C84.6387 129.964 84.5527 130.56 84.5527 131.156V144.781C84.5527 145.952 84.8535 147.102 85.4336 148.124C83.7793 148.464 82.168 147.506 81.6953 145.931ZM87.9688 144.781V131.156C87.9688 129.283 89.5156 127.75 91.4063 127.75C93.2969 127.75 94.8438 129.283 94.8438 131.156V144.781C94.8438 146.655 93.2969 148.187 91.4063 148.187C89.5156 148.187 87.9688 146.655 87.9688 144.781ZM105.006 133.136L101.139 145.931C100.666 147.506 99.0332 148.464 97.4004 148.124C97.9805 147.102 98.2813 145.952 98.2813 144.781V131.156C98.2813 130.624 98.2168 130.113 98.0879 129.602C98.5391 128.921 99.5703 127.75 101.375 127.75C103.459 127.75 105.135 129.432 105.135 131.476C105.178 132.029 105.135 132.604 105.006 133.136V133.136Z" fill="black"/>
<rect width="200" height="200" fill="white" fill-opacity="0.85"/>
</svg>
