<svg width="332" height="112" viewBox="0 0 332 112" fill="none" xmlns="http://www.w3.org/2000/svg">
<g clip-path="url(#clip0_92_1180)">
<path d="M41.4321 69.2255C43.0917 67.6784 43.3473 65.2552 42.0029 63.813C40.6585 62.3708 38.2233 62.4558 36.5636 64.0029C34.904 65.55 34.6484 67.9733 35.9928 69.4155C37.3372 70.8577 39.7724 70.7726 41.4321 69.2255Z" fill="url(#paint0_linear_92_1180)"/>
<path d="M63.3921 69.2271C65.0517 67.68 65.3073 65.2567 63.9629 63.8146C62.6185 62.3724 60.1832 62.4574 58.5236 64.0045C56.864 65.5516 56.6084 67.9749 57.9528 69.4171C59.2972 70.8593 61.7324 70.7742 63.3921 69.2271Z" fill="url(#paint1_linear_92_1180)"/>
<path d="M24.0177 50.2906C24.0177 49.3328 23.2413 48.5564 22.2835 48.5564C21.3257 48.5564 20.5493 49.3328 20.5493 50.2906C20.5493 51.2483 21.3257 52.0248 22.2835 52.0248C23.2413 52.0248 24.0177 51.2483 24.0177 50.2906Z" fill="url(#paint2_linear_92_1180)"/>
<path d="M55.1893 66.2517C55.8058 63.2048 58.6841 60.7835 61.7777 60.7835C64.7565 60.7835 66.9035 63.0291 66.8446 65.9165C70.0662 66.0008 70.963 61.7585 70.963 61.7585C71.2342 60.5723 71.6394 58.2597 71.9786 55.9898C72.0898 55.289 72.0044 54.5711 71.7318 53.9159C70.8897 51.9501 69.872 50.0642 68.691 48.2812C67.5739 46.6146 65.7 45.6274 63.5611 45.5918C62.2855 45.5715 61.0332 45.5593 60.0877 45.5593L60.0796 45.5512C59.9577 43.5118 58.4708 41.9498 56.3837 41.7629C55.0258 41.6421 49.6471 41.5537 47.0653 41.5537C46.0396 41.5537 44.5679 41.5679 43.079 41.5923V41.5862H43.0668H25.1654C24.9376 41.5861 24.712 41.6309 24.5014 41.718C24.2909 41.8051 24.0996 41.9329 23.9385 42.094C23.7774 42.2551 23.6496 42.4464 23.5625 42.6569C23.4754 42.8674 23.4306 43.0931 23.4307 43.3209V43.329C23.4307 43.7869 23.6126 44.2261 23.9364 44.5499C24.2602 44.8737 24.6994 45.0556 25.1573 45.0556H28.7658C29.2003 45.0876 29.6067 45.2827 29.9033 45.6018C30.2 45.9209 30.3651 46.3404 30.3654 46.7761V46.7852C30.3661 47.0133 30.3218 47.2392 30.235 47.4501C30.1483 47.661 30.0208 47.8528 29.8599 48.0144C29.6989 48.176 29.5077 48.3042 29.2972 48.3918C29.0866 48.4795 28.8608 48.5247 28.6328 48.525H26.7823C26.3225 48.525 25.8815 48.7076 25.5564 49.0327C25.2313 49.3579 25.0486 49.7988 25.0486 50.2586C25.0485 50.4864 25.0932 50.7119 25.1803 50.9224C25.2674 51.1328 25.3951 51.3241 25.5561 51.4852C25.7171 51.6463 25.9082 51.7741 26.1186 51.8613C26.329 51.9484 26.5545 51.9933 26.7823 51.9933H28.6328C29.0928 51.9933 29.5341 52.1761 29.8594 52.5014C30.1847 52.8267 30.3675 53.2679 30.3675 53.728C30.3675 54.1881 30.1847 54.6293 29.8594 54.9546C29.5341 55.2799 29.0928 55.4627 28.6328 55.4627H21.7103C21.2504 55.4627 20.8093 55.6453 20.484 55.9704C20.1587 56.2955 19.9759 56.7365 19.9756 57.1964C19.9756 57.6564 20.1583 58.0977 20.4837 58.423C20.809 58.7483 21.2502 58.931 21.7103 58.931H28.6328C29.0928 58.931 29.5341 59.1138 29.8594 59.4391C30.1847 59.7644 30.3675 60.2057 30.3675 60.6657C30.3669 61.1255 30.1839 61.5662 29.8587 61.891C29.5334 62.2159 29.0925 62.3984 28.6328 62.3984H26.4918C26.032 62.3984 25.5911 62.581 25.2659 62.9062C24.9408 63.2313 24.7582 63.6723 24.7582 64.1321C24.7582 64.592 24.9408 65.033 25.2659 65.3583C25.591 65.6836 26.0319 65.8665 26.4918 65.8667L33.3229 65.8617L33.8907 64.4469C35.0536 62.3019 37.3671 60.7825 39.8168 60.7825C42.9114 60.7825 45.1093 63.2058 44.8675 66.2547H55.1883L55.1893 66.2517ZM37.9836 49.3324H35.6558C35.6536 49.3326 35.6515 49.3334 35.6499 49.3349C35.6482 49.3364 35.6471 49.3383 35.6467 49.3405L35.4324 50.8639C35.4321 50.8652 35.432 50.8664 35.4323 50.8677C35.4326 50.8689 35.4331 50.8701 35.4339 50.8711C35.4347 50.872 35.4357 50.8728 35.4368 50.8734C35.438 50.8739 35.4392 50.8741 35.4405 50.8741H37.1732C37.2582 50.8717 37.3427 50.8883 37.4205 50.9227C37.4984 50.9571 37.5675 51.0084 37.623 51.0729C37.6785 51.1374 37.7188 51.2135 37.7412 51.2956C37.7635 51.3777 37.7672 51.4637 37.7521 51.5475C37.7224 51.7315 37.6295 51.8994 37.4893 52.0223C37.3492 52.1452 37.1706 52.2154 36.9843 52.2208H35.2496C35.2475 52.2208 35.2454 52.2214 35.2437 52.2227C35.2421 52.224 35.2409 52.2259 35.2404 52.2279L34.9296 54.441C34.9 54.625 34.807 54.7929 34.6669 54.9158C34.5268 55.0387 34.3482 55.1089 34.1618 55.1143C34.0768 55.1168 33.9923 55.1002 33.9145 55.0658C33.8368 55.0314 33.7676 54.9801 33.7122 54.9155C33.6569 54.851 33.6166 54.7749 33.5944 54.6928C33.5722 54.6107 33.5686 54.5246 33.5839 54.441L34.3903 48.7007C34.4223 48.5063 34.5208 48.3291 34.6691 48.1994C34.8173 48.0697 35.006 47.9956 35.2028 47.9897H38.1715C38.2565 47.9873 38.341 48.0039 38.4188 48.0383C38.4966 48.0727 38.5657 48.124 38.6211 48.1885C38.6765 48.2531 38.7168 48.3292 38.739 48.4113C38.7612 48.4934 38.7647 48.5794 38.7494 48.6631C38.7193 48.8462 38.6264 49.0131 38.4867 49.1352C38.347 49.2574 38.1691 49.3271 37.9836 49.3324ZM44.2053 48.4468C44.4472 48.6613 44.6173 48.9449 44.6928 49.2593C44.7773 49.6154 44.7911 49.9846 44.7335 50.346C44.6629 50.9083 44.4327 51.4387 44.0703 51.8745C43.8489 52.1362 43.5678 52.3407 43.2507 52.4707C43.2492 52.4722 43.2484 52.4742 43.2484 52.4762C43.2484 52.4783 43.2492 52.4803 43.2507 52.4818L43.8275 54.1464C43.9829 54.5933 43.5838 55.1143 43.0871 55.1143H43.0546C42.9342 55.1179 42.8157 55.083 42.7163 55.0147C42.617 54.9464 42.542 54.8483 42.5021 54.7345L41.8044 52.7032C41.8034 52.7017 41.8021 52.7004 41.8005 52.6996C41.7989 52.6987 41.7971 52.6982 41.7953 52.6982H40.3125C40.3104 52.6983 40.3084 52.699 40.3068 52.7003C40.3051 52.7016 40.3039 52.7033 40.3033 52.7053L40.0596 54.44C40.0299 54.624 39.937 54.7919 39.7968 54.9148C39.6567 55.0377 39.4781 55.1079 39.2918 55.1133C39.2067 55.1158 39.1222 55.0992 39.0445 55.0648C38.9667 55.0304 38.8976 54.979 38.8422 54.9145C38.7868 54.85 38.7465 54.7739 38.7243 54.6917C38.7021 54.6096 38.6985 54.5236 38.7139 54.44L39.5203 48.6996C39.5522 48.5053 39.6507 48.3281 39.799 48.1984C39.9472 48.0687 40.1359 47.9946 40.3328 47.9887H42.6281C42.6281 47.9887 43.6356 47.9572 44.2053 48.4468ZM50.5225 48.6153C50.4949 48.7872 50.4082 48.9441 50.2773 49.0589C50.1464 49.1736 49.9795 49.2391 49.8055 49.244H47.1354C47.1334 49.2441 47.1314 49.2449 47.1297 49.2461C47.1281 49.2474 47.1269 49.2492 47.1263 49.2511L46.914 50.7583C46.9137 50.7595 46.9137 50.7608 46.9139 50.7621C46.9142 50.7633 46.9147 50.7644 46.9155 50.7654C46.9163 50.7664 46.9173 50.7672 46.9185 50.7677C46.9196 50.7683 46.9209 50.7685 46.9221 50.7685H48.996C49.0755 50.7661 49.1544 50.7816 49.2271 50.8136C49.2998 50.8457 49.3644 50.8936 49.4162 50.9539C49.468 51.0142 49.5057 51.0852 49.5264 51.1619C49.5472 51.2386 49.5506 51.319 49.5364 51.3971C49.5088 51.569 49.422 51.7259 49.2911 51.8407C49.1602 51.9554 48.9934 52.0209 48.8193 52.0258H46.7444C46.7423 52.0259 46.7404 52.0267 46.7387 52.0279C46.7371 52.0292 46.7359 52.031 46.7353 52.0329L46.4803 53.8468C46.4803 53.8494 46.4813 53.8518 46.483 53.8537C46.4846 53.8556 46.487 53.8567 46.4895 53.857H49.1575C49.237 53.8546 49.3159 53.8701 49.3886 53.9022C49.4613 53.9342 49.5259 53.9822 49.5777 54.0424C49.6295 54.1027 49.6671 54.1737 49.6879 54.2504C49.7087 54.3271 49.7121 54.4075 49.6978 54.4857C49.6702 54.6575 49.5835 54.8144 49.4526 54.9292C49.3217 55.044 49.1548 55.1094 48.9808 55.1143H45.6699C45.5805 55.1156 45.492 55.0972 45.4106 55.0604C45.3292 55.0236 45.2568 54.9694 45.1987 54.9016C45.1405 54.8338 45.098 54.754 45.0741 54.6679C45.0503 54.5818 45.0456 54.4915 45.0605 54.4034L45.8618 48.7037C45.8938 48.5094 45.9923 48.3322 46.1405 48.2025C46.2888 48.0728 46.4775 47.9986 46.6743 47.9928H49.9843C50.0629 47.9909 50.141 48.0065 50.2129 48.0383C50.2848 48.0702 50.3488 48.1176 50.4002 48.1771C50.4517 48.2366 50.4893 48.3067 50.5105 48.3825C50.5316 48.4583 50.5357 48.5378 50.5225 48.6153ZM56.0689 48.6153C56.0413 48.7872 55.9545 48.9441 55.8236 49.0589C55.6927 49.1736 55.5258 49.2391 55.3518 49.244H52.6818C52.6797 49.2441 52.6777 49.2449 52.6761 49.2461C52.6744 49.2474 52.6732 49.2492 52.6726 49.2511L52.4614 50.7583C52.461 50.7595 52.461 50.7608 52.4613 50.7621C52.4615 50.7633 52.4621 50.7644 52.4629 50.7654C52.4637 50.7664 52.4647 50.7672 52.4658 50.7677C52.467 50.7683 52.4682 50.7685 52.4695 50.7685H54.5434C54.6228 50.7661 54.7018 50.7816 54.7744 50.8136C54.8471 50.8457 54.9117 50.8936 54.9635 50.9539C55.0153 51.0142 55.053 51.0852 55.0738 51.1619C55.0946 51.2386 55.098 51.319 55.0837 51.3971C55.0561 51.569 54.9694 51.7259 54.8385 51.8407C54.7076 51.9554 54.5407 52.0209 54.3667 52.0258H52.2907C52.2887 52.0259 52.2867 52.0267 52.285 52.0279C52.2834 52.0292 52.2822 52.031 52.2816 52.0329L52.0267 53.8468C52.0267 53.8494 52.0276 53.8518 52.0293 53.8537C52.031 53.8556 52.0333 53.8567 52.0358 53.857H54.7039C54.7833 53.8546 54.8622 53.8701 54.9349 53.9022C55.0076 53.9342 55.0722 53.9822 55.124 54.0424C55.1758 54.1027 55.2135 54.1737 55.2343 54.2504C55.255 54.3271 55.2584 54.4075 55.2442 54.4857C55.2166 54.6575 55.1298 54.8144 54.9989 54.9292C54.868 55.044 54.7012 55.1094 54.5271 55.1143H51.2162C51.1269 55.1156 51.0384 55.0972 50.9569 55.0604C50.8755 55.0236 50.8031 54.9694 50.745 54.9016C50.6869 54.8338 50.6443 54.754 50.6205 54.6679C50.5966 54.5818 50.5919 54.4915 50.6068 54.4034L51.4082 48.7037C51.4401 48.5094 51.5386 48.3322 51.6869 48.2025C51.8351 48.0728 52.0238 47.9986 52.2207 47.9928H55.5306C55.6092 47.9909 55.6873 48.0065 55.7592 48.0383C55.8311 48.0702 55.8951 48.1176 55.9466 48.1771C55.998 48.2366 56.0357 48.3067 56.0568 48.3825C56.0779 48.4583 56.0821 48.5378 56.0689 48.6153ZM59.9282 47.9643C60.8352 47.9643 62.0092 47.9765 63.1874 47.9958C64.6153 48.0192 65.8646 48.6753 66.6141 49.7945C67.4147 51.0015 68.1343 52.2602 68.7682 53.5625C69.1034 54.245 68.4869 55.1336 67.6795 55.1336H59.0213L59.9282 47.9643Z" fill="url(#paint3_linear_92_1180)"/>
<path d="M42.0847 51.4419H40.48L40.7847 49.244H42.3883C42.3883 49.244 43.5654 49.1679 43.3725 50.343C43.3776 50.343 43.2425 51.4419 42.0847 51.4419Z" fill="url(#paint4_linear_92_1180)"/>
</g>
<path d="M89.412 38C89.124 38 88.89 37.916 88.71 37.748C88.542 37.568 88.458 37.346 88.458 37.082V26.318C88.458 26.054 88.548 25.838 88.728 25.67C88.908 25.49 89.124 25.4 89.376 25.4H95.46C95.724 25.4 95.94 25.484 96.108 25.652C96.288 25.82 96.378 26.03 96.378 26.282C96.378 26.51 96.288 26.708 96.108 26.876C95.94 27.044 95.724 27.128 95.46 27.128H90.204L90.33 26.948V30.962L90.222 30.746H94.65C94.914 30.746 95.13 30.83 95.298 30.998C95.478 31.166 95.568 31.376 95.568 31.628C95.568 31.856 95.478 32.054 95.298 32.222C95.13 32.39 94.914 32.474 94.65 32.474H90.186L90.33 32.33V37.082C90.33 37.346 90.24 37.568 90.06 37.748C89.88 37.916 89.664 38 89.412 38ZM99.1444 38C98.8804 38 98.6644 37.916 98.4964 37.748C98.3284 37.568 98.2444 37.346 98.2444 37.082V29.45C98.2444 29.186 98.3284 28.97 98.4964 28.802C98.6644 28.622 98.8804 28.532 99.1444 28.532C99.3964 28.532 99.6064 28.622 99.7744 28.802C99.9544 28.97 100.044 29.186 100.044 29.45V31.466L99.8644 30.692C99.9604 30.356 100.104 30.044 100.296 29.756C100.5 29.468 100.74 29.216 101.016 29C101.292 28.784 101.598 28.616 101.934 28.496C102.282 28.376 102.642 28.316 103.014 28.316C103.326 28.316 103.596 28.4 103.824 28.568C104.052 28.736 104.166 28.946 104.166 29.198C104.166 29.522 104.082 29.762 103.914 29.918C103.746 30.062 103.56 30.134 103.356 30.134C103.176 30.134 103.002 30.098 102.834 30.026C102.666 29.942 102.468 29.9 102.24 29.9C101.988 29.9 101.73 29.966 101.466 30.098C101.202 30.23 100.962 30.428 100.746 30.692C100.53 30.944 100.356 31.244 100.224 31.592C100.104 31.94 100.044 32.33 100.044 32.762V37.082C100.044 37.346 99.9544 37.568 99.7744 37.748C99.6064 37.916 99.3964 38 99.1444 38ZM109.774 38.18C108.778 38.18 107.914 37.976 107.182 37.568C106.45 37.148 105.88 36.578 105.472 35.858C105.076 35.126 104.878 34.292 104.878 33.356C104.878 32.3 105.088 31.4 105.508 30.656C105.94 29.9 106.498 29.324 107.182 28.928C107.866 28.52 108.592 28.316 109.36 28.316C109.948 28.316 110.506 28.436 111.034 28.676C111.562 28.904 112.03 29.228 112.438 29.648C112.858 30.056 113.188 30.542 113.428 31.106C113.668 31.658 113.794 32.264 113.806 32.924C113.794 33.164 113.698 33.362 113.518 33.518C113.338 33.674 113.128 33.752 112.888 33.752H105.886L105.454 32.222H112.222L111.88 32.546V32.096C111.856 31.676 111.718 31.31 111.466 30.998C111.214 30.674 110.902 30.428 110.53 30.26C110.158 30.08 109.768 29.99 109.36 29.99C109 29.99 108.652 30.05 108.316 30.17C107.992 30.278 107.698 30.458 107.434 30.71C107.182 30.962 106.978 31.298 106.822 31.718C106.678 32.126 106.606 32.636 106.606 33.248C106.606 33.908 106.744 34.484 107.02 34.976C107.296 35.468 107.668 35.852 108.136 36.128C108.604 36.392 109.12 36.524 109.684 36.524C110.128 36.524 110.494 36.482 110.782 36.398C111.07 36.302 111.31 36.188 111.502 36.056C111.694 35.924 111.862 35.798 112.006 35.678C112.186 35.57 112.366 35.516 112.546 35.516C112.762 35.516 112.942 35.594 113.086 35.75C113.23 35.894 113.302 36.068 113.302 36.272C113.302 36.536 113.17 36.776 112.906 36.992C112.582 37.304 112.132 37.58 111.556 37.82C110.992 38.06 110.398 38.18 109.774 38.18ZM120.25 38.18C119.254 38.18 118.39 37.976 117.658 37.568C116.926 37.148 116.356 36.578 115.948 35.858C115.552 35.126 115.354 34.292 115.354 33.356C115.354 32.3 115.564 31.4 115.984 30.656C116.416 29.9 116.974 29.324 117.658 28.928C118.342 28.52 119.068 28.316 119.836 28.316C120.424 28.316 120.982 28.436 121.51 28.676C122.038 28.904 122.506 29.228 122.914 29.648C123.334 30.056 123.664 30.542 123.904 31.106C124.144 31.658 124.27 32.264 124.282 32.924C124.27 33.164 124.174 33.362 123.994 33.518C123.814 33.674 123.604 33.752 123.364 33.752H116.362L115.93 32.222H122.698L122.356 32.546V32.096C122.332 31.676 122.194 31.31 121.942 30.998C121.69 30.674 121.378 30.428 121.006 30.26C120.634 30.08 120.244 29.99 119.836 29.99C119.476 29.99 119.128 30.05 118.792 30.17C118.468 30.278 118.174 30.458 117.91 30.71C117.658 30.962 117.454 31.298 117.298 31.718C117.154 32.126 117.082 32.636 117.082 33.248C117.082 33.908 117.22 34.484 117.496 34.976C117.772 35.468 118.144 35.852 118.612 36.128C119.08 36.392 119.596 36.524 120.16 36.524C120.604 36.524 120.97 36.482 121.258 36.398C121.546 36.302 121.786 36.188 121.978 36.056C122.17 35.924 122.338 35.798 122.482 35.678C122.662 35.57 122.842 35.516 123.022 35.516C123.238 35.516 123.418 35.594 123.562 35.75C123.706 35.894 123.778 36.068 123.778 36.272C123.778 36.536 123.646 36.776 123.382 36.992C123.058 37.304 122.608 37.58 122.032 37.82C121.468 38.06 120.874 38.18 120.25 38.18ZM139.084 24.68C139.348 24.68 139.564 24.764 139.732 24.932C139.9 25.1 139.984 25.322 139.984 25.598V37.082C139.984 37.346 139.9 37.568 139.732 37.748C139.564 37.916 139.348 38 139.084 38C138.832 38 138.616 37.916 138.436 37.748C138.268 37.568 138.184 37.346 138.184 37.082V35.786L138.562 35.804C138.562 36.02 138.472 36.266 138.292 36.542C138.124 36.806 137.89 37.064 137.59 37.316C137.29 37.568 136.936 37.778 136.528 37.946C136.12 38.102 135.682 38.18 135.214 38.18C134.386 38.18 133.642 37.97 132.982 37.55C132.322 37.118 131.8 36.536 131.416 35.804C131.032 35.06 130.84 34.208 130.84 33.248C130.84 32.288 131.032 31.442 131.416 30.71C131.8 29.966 132.316 29.384 132.964 28.964C133.624 28.532 134.356 28.316 135.16 28.316C135.664 28.316 136.132 28.4 136.564 28.568C137.008 28.736 137.392 28.952 137.716 29.216C138.04 29.48 138.292 29.762 138.472 30.062C138.652 30.35 138.742 30.626 138.742 30.89L138.184 30.944V25.598C138.184 25.334 138.268 25.118 138.436 24.95C138.616 24.77 138.832 24.68 139.084 24.68ZM135.412 36.524C135.988 36.524 136.486 36.38 136.906 36.092C137.338 35.804 137.674 35.414 137.914 34.922C138.154 34.43 138.274 33.872 138.274 33.248C138.274 32.624 138.154 32.066 137.914 31.574C137.674 31.082 137.338 30.692 136.906 30.404C136.474 30.116 135.976 29.972 135.412 29.972C134.86 29.972 134.368 30.116 133.936 30.404C133.516 30.692 133.18 31.082 132.928 31.574C132.688 32.066 132.568 32.624 132.568 33.248C132.568 33.872 132.688 34.43 132.928 34.922C133.18 35.414 133.516 35.804 133.936 36.092C134.368 36.38 134.86 36.524 135.412 36.524ZM146.916 38.18C145.92 38.18 145.056 37.976 144.324 37.568C143.592 37.148 143.022 36.578 142.614 35.858C142.218 35.126 142.02 34.292 142.02 33.356C142.02 32.3 142.23 31.4 142.65 30.656C143.082 29.9 143.64 29.324 144.324 28.928C145.008 28.52 145.734 28.316 146.502 28.316C147.09 28.316 147.648 28.436 148.176 28.676C148.704 28.904 149.172 29.228 149.58 29.648C150 30.056 150.33 30.542 150.57 31.106C150.81 31.658 150.936 32.264 150.948 32.924C150.936 33.164 150.84 33.362 150.66 33.518C150.48 33.674 150.27 33.752 150.03 33.752H143.028L142.596 32.222H149.364L149.022 32.546V32.096C148.998 31.676 148.86 31.31 148.608 30.998C148.356 30.674 148.044 30.428 147.672 30.26C147.3 30.08 146.91 29.99 146.502 29.99C146.142 29.99 145.794 30.05 145.458 30.17C145.134 30.278 144.84 30.458 144.576 30.71C144.324 30.962 144.12 31.298 143.964 31.718C143.82 32.126 143.748 32.636 143.748 33.248C143.748 33.908 143.886 34.484 144.162 34.976C144.438 35.468 144.81 35.852 145.278 36.128C145.746 36.392 146.262 36.524 146.826 36.524C147.27 36.524 147.636 36.482 147.924 36.398C148.212 36.302 148.452 36.188 148.644 36.056C148.836 35.924 149.004 35.798 149.148 35.678C149.328 35.57 149.508 35.516 149.688 35.516C149.904 35.516 150.084 35.594 150.228 35.75C150.372 35.894 150.444 36.068 150.444 36.272C150.444 36.536 150.312 36.776 150.048 36.992C149.724 37.304 149.274 37.58 148.698 37.82C148.134 38.06 147.54 38.18 146.916 38.18ZM154.927 37.082C154.927 37.346 154.837 37.568 154.657 37.748C154.489 37.916 154.279 38 154.027 38C153.775 38 153.559 37.916 153.379 37.748C153.211 37.568 153.127 37.346 153.127 37.082V25.598C153.127 25.334 153.217 25.118 153.397 24.95C153.577 24.77 153.793 24.68 154.045 24.68C154.309 24.68 154.519 24.77 154.675 24.95C154.843 25.118 154.927 25.334 154.927 25.598V37.082ZM159.298 37.082C159.298 37.346 159.214 37.568 159.046 37.748C158.878 37.916 158.662 38 158.398 38C158.146 38 157.93 37.916 157.75 37.748C157.582 37.568 157.498 37.346 157.498 37.082V29.378C157.498 29.114 157.582 28.898 157.75 28.73C157.93 28.55 158.146 28.46 158.398 28.46C158.662 28.46 158.878 28.55 159.046 28.73C159.214 28.898 159.298 29.114 159.298 29.378V37.082ZM158.38 27.272C158.032 27.272 157.78 27.212 157.624 27.092C157.468 26.96 157.39 26.744 157.39 26.444V26.156C157.39 25.856 157.474 25.646 157.642 25.526C157.81 25.406 158.062 25.346 158.398 25.346C158.758 25.346 159.016 25.412 159.172 25.544C159.328 25.664 159.406 25.868 159.406 26.156V26.444C159.406 26.756 159.322 26.972 159.154 27.092C158.998 27.212 158.74 27.272 158.38 27.272ZM161.935 28.442C162.115 28.442 162.283 28.49 162.439 28.586C162.607 28.682 162.727 28.826 162.799 29.018L165.625 35.552L165.283 35.714L168.145 29.036C168.313 28.64 168.583 28.448 168.955 28.46C169.195 28.46 169.393 28.538 169.549 28.694C169.717 28.838 169.801 29.03 169.801 29.27C169.801 29.342 169.789 29.42 169.765 29.504C169.741 29.576 169.711 29.648 169.675 29.72L166.255 37.424C166.099 37.784 165.841 37.976 165.481 38C165.301 38.024 165.121 37.988 164.941 37.892C164.773 37.784 164.641 37.628 164.545 37.424L161.143 29.72C161.119 29.672 161.095 29.612 161.071 29.54C161.047 29.456 161.035 29.36 161.035 29.252C161.035 29.072 161.113 28.892 161.269 28.712C161.437 28.532 161.659 28.442 161.935 28.442ZM175.955 38.18C174.959 38.18 174.095 37.976 173.363 37.568C172.631 37.148 172.061 36.578 171.653 35.858C171.257 35.126 171.059 34.292 171.059 33.356C171.059 32.3 171.269 31.4 171.689 30.656C172.121 29.9 172.679 29.324 173.363 28.928C174.047 28.52 174.773 28.316 175.541 28.316C176.129 28.316 176.687 28.436 177.215 28.676C177.743 28.904 178.211 29.228 178.619 29.648C179.039 30.056 179.369 30.542 179.609 31.106C179.849 31.658 179.975 32.264 179.987 32.924C179.975 33.164 179.879 33.362 179.699 33.518C179.519 33.674 179.309 33.752 179.069 33.752H172.067L171.635 32.222H178.403L178.061 32.546V32.096C178.037 31.676 177.899 31.31 177.647 30.998C177.395 30.674 177.083 30.428 176.711 30.26C176.339 30.08 175.949 29.99 175.541 29.99C175.181 29.99 174.833 30.05 174.497 30.17C174.173 30.278 173.879 30.458 173.615 30.71C173.363 30.962 173.159 31.298 173.003 31.718C172.859 32.126 172.787 32.636 172.787 33.248C172.787 33.908 172.925 34.484 173.201 34.976C173.477 35.468 173.849 35.852 174.317 36.128C174.785 36.392 175.301 36.524 175.865 36.524C176.309 36.524 176.675 36.482 176.963 36.398C177.251 36.302 177.491 36.188 177.683 36.056C177.875 35.924 178.043 35.798 178.187 35.678C178.367 35.57 178.547 35.516 178.727 35.516C178.943 35.516 179.123 35.594 179.267 35.75C179.411 35.894 179.483 36.068 179.483 36.272C179.483 36.536 179.351 36.776 179.087 36.992C178.763 37.304 178.313 37.58 177.737 37.82C177.173 38.06 176.579 38.18 175.955 38.18ZM182.922 38C182.658 38 182.442 37.916 182.274 37.748C182.106 37.568 182.022 37.346 182.022 37.082V29.45C182.022 29.186 182.106 28.97 182.274 28.802C182.442 28.622 182.658 28.532 182.922 28.532C183.174 28.532 183.384 28.622 183.552 28.802C183.732 28.97 183.822 29.186 183.822 29.45V31.466L183.642 30.692C183.738 30.356 183.882 30.044 184.074 29.756C184.278 29.468 184.518 29.216 184.794 29C185.07 28.784 185.376 28.616 185.712 28.496C186.06 28.376 186.42 28.316 186.792 28.316C187.104 28.316 187.374 28.4 187.602 28.568C187.83 28.736 187.944 28.946 187.944 29.198C187.944 29.522 187.86 29.762 187.692 29.918C187.524 30.062 187.338 30.134 187.134 30.134C186.954 30.134 186.78 30.098 186.612 30.026C186.444 29.942 186.246 29.9 186.018 29.9C185.766 29.9 185.508 29.966 185.244 30.098C184.98 30.23 184.74 30.428 184.524 30.692C184.308 30.944 184.134 31.244 184.002 31.592C183.882 31.94 183.822 32.33 183.822 32.762V37.082C183.822 37.346 183.732 37.568 183.552 37.748C183.384 37.916 183.174 38 182.922 38ZM196.583 28.46C196.847 28.46 197.063 28.55 197.231 28.73C197.399 28.898 197.483 29.114 197.483 29.378V37.118C197.483 38.174 197.279 39.032 196.871 39.692C196.475 40.352 195.935 40.832 195.251 41.132C194.579 41.444 193.817 41.6 192.965 41.6C192.533 41.6 192.101 41.558 191.669 41.474C191.237 41.402 190.883 41.294 190.607 41.15C190.319 41.018 190.115 40.856 189.995 40.664C189.875 40.472 189.857 40.262 189.941 40.034C190.025 39.746 190.169 39.548 190.373 39.44C190.577 39.344 190.787 39.338 191.003 39.422C191.207 39.506 191.477 39.614 191.813 39.746C192.149 39.878 192.533 39.944 192.965 39.944C193.553 39.944 194.051 39.848 194.459 39.656C194.867 39.464 195.173 39.164 195.377 38.756C195.593 38.348 195.701 37.82 195.701 37.172V35.93L195.989 36.362C195.797 36.758 195.545 37.088 195.233 37.352C194.921 37.616 194.549 37.82 194.117 37.964C193.697 38.108 193.229 38.18 192.713 38.18C192.053 38.18 191.483 38.036 191.003 37.748C190.535 37.448 190.175 37.04 189.923 36.524C189.671 35.996 189.545 35.396 189.545 34.724V29.378C189.545 29.114 189.629 28.898 189.797 28.73C189.965 28.55 190.181 28.46 190.445 28.46C190.697 28.46 190.907 28.55 191.075 28.73C191.255 28.898 191.345 29.114 191.345 29.378V34.238C191.345 35.03 191.519 35.612 191.867 35.984C192.215 36.344 192.731 36.524 193.415 36.524C193.871 36.524 194.267 36.428 194.603 36.236C194.939 36.044 195.203 35.78 195.395 35.444C195.587 35.096 195.683 34.694 195.683 34.238V29.378C195.683 29.114 195.767 28.898 195.935 28.73C196.115 28.55 196.331 28.46 196.583 28.46Z" fill="#253D4E"/>
<path d="M93.048 56.8C93.8267 56.8 94.5093 56.9493 95.096 57.248C95.6933 57.536 96.1893 57.9413 96.584 58.464C96.9787 58.9867 97.272 59.5893 97.464 60.272C97.6667 60.944 97.768 61.6533 97.768 62.4C97.768 63.424 97.592 64.3627 97.24 65.216C96.888 66.0587 96.3653 66.736 95.672 67.248C94.9787 67.7493 94.104 68 93.048 68H89.048C88.8667 68 88.712 67.936 88.584 67.808C88.4667 67.68 88.408 67.5253 88.408 67.344V57.44C88.408 57.2587 88.4667 57.1093 88.584 56.992C88.712 56.864 88.8667 56.8 89.048 56.8H93.048ZM92.888 66.752C93.7093 66.752 94.376 66.5547 94.888 66.16C95.4107 65.7653 95.7893 65.2373 96.024 64.576C96.2693 63.9147 96.392 63.1893 96.392 62.4C96.392 61.824 96.3227 61.2747 96.184 60.752C96.056 60.2187 95.848 59.7493 95.56 59.344C95.2827 58.9387 94.92 58.6187 94.472 58.384C94.0347 58.1493 93.5067 58.032 92.888 58.032H89.608L89.736 57.904V66.912L89.64 66.752H92.888ZM107.649 63.84C107.649 64.672 107.463 65.4133 107.089 66.064C106.727 66.7147 106.231 67.2267 105.601 67.6C104.983 67.9733 104.284 68.16 103.505 68.16C102.727 68.16 102.023 67.9733 101.393 67.6C100.764 67.2267 100.263 66.7147 99.8894 66.064C99.5267 65.4133 99.3454 64.672 99.3454 63.84C99.3454 63.008 99.5267 62.2667 99.8894 61.616C100.263 60.9653 100.764 60.4533 101.393 60.08C102.023 59.7067 102.727 59.52 103.505 59.52C104.284 59.52 104.983 59.7067 105.601 60.08C106.231 60.4533 106.727 60.9653 107.089 61.616C107.463 62.2667 107.649 63.008 107.649 63.84ZM106.369 63.84C106.369 63.2213 106.241 62.6773 105.985 62.208C105.74 61.7387 105.399 61.3707 104.961 61.104C104.535 60.8373 104.049 60.704 103.505 60.704C102.961 60.704 102.471 60.8373 102.033 61.104C101.607 61.3707 101.265 61.7387 101.009 62.208C100.753 62.6773 100.625 63.2213 100.625 63.84C100.625 64.448 100.753 64.9867 101.009 65.456C101.265 65.9253 101.607 66.2987 102.033 66.576C102.471 66.8427 102.961 66.976 103.505 66.976C104.049 66.976 104.535 66.8427 104.961 66.576C105.399 66.2987 105.74 65.9253 105.985 65.456C106.241 64.9867 106.369 64.448 106.369 63.84ZM118.061 59.6C118.786 59.6 119.437 59.7813 120.013 60.144C120.589 60.5067 121.042 61.008 121.373 61.648C121.714 62.288 121.885 63.024 121.885 63.856C121.885 64.6773 121.714 65.4133 121.373 66.064C121.042 66.704 120.589 67.2107 120.013 67.584C119.448 67.9467 118.808 68.128 118.093 68.128C117.698 68.128 117.325 68.0693 116.973 67.952C116.632 67.824 116.317 67.664 116.029 67.472C115.752 67.2693 115.517 67.0453 115.325 66.8C115.133 66.544 114.994 66.2933 114.909 66.048L115.261 65.824V70.544C115.261 70.7253 115.202 70.88 115.085 71.008C114.968 71.136 114.813 71.2 114.621 71.2C114.44 71.2 114.285 71.136 114.157 71.008C114.04 70.8907 113.981 70.736 113.981 70.544V60.32C113.981 60.1387 114.04 59.9893 114.157 59.872C114.285 59.744 114.44 59.68 114.621 59.68C114.813 59.68 114.968 59.744 115.085 59.872C115.202 59.9893 115.261 60.1387 115.261 60.32V61.744L115.021 61.616C115.096 61.3493 115.224 61.0933 115.405 60.848C115.597 60.6027 115.826 60.3893 116.093 60.208C116.37 60.016 116.674 59.8667 117.005 59.76C117.346 59.6533 117.698 59.6 118.061 59.6ZM117.917 60.784C117.384 60.784 116.909 60.9173 116.493 61.184C116.088 61.4507 115.768 61.8133 115.533 62.272C115.309 62.7307 115.197 63.2587 115.197 63.856C115.197 64.4427 115.309 64.9707 115.533 65.44C115.768 65.9093 116.088 66.2773 116.493 66.544C116.909 66.8107 117.384 66.944 117.917 66.944C118.45 66.944 118.92 66.8107 119.325 66.544C119.73 66.2773 120.05 65.9093 120.285 65.44C120.52 64.9707 120.637 64.4427 120.637 63.856C120.637 63.2587 120.52 62.7307 120.285 62.272C120.05 61.8133 119.73 61.4507 119.325 61.184C118.92 60.9173 118.45 60.784 117.917 60.784ZM130.001 59.728C130.193 59.728 130.348 59.792 130.465 59.92C130.582 60.0373 130.641 60.1867 130.641 60.368V64.736C130.641 65.8133 130.337 66.6507 129.729 67.248C129.132 67.8347 128.294 68.128 127.217 68.128C126.15 68.128 125.313 67.8347 124.705 67.248C124.108 66.6507 123.809 65.8133 123.809 64.736V60.368C123.809 60.1867 123.868 60.0373 123.985 59.92C124.113 59.792 124.268 59.728 124.449 59.728C124.641 59.728 124.796 59.792 124.913 59.92C125.03 60.0373 125.089 60.1867 125.089 60.368V64.736C125.089 65.4613 125.276 66.0107 125.649 66.384C126.022 66.7573 126.545 66.944 127.217 66.944C127.91 66.944 128.438 66.7573 128.801 66.384C129.174 66.0107 129.361 65.4613 129.361 64.736V60.368C129.361 60.1867 129.42 60.0373 129.537 59.92C129.665 59.792 129.82 59.728 130.001 59.728ZM133.652 68C133.471 68 133.316 67.936 133.188 67.808C133.071 67.68 133.012 67.5253 133.012 67.344V60.368C133.012 60.1867 133.071 60.0373 133.188 59.92C133.316 59.792 133.471 59.728 133.652 59.728C133.844 59.728 133.999 59.792 134.116 59.92C134.233 60.0373 134.292 60.1867 134.292 60.368V62.48L134.1 62.144C134.164 61.8133 134.276 61.4933 134.436 61.184C134.607 60.864 134.82 60.5813 135.076 60.336C135.332 60.08 135.625 59.8827 135.956 59.744C136.287 59.5947 136.649 59.52 137.044 59.52C137.279 59.52 137.492 59.5787 137.684 59.696C137.887 59.8027 137.988 59.9573 137.988 60.16C137.988 60.384 137.929 60.5493 137.812 60.656C137.695 60.7627 137.561 60.816 137.412 60.816C137.273 60.816 137.14 60.7893 137.012 60.736C136.884 60.672 136.724 60.64 136.532 60.64C136.265 60.64 135.999 60.7147 135.732 60.864C135.476 61.0027 135.236 61.2053 135.012 61.472C134.799 61.7387 134.623 62.0427 134.484 62.384C134.356 62.7147 134.292 63.072 134.292 63.456V67.344C134.292 67.5253 134.228 67.68 134.1 67.808C133.983 67.936 133.833 68 133.652 68ZM142.755 59.52C143.299 59.52 143.789 59.5787 144.227 59.696C144.664 59.8133 145.011 59.9733 145.267 60.176C145.523 60.3787 145.651 60.608 145.651 60.864C145.651 61.0027 145.603 61.136 145.507 61.264C145.411 61.392 145.283 61.456 145.123 61.456C144.973 61.456 144.851 61.4293 144.755 61.376C144.669 61.3227 144.584 61.2533 144.499 61.168C144.424 61.0827 144.317 61.008 144.179 60.944C144.051 60.8693 143.864 60.8107 143.619 60.768C143.373 60.7253 143.128 60.704 142.883 60.704C142.296 60.704 141.779 60.8427 141.331 61.12C140.893 61.3973 140.547 61.7707 140.291 62.24C140.035 62.7093 139.907 63.2427 139.907 63.84C139.907 64.4373 140.029 64.9707 140.275 65.44C140.52 65.9093 140.861 66.2827 141.299 66.56C141.736 66.8373 142.243 66.976 142.819 66.976C143.192 66.976 143.491 66.944 143.715 66.88C143.939 66.816 144.125 66.7413 144.275 66.656C144.467 66.5493 144.611 66.4427 144.707 66.336C144.813 66.2293 144.952 66.176 145.123 66.176C145.304 66.176 145.443 66.2347 145.539 66.352C145.645 66.4693 145.699 66.6133 145.699 66.784C145.699 66.976 145.565 67.1787 145.299 67.392C145.032 67.6053 144.669 67.7867 144.211 67.936C143.763 68.0853 143.251 68.16 142.675 68.16C141.864 68.16 141.155 67.9733 140.547 67.6C139.939 67.216 139.464 66.6987 139.123 66.048C138.792 65.3867 138.627 64.6507 138.627 63.84C138.627 63.0293 138.797 62.2987 139.139 61.648C139.491 60.9973 139.976 60.48 140.595 60.096C141.213 59.712 141.933 59.52 142.755 59.52ZM151.372 59.6C152.076 59.6 152.63 59.7547 153.036 60.064C153.452 60.3627 153.745 60.768 153.916 61.28C154.097 61.7813 154.188 62.3413 154.188 62.96V67.344C154.188 67.5253 154.124 67.68 153.996 67.808C153.878 67.936 153.729 68 153.548 68C153.366 68 153.212 67.936 153.084 67.808C152.966 67.68 152.908 67.5253 152.908 67.344V62.96C152.908 62.5547 152.849 62.192 152.732 61.872C152.614 61.5413 152.417 61.28 152.14 61.088C151.873 60.8853 151.505 60.784 151.036 60.784C150.598 60.784 150.198 60.8853 149.836 61.088C149.473 61.28 149.185 61.5413 148.972 61.872C148.758 62.192 148.652 62.5547 148.652 62.96V67.344C148.652 67.5253 148.588 67.68 148.46 67.808C148.342 67.936 148.193 68 148.012 68C147.83 68 147.676 67.936 147.548 67.808C147.43 67.68 147.372 67.5253 147.372 67.344V56.8C147.372 56.6187 147.43 56.4693 147.548 56.352C147.676 56.224 147.83 56.16 148.012 56.16C148.204 56.16 148.358 56.224 148.476 56.352C148.593 56.4693 148.652 56.6187 148.652 56.8V61.584L148.332 61.936C148.385 61.6587 148.502 61.3813 148.684 61.104C148.865 60.816 149.094 60.56 149.372 60.336C149.649 60.112 149.958 59.936 150.299 59.808C150.641 59.6693 150.998 59.6 151.372 59.6ZM163.375 59.648C163.556 59.648 163.706 59.712 163.823 59.84C163.951 59.9573 164.015 60.1067 164.015 60.288V67.344C164.015 67.5253 163.951 67.68 163.823 67.808C163.706 67.936 163.556 68 163.375 68C163.183 68 163.028 67.936 162.911 67.808C162.794 67.68 162.735 67.5253 162.735 67.344V65.824L163.039 65.792C163.039 66.0267 162.959 66.2827 162.799 66.56C162.639 66.8373 162.42 67.0987 162.143 67.344C161.866 67.5787 161.535 67.776 161.151 67.936C160.778 68.0853 160.372 68.16 159.935 68.16C159.21 68.16 158.559 67.9733 157.983 67.6C157.407 67.216 156.948 66.6987 156.607 66.048C156.276 65.3973 156.111 64.656 156.111 63.824C156.111 62.9813 156.276 62.24 156.607 61.6C156.948 60.9493 157.407 60.4427 157.983 60.08C158.559 59.7067 159.199 59.52 159.903 59.52C160.362 59.52 160.788 59.5947 161.183 59.744C161.578 59.8933 161.919 60.096 162.207 60.352C162.506 60.608 162.735 60.8907 162.895 61.2C163.066 61.5093 163.151 61.8187 163.151 62.128L162.735 62.032V60.288C162.735 60.1067 162.794 59.9573 162.911 59.84C163.028 59.712 163.183 59.648 163.375 59.648ZM160.079 66.976C160.612 66.976 161.082 66.8373 161.487 66.56C161.903 66.2827 162.223 65.9093 162.447 65.44C162.682 64.96 162.799 64.4213 162.799 63.824C162.799 63.2373 162.682 62.7093 162.447 62.24C162.223 61.76 161.903 61.3867 161.487 61.12C161.082 60.8427 160.612 60.704 160.079 60.704C159.556 60.704 159.087 60.8373 158.671 61.104C158.266 61.3707 157.946 61.7387 157.711 62.208C157.476 62.6773 157.359 63.216 157.359 63.824C157.359 64.4213 157.471 64.96 157.695 65.44C157.93 65.9093 158.25 66.2827 158.655 66.56C159.071 66.8373 159.546 66.976 160.079 66.976ZM165.923 66.688C165.827 66.5493 165.784 66.4053 165.795 66.256C165.806 66.096 165.896 65.9573 166.067 65.84C166.174 65.7653 166.296 65.7333 166.435 65.744C166.584 65.7547 166.718 65.824 166.835 65.952C167.134 66.304 167.475 66.5867 167.859 66.8C168.243 67.0027 168.712 67.104 169.267 67.104C169.523 67.0933 169.779 67.0507 170.035 66.976C170.291 66.9013 170.504 66.7733 170.675 66.592C170.856 66.4 170.947 66.1493 170.947 65.84C170.947 65.5413 170.856 65.3067 170.675 65.136C170.494 64.9547 170.259 64.8107 169.971 64.704C169.683 64.5867 169.368 64.4853 169.027 64.4C168.675 64.304 168.328 64.1973 167.987 64.08C167.646 63.952 167.336 63.7973 167.059 63.616C166.792 63.424 166.574 63.1893 166.403 62.912C166.243 62.624 166.163 62.2773 166.163 61.872C166.163 61.392 166.291 60.976 166.547 60.624C166.814 60.272 167.166 60 167.603 59.808C168.051 59.616 168.536 59.52 169.059 59.52C169.358 59.52 169.667 59.5573 169.987 59.632C170.318 59.696 170.638 59.8133 170.947 59.984C171.256 60.144 171.528 60.368 171.763 60.656C171.859 60.7627 171.912 60.896 171.923 61.056C171.934 61.216 171.864 61.36 171.715 61.488C171.598 61.5733 171.464 61.6107 171.315 61.6C171.176 61.5893 171.059 61.536 170.963 61.44C170.739 61.1733 170.456 60.9707 170.115 60.832C169.784 60.6827 169.416 60.608 169.011 60.608C168.755 60.608 168.504 60.6453 168.259 60.72C168.014 60.7947 167.806 60.9227 167.635 61.104C167.475 61.2747 167.395 61.5147 167.395 61.824C167.406 62.112 167.502 62.3467 167.683 62.528C167.864 62.7093 168.11 62.8587 168.419 62.976C168.728 63.0827 169.07 63.1893 169.443 63.296C169.784 63.3813 170.11 63.4827 170.419 63.6C170.739 63.7067 171.027 63.8507 171.283 64.032C171.539 64.2133 171.742 64.448 171.891 64.736C172.04 65.0133 172.115 65.3653 172.115 65.792C172.115 66.2827 171.976 66.7093 171.699 67.072C171.422 67.424 171.054 67.696 170.595 67.888C170.147 68.0693 169.662 68.16 169.139 68.16C168.552 68.16 167.971 68.048 167.395 67.824C166.83 67.6 166.339 67.2213 165.923 66.688ZM177.789 68.16C176.936 68.16 176.189 67.9787 175.549 67.616C174.909 67.2533 174.408 66.7573 174.045 66.128C173.693 65.488 173.517 64.752 173.517 63.92C173.517 62.992 173.699 62.2027 174.061 61.552C174.435 60.8907 174.915 60.3893 175.501 60.048C176.099 59.696 176.728 59.52 177.389 59.52C177.88 59.52 178.355 59.6107 178.813 59.792C179.272 59.9733 179.677 60.24 180.029 60.592C180.381 60.9333 180.664 61.3493 180.877 61.84C181.091 62.32 181.203 62.8587 181.213 63.456C181.213 63.6267 181.149 63.7707 181.021 63.888C180.893 64.0053 180.744 64.064 180.573 64.064H174.253L173.965 62.96H180.125L179.869 63.184V62.832C179.827 62.3947 179.677 62.0213 179.421 61.712C179.176 61.392 178.872 61.1467 178.509 60.976C178.157 60.8053 177.784 60.72 177.389 60.72C177.069 60.72 176.749 60.7787 176.429 60.896C176.12 61.0027 175.837 61.184 175.581 61.44C175.336 61.6853 175.133 62.0053 174.973 62.4C174.824 62.7947 174.749 63.2693 174.749 63.824C174.749 64.4427 174.872 64.9867 175.117 65.456C175.373 65.9253 175.725 66.2987 176.173 66.576C176.621 66.8427 177.144 66.976 177.741 66.976C178.115 66.976 178.44 66.928 178.717 66.832C178.995 66.736 179.235 66.6187 179.437 66.48C179.64 66.3307 179.811 66.1813 179.949 66.032C180.088 65.936 180.221 65.888 180.349 65.888C180.509 65.888 180.637 65.9413 180.733 66.048C180.84 66.1547 180.893 66.2827 180.893 66.432C180.893 66.6133 180.808 66.7733 180.637 66.912C180.339 67.2427 179.933 67.536 179.421 67.792C178.909 68.0373 178.365 68.16 177.789 68.16ZM195.399 63.84C195.399 64.672 195.213 65.4133 194.839 66.064C194.477 66.7147 193.981 67.2267 193.351 67.6C192.733 67.9733 192.034 68.16 191.255 68.16C190.477 68.16 189.773 67.9733 189.143 67.6C188.514 67.2267 188.013 66.7147 187.639 66.064C187.277 65.4133 187.095 64.672 187.095 63.84C187.095 63.008 187.277 62.2667 187.639 61.616C188.013 60.9653 188.514 60.4533 189.143 60.08C189.773 59.7067 190.477 59.52 191.255 59.52C192.034 59.52 192.733 59.7067 193.351 60.08C193.981 60.4533 194.477 60.9653 194.839 61.616C195.213 62.2667 195.399 63.008 195.399 63.84ZM194.119 63.84C194.119 63.2213 193.991 62.6773 193.735 62.208C193.49 61.7387 193.149 61.3707 192.711 61.104C192.285 60.8373 191.799 60.704 191.255 60.704C190.711 60.704 190.221 60.8373 189.783 61.104C189.357 61.3707 189.015 61.7387 188.759 62.208C188.503 62.6773 188.375 63.2213 188.375 63.84C188.375 64.448 188.503 64.9867 188.759 65.456C189.015 65.9253 189.357 66.2987 189.783 66.576C190.221 66.8427 190.711 66.976 191.255 66.976C191.799 66.976 192.285 66.8427 192.711 66.576C193.149 66.2987 193.49 65.9253 193.735 65.456C193.991 64.9867 194.119 64.448 194.119 63.84ZM197.247 59.584C197.375 59.584 197.497 59.6213 197.615 59.696C197.732 59.76 197.817 59.856 197.871 59.984L200.527 66.224L200.271 66.352L202.975 60C203.092 59.712 203.289 59.5733 203.567 59.584C203.727 59.584 203.865 59.6373 203.983 59.744C204.1 59.8507 204.159 59.984 204.159 60.144C204.159 60.208 204.148 60.272 204.127 60.336C204.116 60.3893 204.1 60.4373 204.079 60.48L200.991 67.584C200.873 67.8507 200.687 67.9893 200.431 68C200.292 68.0107 200.159 67.984 200.031 67.92C199.913 67.8453 199.828 67.7333 199.775 67.584L196.687 60.496C196.665 60.4533 196.644 60.4053 196.623 60.352C196.612 60.2987 196.607 60.2347 196.607 60.16C196.607 60.0213 196.66 59.8933 196.767 59.776C196.884 59.648 197.044 59.584 197.247 59.584ZM209.633 68.16C208.78 68.16 208.033 67.9787 207.393 67.616C206.753 67.2533 206.252 66.7573 205.889 66.128C205.537 65.488 205.361 64.752 205.361 63.92C205.361 62.992 205.542 62.2027 205.905 61.552C206.278 60.8907 206.758 60.3893 207.345 60.048C207.942 59.696 208.572 59.52 209.233 59.52C209.724 59.52 210.198 59.6107 210.657 59.792C211.116 59.9733 211.521 60.24 211.873 60.592C212.225 60.9333 212.508 61.3493 212.721 61.84C212.934 62.32 213.046 62.8587 213.057 63.456C213.057 63.6267 212.993 63.7707 212.865 63.888C212.737 64.0053 212.588 64.064 212.417 64.064H206.097L205.809 62.96H211.969L211.713 63.184V62.832C211.67 62.3947 211.521 62.0213 211.265 61.712C211.02 61.392 210.716 61.1467 210.353 60.976C210.001 60.8053 209.628 60.72 209.233 60.72C208.913 60.72 208.593 60.7787 208.273 60.896C207.964 61.0027 207.681 61.184 207.425 61.44C207.18 61.6853 206.977 62.0053 206.817 62.4C206.668 62.7947 206.593 63.2693 206.593 63.824C206.593 64.4427 206.716 64.9867 206.961 65.456C207.217 65.9253 207.569 66.2987 208.017 66.576C208.465 66.8427 208.988 66.976 209.585 66.976C209.958 66.976 210.284 66.928 210.561 66.832C210.838 66.736 211.078 66.6187 211.281 66.48C211.484 66.3307 211.654 66.1813 211.793 66.032C211.932 65.936 212.065 65.888 212.193 65.888C212.353 65.888 212.481 65.9413 212.577 66.048C212.684 66.1547 212.737 66.2827 212.737 66.432C212.737 66.6133 212.652 66.7733 212.481 66.912C212.182 67.2427 211.777 67.536 211.265 67.792C210.753 68.0373 210.209 68.16 209.633 68.16ZM215.621 68C215.44 68 215.285 67.936 215.157 67.808C215.04 67.68 214.981 67.5253 214.981 67.344V60.368C214.981 60.1867 215.04 60.0373 215.157 59.92C215.285 59.792 215.44 59.728 215.621 59.728C215.813 59.728 215.968 59.792 216.085 59.92C216.202 60.0373 216.261 60.1867 216.261 60.368V62.48L216.069 62.144C216.133 61.8133 216.245 61.4933 216.405 61.184C216.576 60.864 216.789 60.5813 217.045 60.336C217.301 60.08 217.594 59.8827 217.925 59.744C218.256 59.5947 218.618 59.52 219.013 59.52C219.248 59.52 219.461 59.5787 219.653 59.696C219.856 59.8027 219.957 59.9573 219.957 60.16C219.957 60.384 219.898 60.5493 219.781 60.656C219.664 60.7627 219.53 60.816 219.381 60.816C219.242 60.816 219.109 60.7893 218.981 60.736C218.853 60.672 218.693 60.64 218.501 60.64C218.234 60.64 217.968 60.7147 217.701 60.864C217.445 61.0027 217.205 61.2053 216.981 61.472C216.768 61.7387 216.592 62.0427 216.453 62.384C216.325 62.7147 216.261 63.072 216.261 63.456V67.344C216.261 67.5253 216.197 67.68 216.069 67.808C215.952 67.936 215.802 68 215.621 68ZM229.297 68.16C228.508 68.16 227.814 68.0427 227.217 67.808C226.62 67.5733 226.044 67.2 225.489 66.688C225.414 66.6133 225.35 66.5333 225.297 66.448C225.254 66.352 225.233 66.2507 225.233 66.144C225.233 65.9733 225.292 65.824 225.409 65.696C225.537 65.5573 225.692 65.488 225.873 65.488C226.022 65.488 226.156 65.5467 226.273 65.664C226.689 66.0693 227.137 66.3787 227.617 66.592C228.108 66.8053 228.657 66.912 229.265 66.912C229.734 66.912 230.156 66.8373 230.529 66.688C230.913 66.5387 231.217 66.3307 231.441 66.064C231.665 65.7973 231.777 65.488 231.777 65.136C231.766 64.7093 231.638 64.3573 231.393 64.08C231.158 63.8027 230.828 63.5733 230.401 63.392C229.985 63.2 229.5 63.04 228.945 62.912C228.454 62.7947 228.001 62.6507 227.585 62.48C227.18 62.3093 226.828 62.1013 226.529 61.856C226.23 61.6 225.996 61.296 225.825 60.944C225.665 60.5813 225.585 60.16 225.585 59.68C225.585 59.072 225.745 58.5387 226.065 58.08C226.385 57.6213 226.828 57.2693 227.393 57.024C227.958 56.768 228.609 56.64 229.345 56.64C229.996 56.64 230.609 56.7467 231.185 56.96C231.772 57.1733 232.241 57.4667 232.593 57.84C232.806 58.0427 232.913 58.24 232.913 58.432C232.913 58.592 232.844 58.7413 232.705 58.88C232.577 59.008 232.428 59.072 232.257 59.072C232.14 59.072 232.033 59.0293 231.937 58.944C231.756 58.7413 231.526 58.56 231.249 58.4C230.972 58.24 230.668 58.112 230.337 58.016C230.006 57.92 229.676 57.872 229.345 57.872C228.854 57.872 228.422 57.9467 228.049 58.096C227.676 58.2347 227.382 58.4373 227.169 58.704C226.966 58.96 226.865 59.2693 226.865 59.632C226.865 60.0373 226.982 60.3733 227.217 60.64C227.452 60.896 227.766 61.1093 228.161 61.28C228.556 61.44 228.993 61.584 229.473 61.712C229.996 61.84 230.476 61.9893 230.913 62.16C231.361 62.32 231.745 62.5227 232.065 62.768C232.385 63.0133 232.63 63.328 232.801 63.712C232.982 64.0853 233.073 64.5493 233.073 65.104C233.073 65.6907 232.908 66.2133 232.577 66.672C232.246 67.1307 231.793 67.4933 231.217 67.76C230.652 68.016 230.012 68.1493 229.297 68.16ZM230.017 69.632C230.017 69.8133 229.953 69.9627 229.825 70.08C229.708 70.208 229.553 70.272 229.361 70.272C229.18 70.272 229.03 70.208 228.913 70.08C228.796 69.9627 228.737 69.8133 228.737 69.632V55.68C228.737 55.4987 228.796 55.344 228.913 55.216C229.041 55.088 229.196 55.024 229.377 55.024C229.569 55.024 229.724 55.088 229.841 55.216C229.958 55.344 230.017 55.4987 230.017 55.68V69.632ZM237.605 68.064C237.178 68.064 236.741 68 236.293 67.872C235.855 67.7333 235.471 67.5307 235.141 67.264C235.055 67.1893 234.986 67.0933 234.933 66.976C234.879 66.8587 234.853 66.7467 234.853 66.64C234.853 66.512 234.906 66.3893 235.013 66.272C235.13 66.144 235.279 66.08 235.461 66.08C235.599 66.08 235.759 66.1493 235.941 66.288C236.175 66.4693 236.437 66.6133 236.725 66.72C237.013 66.8267 237.301 66.88 237.589 66.88C238.186 66.88 238.703 66.768 239.141 66.544C239.578 66.32 239.914 66.0053 240.149 65.6C240.383 65.1947 240.501 64.72 240.501 64.176C240.501 63.6853 240.389 63.2587 240.165 62.896C239.951 62.5227 239.647 62.2347 239.253 62.032C238.869 61.8293 238.426 61.728 237.924 61.728C237.551 61.728 237.215 61.7867 236.917 61.904C236.629 62.0107 236.373 62.1227 236.149 62.24C235.935 62.3573 235.749 62.416 235.589 62.416C235.386 62.416 235.231 62.3733 235.125 62.288C235.018 62.192 234.949 62.0747 234.917 61.936C234.885 61.7973 234.874 61.6693 234.885 61.552L235.509 57.408C235.541 57.2693 235.615 57.1467 235.733 57.04C235.85 56.9333 235.994 56.88 236.164 56.88H240.917C241.087 56.88 241.231 56.9387 241.349 57.056C241.466 57.1733 241.525 57.3227 241.525 57.504C241.525 57.6747 241.466 57.8187 241.349 57.936C241.231 58.0427 241.087 58.096 240.917 58.096H236.485L236.645 57.952L236.053 61.568L235.797 61.232C235.914 61.1253 236.09 61.0187 236.325 60.912C236.57 60.8053 236.847 60.7147 237.157 60.64C237.477 60.5653 237.802 60.528 238.133 60.528C238.826 60.528 239.445 60.688 239.989 61.008C240.543 61.3173 240.981 61.744 241.301 62.288C241.621 62.832 241.781 63.456 241.781 64.16C241.781 64.9387 241.61 65.6213 241.269 66.208C240.927 66.7947 240.442 67.2533 239.813 67.584C239.194 67.904 238.458 68.064 237.605 68.064ZM247.519 68.16C246.634 68.16 245.892 67.9093 245.295 67.408C244.708 66.9067 244.26 66.2187 243.951 65.344C243.652 64.4693 243.503 63.488 243.503 62.4C243.503 61.2907 243.652 60.304 243.951 59.44C244.26 58.576 244.708 57.8933 245.295 57.392C245.892 56.8907 246.634 56.64 247.519 56.64C248.404 56.64 249.14 56.8907 249.727 57.392C250.324 57.8933 250.772 58.576 251.071 59.44C251.37 60.304 251.519 61.2907 251.519 62.4C251.519 63.488 251.37 64.4693 251.071 65.344C250.772 66.2187 250.324 66.9067 249.727 67.408C249.14 67.9093 248.404 68.16 247.519 68.16ZM247.519 66.864C248.084 66.864 248.559 66.6827 248.943 66.32C249.338 65.9573 249.636 65.4453 249.839 64.784C250.042 64.112 250.143 63.3173 250.143 62.4C250.143 61.472 250.042 60.6773 249.839 60.016C249.636 59.344 249.338 58.832 248.943 58.48C248.559 58.1173 248.084 57.936 247.519 57.936C246.954 57.936 246.474 58.1173 246.079 58.48C245.695 58.832 245.396 59.344 245.183 60.016C244.98 60.6773 244.879 61.472 244.879 62.4C244.879 63.3173 244.98 64.112 245.183 64.784C245.396 65.4453 245.695 65.9573 246.079 66.32C246.474 66.6827 246.954 66.864 247.519 66.864ZM264.719 59.648C264.9 59.648 265.049 59.712 265.167 59.84C265.295 59.9573 265.359 60.1067 265.359 60.288V67.344C265.359 67.5253 265.295 67.68 265.167 67.808C265.049 67.936 264.9 68 264.719 68C264.527 68 264.372 67.936 264.255 67.808C264.137 67.68 264.079 67.5253 264.079 67.344V65.824L264.383 65.792C264.383 66.0267 264.303 66.2827 264.143 66.56C263.983 66.8373 263.764 67.0987 263.487 67.344C263.209 67.5787 262.879 67.776 262.495 67.936C262.121 68.0853 261.716 68.16 261.279 68.16C260.553 68.16 259.903 67.9733 259.327 67.6C258.751 67.216 258.292 66.6987 257.951 66.048C257.62 65.3973 257.455 64.656 257.455 63.824C257.455 62.9813 257.62 62.24 257.951 61.6C258.292 60.9493 258.751 60.4427 259.327 60.08C259.903 59.7067 260.543 59.52 261.247 59.52C261.705 59.52 262.132 59.5947 262.527 59.744C262.921 59.8933 263.263 60.096 263.551 60.352C263.849 60.608 264.079 60.8907 264.239 61.2C264.409 61.5093 264.495 61.8187 264.495 62.128L264.079 62.032V60.288C264.079 60.1067 264.137 59.9573 264.255 59.84C264.372 59.712 264.527 59.648 264.719 59.648ZM261.423 66.976C261.956 66.976 262.425 66.8373 262.831 66.56C263.247 66.2827 263.567 65.9093 263.791 65.44C264.025 64.96 264.143 64.4213 264.143 63.824C264.143 63.2373 264.025 62.7093 263.791 62.24C263.567 61.76 263.247 61.3867 262.831 61.12C262.425 60.8427 261.956 60.704 261.423 60.704C260.9 60.704 260.431 60.8373 260.015 61.104C259.609 61.3707 259.289 61.7387 259.055 62.208C258.82 62.6773 258.703 63.216 258.703 63.824C258.703 64.4213 258.815 64.96 259.039 65.44C259.273 65.9093 259.593 66.2827 259.999 66.56C260.415 66.8373 260.889 66.976 261.423 66.976ZM271.843 59.52C272.568 59.52 273.139 59.6693 273.555 59.968C273.971 60.2667 274.264 60.6667 274.435 61.168C274.616 61.6693 274.707 62.2293 274.707 62.848V67.344C274.707 67.5253 274.643 67.68 274.515 67.808C274.398 67.936 274.248 68 274.067 68C273.886 68 273.731 67.936 273.603 67.808C273.486 67.68 273.427 67.5253 273.427 67.344V62.88C273.427 62.4747 273.363 62.112 273.235 61.792C273.118 61.4613 272.915 61.2 272.627 61.008C272.35 60.8053 271.966 60.704 271.475 60.704C271.027 60.704 270.616 60.8053 270.243 61.008C269.87 61.2 269.571 61.4613 269.347 61.792C269.123 62.112 269.011 62.4747 269.011 62.88V67.344C269.011 67.5253 268.947 67.68 268.819 67.808C268.702 67.936 268.552 68 268.371 68C268.19 68 268.035 67.936 267.907 67.808C267.79 67.68 267.731 67.5253 267.731 67.344V60.368C267.731 60.1867 267.79 60.0373 267.907 59.92C268.035 59.792 268.19 59.728 268.371 59.728C268.563 59.728 268.718 59.792 268.835 59.92C268.952 60.0373 269.011 60.1867 269.011 60.368V61.504L268.691 61.856C268.744 61.5787 268.867 61.3013 269.059 61.024C269.251 60.736 269.491 60.48 269.779 60.256C270.067 60.032 270.387 59.856 270.739 59.728C271.091 59.5893 271.459 59.52 271.843 59.52ZM283.891 56.16C284.072 56.16 284.221 56.224 284.339 56.352C284.467 56.4693 284.531 56.6187 284.531 56.8V67.344C284.531 67.5253 284.467 67.68 284.339 67.808C284.221 67.936 284.072 68 283.891 68C283.699 68 283.544 67.936 283.427 67.808C283.309 67.68 283.251 67.5253 283.251 67.344V65.824L283.555 65.712C283.555 65.968 283.475 66.24 283.315 66.528C283.155 66.8053 282.936 67.0667 282.659 67.312C282.381 67.5573 282.051 67.76 281.667 67.92C281.293 68.08 280.888 68.16 280.451 68.16C279.736 68.16 279.085 67.9733 278.499 67.6C277.923 67.2267 277.464 66.7147 277.123 66.064C276.792 65.4133 276.627 64.672 276.627 63.84C276.627 62.9973 276.792 62.2507 277.123 61.6C277.464 60.9493 277.923 60.4427 278.499 60.08C279.075 59.7067 279.715 59.52 280.419 59.52C280.867 59.52 281.288 59.5947 281.683 59.744C282.077 59.8933 282.419 60.096 282.707 60.352C283.005 60.608 283.24 60.8907 283.411 61.2C283.581 61.5093 283.667 61.8187 283.667 62.128L283.251 62.032V56.8C283.251 56.6187 283.309 56.4693 283.427 56.352C283.544 56.224 283.699 56.16 283.891 56.16ZM280.595 66.976C281.128 66.976 281.597 66.8427 282.003 66.576C282.419 66.2987 282.739 65.9253 282.963 65.456C283.197 64.976 283.315 64.4373 283.315 63.84C283.315 63.232 283.197 62.6933 282.963 62.224C282.739 61.7547 282.419 61.3867 282.003 61.12C281.597 60.8427 281.128 60.704 280.595 60.704C280.072 60.704 279.603 60.8427 279.187 61.12C278.781 61.3867 278.461 61.7547 278.227 62.224C277.992 62.6933 277.875 63.232 277.875 63.84C277.875 64.4267 277.992 64.96 278.227 65.44C278.461 65.9093 278.781 66.2827 279.187 66.56C279.603 66.8373 280.072 66.976 280.595 66.976ZM91.656 79.52C92.1147 79.52 92.5413 79.6 92.936 79.76C93.3307 79.9093 93.672 80.1067 93.96 80.352C94.2587 80.5973 94.488 80.8533 94.648 81.12C94.8187 81.3867 94.904 81.6373 94.904 81.872L94.6 81.68V80.288C94.6 80.1067 94.6587 79.9573 94.776 79.84C94.8933 79.712 95.048 79.648 95.24 79.648C95.4213 79.648 95.5707 79.712 95.688 79.84C95.816 79.9573 95.88 80.1067 95.88 80.288V87.296C95.88 88.1707 95.6933 88.896 95.32 89.472C94.9573 90.048 94.4667 90.48 93.848 90.768C93.2293 91.056 92.536 91.2 91.768 91.2C91.448 91.2 91.096 91.1573 90.712 91.072C90.328 90.9867 89.9867 90.88 89.688 90.752C89.3893 90.6347 89.1973 90.512 89.112 90.384C88.952 90.2773 88.8507 90.1547 88.808 90.016C88.776 89.888 88.8027 89.7653 88.888 89.648C88.984 89.4987 89.1067 89.424 89.256 89.424C89.416 89.424 89.6133 89.472 89.848 89.568C89.944 89.6 90.0933 89.6533 90.296 89.728C90.5093 89.8027 90.744 89.8667 91 89.92C91.2667 89.984 91.528 90.016 91.784 90.016C92.6907 90.016 93.384 89.776 93.864 89.296C94.3547 88.8267 94.6 88.2027 94.6 87.424V85.936L94.776 86.016C94.712 86.3147 94.5787 86.592 94.376 86.848C94.184 87.104 93.944 87.3333 93.656 87.536C93.3787 87.728 93.0693 87.8827 92.728 88C92.3867 88.1067 92.04 88.16 91.688 88.16C90.9413 88.16 90.2693 87.9733 89.672 87.6C89.0747 87.2267 88.6 86.7147 88.248 86.064C87.9067 85.4133 87.736 84.672 87.736 83.84C87.736 82.9973 87.9067 82.2507 88.248 81.6C88.6 80.9493 89.0693 80.4427 89.656 80.08C90.2533 79.7067 90.92 79.52 91.656 79.52ZM91.816 80.704C91.272 80.704 90.7813 80.8427 90.344 81.12C89.9173 81.3867 89.5813 81.7547 89.336 82.224C89.1013 82.6933 88.984 83.232 88.984 83.84C88.984 84.4267 89.1013 84.96 89.336 85.44C89.5813 85.9093 89.9173 86.2827 90.344 86.56C90.7813 86.8373 91.272 86.976 91.816 86.976C92.3707 86.976 92.8613 86.8427 93.288 86.576C93.7147 86.2987 94.0507 85.9253 94.296 85.456C94.5413 84.9867 94.664 84.448 94.664 83.84C94.664 83.2213 94.5413 82.6773 94.296 82.208C94.0507 81.7387 93.7147 81.3707 93.288 81.104C92.8613 80.8373 92.3707 80.704 91.816 80.704ZM101.758 88.16C100.905 88.16 100.158 87.9787 99.518 87.616C98.878 87.2533 98.3767 86.7573 98.014 86.128C97.662 85.488 97.486 84.752 97.486 83.92C97.486 82.992 97.6673 82.2027 98.03 81.552C98.4033 80.8907 98.8833 80.3893 99.47 80.048C100.067 79.696 100.697 79.52 101.358 79.52C101.849 79.52 102.323 79.6107 102.782 79.792C103.241 79.9733 103.646 80.24 103.998 80.592C104.35 80.9333 104.633 81.3493 104.846 81.84C105.059 82.32 105.171 82.8587 105.182 83.456C105.182 83.6267 105.118 83.7707 104.99 83.888C104.862 84.0053 104.713 84.064 104.542 84.064H98.222L97.934 82.96H104.094L103.838 83.184V82.832C103.795 82.3947 103.646 82.0213 103.39 81.712C103.145 81.392 102.841 81.1467 102.478 80.976C102.126 80.8053 101.753 80.72 101.358 80.72C101.038 80.72 100.718 80.7787 100.398 80.896C100.089 81.0027 99.806 81.184 99.55 81.44C99.3047 81.6853 99.102 82.0053 98.942 82.4C98.7927 82.7947 98.718 83.2693 98.718 83.824C98.718 84.4427 98.8407 84.9867 99.086 85.456C99.342 85.9253 99.694 86.2987 100.142 86.576C100.59 86.8427 101.113 86.976 101.71 86.976C102.083 86.976 102.409 86.928 102.686 86.832C102.963 86.736 103.203 86.6187 103.406 86.48C103.609 86.3307 103.779 86.1813 103.918 86.032C104.057 85.936 104.19 85.888 104.318 85.888C104.478 85.888 104.606 85.9413 104.702 86.048C104.809 86.1547 104.862 86.2827 104.862 86.432C104.862 86.6133 104.777 86.7733 104.606 86.912C104.307 87.2427 103.902 87.536 103.39 87.792C102.878 88.0373 102.334 88.16 101.758 88.16ZM106.786 79.776H110.546C110.717 79.776 110.855 79.8347 110.962 79.952C111.079 80.0693 111.138 80.208 111.138 80.368C111.138 80.5387 111.079 80.6827 110.962 80.8C110.855 80.9067 110.717 80.96 110.546 80.96H106.786C106.626 80.96 106.487 80.9013 106.37 80.784C106.253 80.6667 106.194 80.5227 106.194 80.352C106.194 80.192 106.253 80.0587 106.37 79.952C106.487 79.8347 106.626 79.776 106.786 79.776ZM108.466 77.6C108.647 77.6 108.797 77.664 108.914 77.792C109.031 77.9093 109.09 78.0587 109.09 78.24V85.968C109.09 86.224 109.127 86.416 109.202 86.544C109.277 86.672 109.373 86.7627 109.49 86.816C109.618 86.8587 109.741 86.88 109.858 86.88C109.965 86.88 110.055 86.864 110.13 86.832C110.215 86.7893 110.311 86.768 110.418 86.768C110.525 86.768 110.621 86.8213 110.706 86.928C110.802 87.024 110.85 87.152 110.85 87.312C110.85 87.504 110.738 87.6693 110.514 87.808C110.29 87.936 110.039 88 109.762 88C109.613 88 109.426 87.9893 109.202 87.968C108.989 87.9467 108.775 87.8773 108.562 87.76C108.349 87.6427 108.167 87.4507 108.018 87.184C107.879 86.9067 107.81 86.5227 107.81 86.032V78.24C107.81 78.0587 107.874 77.9093 108.002 77.792C108.13 77.664 108.285 77.6 108.466 77.6ZM120.781 76.192C120.962 76.192 121.149 76.2133 121.341 76.256C121.543 76.2987 121.714 76.3733 121.853 76.48C122.002 76.5867 122.077 76.7307 122.077 76.912C122.077 77.0827 122.023 77.2267 121.917 77.344C121.81 77.4507 121.682 77.504 121.533 77.504C121.437 77.504 121.303 77.4773 121.133 77.424C120.962 77.36 120.786 77.328 120.605 77.328C120.359 77.328 120.157 77.3813 119.997 77.488C119.847 77.5947 119.735 77.7387 119.661 77.92C119.597 78.0907 119.565 78.2827 119.565 78.496V87.344C119.565 87.5253 119.501 87.68 119.373 87.808C119.255 87.936 119.106 88 118.925 88C118.733 88 118.578 87.936 118.461 87.808C118.343 87.68 118.285 87.5253 118.285 87.344V78.512C118.285 77.7973 118.503 77.232 118.941 76.816C119.389 76.4 120.002 76.192 120.781 76.192ZM121.229 79.856C121.399 79.856 121.543 79.9147 121.661 80.032C121.778 80.1387 121.837 80.2773 121.837 80.448C121.837 80.6187 121.778 80.7627 121.661 80.88C121.543 80.9867 121.399 81.04 121.229 81.04H117.213C117.042 81.04 116.898 80.9813 116.781 80.864C116.663 80.7467 116.605 80.608 116.605 80.448C116.605 80.2667 116.663 80.1227 116.781 80.016C116.898 79.9093 117.042 79.856 117.213 79.856H121.229ZM124.137 88C123.955 88 123.801 87.936 123.673 87.808C123.555 87.68 123.497 87.5253 123.497 87.344V80.368C123.497 80.1867 123.555 80.0373 123.673 79.92C123.801 79.792 123.955 79.728 124.137 79.728C124.329 79.728 124.483 79.792 124.601 79.92C124.718 80.0373 124.777 80.1867 124.777 80.368V82.48L124.585 82.144C124.649 81.8133 124.761 81.4933 124.921 81.184C125.091 80.864 125.305 80.5813 125.561 80.336C125.817 80.08 126.11 79.8827 126.441 79.744C126.771 79.5947 127.134 79.52 127.529 79.52C127.763 79.52 127.977 79.5787 128.169 79.696C128.371 79.8027 128.473 79.9573 128.473 80.16C128.473 80.384 128.414 80.5493 128.297 80.656C128.179 80.7627 128.046 80.816 127.897 80.816C127.758 80.816 127.625 80.7893 127.497 80.736C127.369 80.672 127.209 80.64 127.016 80.64C126.75 80.64 126.483 80.7147 126.217 80.864C125.961 81.0027 125.721 81.2053 125.497 81.472C125.283 81.7387 125.107 82.0427 124.969 82.384C124.841 82.7147 124.777 83.072 124.777 83.456V87.344C124.777 87.5253 124.713 87.68 124.585 87.808C124.467 87.936 124.318 88 124.137 88ZM133.383 88.16C132.53 88.16 131.783 87.9787 131.143 87.616C130.503 87.2533 130.002 86.7573 129.639 86.128C129.287 85.488 129.111 84.752 129.111 83.92C129.111 82.992 129.292 82.2027 129.655 81.552C130.028 80.8907 130.508 80.3893 131.095 80.048C131.692 79.696 132.322 79.52 132.983 79.52C133.474 79.52 133.948 79.6107 134.407 79.792C134.866 79.9733 135.271 80.24 135.623 80.592C135.975 80.9333 136.258 81.3493 136.471 81.84C136.684 82.32 136.796 82.8587 136.807 83.456C136.807 83.6267 136.743 83.7707 136.615 83.888C136.487 84.0053 136.338 84.064 136.167 84.064H129.847L129.559 82.96H135.719L135.463 83.184V82.832C135.42 82.3947 135.271 82.0213 135.015 81.712C134.77 81.392 134.466 81.1467 134.103 80.976C133.751 80.8053 133.378 80.72 132.983 80.72C132.663 80.72 132.343 80.7787 132.023 80.896C131.714 81.0027 131.431 81.184 131.175 81.44C130.93 81.6853 130.727 82.0053 130.567 82.4C130.418 82.7947 130.343 83.2693 130.343 83.824C130.343 84.4427 130.466 84.9867 130.711 85.456C130.967 85.9253 131.319 86.2987 131.767 86.576C132.215 86.8427 132.738 86.976 133.335 86.976C133.708 86.976 134.034 86.928 134.311 86.832C134.588 86.736 134.828 86.6187 135.031 86.48C135.234 86.3307 135.404 86.1813 135.543 86.032C135.682 85.936 135.815 85.888 135.943 85.888C136.103 85.888 136.231 85.9413 136.327 86.048C136.434 86.1547 136.487 86.2827 136.487 86.432C136.487 86.6133 136.402 86.7733 136.231 86.912C135.932 87.2427 135.527 87.536 135.015 87.792C134.503 88.0373 133.959 88.16 133.383 88.16ZM142.555 88.16C141.702 88.16 140.955 87.9787 140.315 87.616C139.675 87.2533 139.174 86.7573 138.811 86.128C138.459 85.488 138.283 84.752 138.283 83.92C138.283 82.992 138.464 82.2027 138.827 81.552C139.2 80.8907 139.68 80.3893 140.267 80.048C140.864 79.696 141.494 79.52 142.155 79.52C142.646 79.52 143.12 79.6107 143.579 79.792C144.038 79.9733 144.443 80.24 144.795 80.592C145.147 80.9333 145.43 81.3493 145.643 81.84C145.856 82.32 145.968 82.8587 145.979 83.456C145.979 83.6267 145.915 83.7707 145.787 83.888C145.659 84.0053 145.51 84.064 145.339 84.064H139.019L138.731 82.96H144.891L144.635 83.184V82.832C144.592 82.3947 144.443 82.0213 144.187 81.712C143.942 81.392 143.638 81.1467 143.275 80.976C142.923 80.8053 142.55 80.72 142.155 80.72C141.835 80.72 141.515 80.7787 141.195 80.896C140.886 81.0027 140.603 81.184 140.347 81.44C140.102 81.6853 139.899 82.0053 139.739 82.4C139.59 82.7947 139.515 83.2693 139.515 83.824C139.515 84.4427 139.638 84.9867 139.883 85.456C140.139 85.9253 140.491 86.2987 140.939 86.576C141.387 86.8427 141.91 86.976 142.507 86.976C142.88 86.976 143.206 86.928 143.483 86.832C143.76 86.736 144 86.6187 144.203 86.48C144.406 86.3307 144.576 86.1813 144.715 86.032C144.854 85.936 144.987 85.888 145.115 85.888C145.275 85.888 145.403 85.9413 145.499 86.048C145.606 86.1547 145.659 86.2827 145.659 86.432C145.659 86.6133 145.574 86.7733 145.403 86.912C145.104 87.2427 144.699 87.536 144.187 87.792C143.675 88.0373 143.131 88.16 142.555 88.16ZM159.125 76.16C159.306 76.16 159.456 76.224 159.573 76.352C159.701 76.4693 159.765 76.6187 159.765 76.8V87.344C159.765 87.5253 159.701 87.68 159.573 87.808C159.456 87.936 159.306 88 159.125 88C158.933 88 158.778 87.936 158.661 87.808C158.544 87.68 158.485 87.5253 158.485 87.344V85.824L158.789 85.712C158.789 85.968 158.709 86.24 158.549 86.528C158.389 86.8053 158.17 87.0667 157.893 87.312C157.616 87.5573 157.285 87.76 156.901 87.92C156.528 88.08 156.122 88.16 155.685 88.16C154.97 88.16 154.32 87.9733 153.733 87.6C153.157 87.2267 152.698 86.7147 152.357 86.064C152.026 85.4133 151.861 84.672 151.861 83.84C151.861 82.9973 152.026 82.2507 152.357 81.6C152.698 80.9493 153.157 80.4427 153.733 80.08C154.309 79.7067 154.949 79.52 155.653 79.52C156.101 79.52 156.522 79.5947 156.917 79.744C157.312 79.8933 157.653 80.096 157.941 80.352C158.24 80.608 158.474 80.8907 158.645 81.2C158.816 81.5093 158.901 81.8187 158.901 82.128L158.485 82.032V76.8C158.485 76.6187 158.544 76.4693 158.661 76.352C158.778 76.224 158.933 76.16 159.125 76.16ZM155.829 86.976C156.362 86.976 156.832 86.8427 157.237 86.576C157.653 86.2987 157.973 85.9253 158.197 85.456C158.432 84.976 158.549 84.4373 158.549 83.84C158.549 83.232 158.432 82.6933 158.197 82.224C157.973 81.7547 157.653 81.3867 157.237 81.12C156.832 80.8427 156.362 80.704 155.829 80.704C155.306 80.704 154.837 80.8427 154.421 81.12C154.016 81.3867 153.696 81.7547 153.461 82.224C153.226 82.6933 153.109 83.232 153.109 83.84C153.109 84.4267 153.226 84.96 153.461 85.44C153.696 85.9093 154.016 86.2827 154.421 86.56C154.837 86.8373 155.306 86.976 155.829 86.976ZM165.961 88.16C165.108 88.16 164.361 87.9787 163.721 87.616C163.081 87.2533 162.58 86.7573 162.217 86.128C161.865 85.488 161.689 84.752 161.689 83.92C161.689 82.992 161.87 82.2027 162.233 81.552C162.606 80.8907 163.086 80.3893 163.673 80.048C164.27 79.696 164.9 79.52 165.561 79.52C166.052 79.52 166.526 79.6107 166.985 79.792C167.444 79.9733 167.849 80.24 168.201 80.592C168.553 80.9333 168.836 81.3493 169.049 81.84C169.262 82.32 169.374 82.8587 169.385 83.456C169.385 83.6267 169.321 83.7707 169.193 83.888C169.065 84.0053 168.916 84.064 168.745 84.064H162.425L162.137 82.96H168.297L168.041 83.184V82.832C167.998 82.3947 167.849 82.0213 167.593 81.712C167.348 81.392 167.044 81.1467 166.681 80.976C166.329 80.8053 165.956 80.72 165.561 80.72C165.241 80.72 164.921 80.7787 164.601 80.896C164.292 81.0027 164.009 81.184 163.753 81.44C163.508 81.6853 163.305 82.0053 163.145 82.4C162.996 82.7947 162.921 83.2693 162.921 83.824C162.921 84.4427 163.044 84.9867 163.289 85.456C163.545 85.9253 163.897 86.2987 164.345 86.576C164.793 86.8427 165.316 86.976 165.913 86.976C166.286 86.976 166.612 86.928 166.889 86.832C167.166 86.736 167.406 86.6187 167.609 86.48C167.812 86.3307 167.982 86.1813 168.121 86.032C168.26 85.936 168.393 85.888 168.521 85.888C168.681 85.888 168.809 85.9413 168.905 86.048C169.012 86.1547 169.065 86.2827 169.065 86.432C169.065 86.6133 168.98 86.7733 168.809 86.912C168.51 87.2427 168.105 87.536 167.593 87.792C167.081 88.0373 166.537 88.16 165.961 88.16ZM172.717 87.344C172.717 87.5253 172.653 87.68 172.525 87.808C172.397 87.936 172.242 88 172.061 88C171.88 88 171.73 87.936 171.613 87.808C171.496 87.68 171.437 87.5253 171.437 87.344V76.8C171.437 76.6187 171.496 76.4693 171.613 76.352C171.741 76.224 171.896 76.16 172.077 76.16C172.269 76.16 172.424 76.224 172.541 76.352C172.658 76.4693 172.717 76.6187 172.717 76.8V87.344ZM176.432 87.344C176.432 87.5253 176.368 87.68 176.24 87.808C176.122 87.936 175.973 88 175.792 88C175.6 88 175.445 87.936 175.328 87.808C175.21 87.68 175.152 87.5253 175.152 87.344V80.24C175.152 80.0587 175.21 79.9093 175.328 79.792C175.456 79.664 175.61 79.6 175.792 79.6C175.973 79.6 176.122 79.664 176.24 79.792C176.368 79.9093 176.432 80.0587 176.432 80.24V87.344ZM175.792 78.528C175.525 78.528 175.328 78.4747 175.2 78.368C175.072 78.2613 175.008 78.096 175.008 77.872V77.648C175.008 77.424 175.077 77.2587 175.216 77.152C175.354 77.0453 175.552 76.992 175.808 76.992C176.064 76.992 176.256 77.0453 176.384 77.152C176.512 77.2587 176.576 77.424 176.576 77.648V77.872C176.576 78.096 176.506 78.2613 176.368 78.368C176.24 78.4747 176.048 78.528 175.792 78.528ZM178.731 79.584C178.859 79.584 178.982 79.6213 179.099 79.696C179.216 79.76 179.302 79.856 179.355 79.984L182.011 86.224L181.755 86.352L184.459 80C184.576 79.712 184.774 79.5733 185.051 79.584C185.211 79.584 185.35 79.6373 185.467 79.744C185.584 79.8507 185.643 79.984 185.643 80.144C185.643 80.208 185.632 80.272 185.611 80.336C185.6 80.3893 185.584 80.4373 185.563 80.48L182.475 87.584C182.358 87.8507 182.171 87.9893 181.915 88C181.776 88.0107 181.643 87.984 181.515 87.92C181.398 87.8453 181.312 87.7333 181.259 87.584L178.171 80.496C178.15 80.4533 178.128 80.4053 178.107 80.352C178.096 80.2987 178.091 80.2347 178.091 80.16C178.091 80.0213 178.144 79.8933 178.251 79.776C178.368 79.648 178.528 79.584 178.731 79.584ZM191.117 88.16C190.264 88.16 189.517 87.9787 188.877 87.616C188.237 87.2533 187.736 86.7573 187.373 86.128C187.021 85.488 186.845 84.752 186.845 83.92C186.845 82.992 187.027 82.2027 187.389 81.552C187.763 80.8907 188.243 80.3893 188.829 80.048C189.427 79.696 190.056 79.52 190.717 79.52C191.208 79.52 191.683 79.6107 192.141 79.792C192.6 79.9733 193.005 80.24 193.357 80.592C193.709 80.9333 193.992 81.3493 194.205 81.84C194.419 82.32 194.531 82.8587 194.541 83.456C194.541 83.6267 194.477 83.7707 194.349 83.888C194.221 84.0053 194.072 84.064 193.901 84.064H187.581L187.293 82.96H193.453L193.197 83.184V82.832C193.155 82.3947 193.005 82.0213 192.749 81.712C192.504 81.392 192.2 81.1467 191.837 80.976C191.485 80.8053 191.112 80.72 190.717 80.72C190.397 80.72 190.077 80.7787 189.757 80.896C189.448 81.0027 189.165 81.184 188.909 81.44C188.664 81.6853 188.461 82.0053 188.301 82.4C188.152 82.7947 188.077 83.2693 188.077 83.824C188.077 84.4427 188.2 84.9867 188.445 85.456C188.701 85.9253 189.053 86.2987 189.501 86.576C189.949 86.8427 190.472 86.976 191.069 86.976C191.443 86.976 191.768 86.928 192.045 86.832C192.323 86.736 192.563 86.6187 192.765 86.48C192.968 86.3307 193.139 86.1813 193.277 86.032C193.416 85.936 193.549 85.888 193.677 85.888C193.837 85.888 193.965 85.9413 194.061 86.048C194.168 86.1547 194.221 86.2827 194.221 86.432C194.221 86.6133 194.136 86.7733 193.965 86.912C193.667 87.2427 193.261 87.536 192.749 87.792C192.237 88.0373 191.693 88.16 191.117 88.16ZM197.105 88C196.924 88 196.769 87.936 196.641 87.808C196.524 87.68 196.465 87.5253 196.465 87.344V80.368C196.465 80.1867 196.524 80.0373 196.641 79.92C196.769 79.792 196.924 79.728 197.105 79.728C197.297 79.728 197.452 79.792 197.569 79.92C197.687 80.0373 197.745 80.1867 197.745 80.368V82.48L197.553 82.144C197.617 81.8133 197.729 81.4933 197.889 81.184C198.06 80.864 198.273 80.5813 198.529 80.336C198.785 80.08 199.079 79.8827 199.409 79.744C199.74 79.5947 200.103 79.52 200.497 79.52C200.732 79.52 200.945 79.5787 201.137 79.696C201.34 79.8027 201.441 79.9573 201.441 80.16C201.441 80.384 201.383 80.5493 201.265 80.656C201.148 80.7627 201.015 80.816 200.865 80.816C200.727 80.816 200.593 80.7893 200.465 80.736C200.337 80.672 200.177 80.64 199.985 80.64C199.719 80.64 199.452 80.7147 199.185 80.864C198.929 81.0027 198.689 81.2053 198.465 81.472C198.252 81.7387 198.076 82.0427 197.937 82.384C197.809 82.7147 197.745 83.072 197.745 83.456V87.344C197.745 87.5253 197.681 87.68 197.553 87.808C197.436 87.936 197.287 88 197.105 88ZM209.079 79.6C209.26 79.6 209.41 79.664 209.527 79.792C209.655 79.9093 209.719 80.0587 209.719 80.24V87.216C209.719 88.112 209.543 88.8533 209.191 89.44C208.839 90.0373 208.364 90.48 207.767 90.768C207.18 91.056 206.514 91.2 205.767 91.2C205.351 91.2 204.951 91.1573 204.567 91.072C204.183 90.9867 203.868 90.8747 203.623 90.736C203.42 90.64 203.276 90.5173 203.191 90.368C203.116 90.2293 203.106 90.08 203.159 89.92C203.234 89.728 203.34 89.5947 203.479 89.52C203.628 89.4453 203.783 89.4453 203.943 89.52C204.114 89.5947 204.359 89.696 204.679 89.824C205.01 89.9627 205.378 90.032 205.783 90.032C206.338 90.032 206.812 89.9253 207.207 89.712C207.602 89.4987 207.906 89.184 208.119 88.768C208.332 88.3627 208.439 87.856 208.439 87.248V86.112L208.631 86.512C208.46 86.8427 208.231 87.1307 207.943 87.376C207.655 87.6213 207.324 87.8133 206.951 87.952C206.578 88.0907 206.167 88.16 205.719 88.16C205.111 88.16 204.594 88.032 204.167 87.776C203.751 87.5093 203.431 87.1467 203.207 86.688C202.994 86.2187 202.887 85.68 202.887 85.072V80.24C202.887 80.0587 202.946 79.9093 203.063 79.792C203.191 79.664 203.346 79.6 203.527 79.6C203.719 79.6 203.874 79.664 203.991 79.792C204.108 79.9093 204.167 80.0587 204.167 80.24V84.784C204.167 85.5093 204.327 86.0587 204.647 86.432C204.967 86.7947 205.463 86.976 206.135 86.976C206.562 86.976 206.946 86.88 207.287 86.688C207.639 86.496 207.916 86.2347 208.119 85.904C208.332 85.5627 208.439 85.1893 208.439 84.784V80.24C208.439 80.0587 208.498 79.9093 208.615 79.792C208.732 79.664 208.887 79.6 209.079 79.6ZM223.312 79.648C223.494 79.648 223.643 79.712 223.76 79.84C223.889 79.9573 223.953 80.1067 223.953 80.288V87.344C223.953 87.5253 223.889 87.68 223.76 87.808C223.643 87.936 223.494 88 223.312 88C223.121 88 222.966 87.936 222.849 87.808C222.731 87.68 222.673 87.5253 222.673 87.344V85.824L222.977 85.792C222.977 86.0267 222.897 86.2827 222.737 86.56C222.577 86.8373 222.358 87.0987 222.081 87.344C221.803 87.5787 221.473 87.776 221.089 87.936C220.715 88.0853 220.31 88.16 219.873 88.16C219.147 88.16 218.497 87.9733 217.921 87.6C217.345 87.216 216.886 86.6987 216.545 86.048C216.214 85.3973 216.049 84.656 216.049 83.824C216.049 82.9813 216.214 82.24 216.545 81.6C216.886 80.9493 217.345 80.4427 217.921 80.08C218.497 79.7067 219.137 79.52 219.841 79.52C220.299 79.52 220.726 79.5947 221.121 79.744C221.515 79.8933 221.857 80.096 222.145 80.352C222.443 80.608 222.673 80.8907 222.833 81.2C223.003 81.5093 223.089 81.8187 223.089 82.128L222.673 82.032V80.288C222.673 80.1067 222.731 79.9573 222.849 79.84C222.966 79.712 223.121 79.648 223.312 79.648ZM220.016 86.976C220.55 86.976 221.019 86.8373 221.425 86.56C221.841 86.2827 222.161 85.9093 222.385 85.44C222.619 84.96 222.737 84.4213 222.737 83.824C222.737 83.2373 222.619 82.7093 222.385 82.24C222.161 81.76 221.841 81.3867 221.425 81.12C221.019 80.8427 220.55 80.704 220.016 80.704C219.494 80.704 219.025 80.8373 218.609 81.104C218.203 81.3707 217.883 81.7387 217.649 82.208C217.414 82.6773 217.297 83.216 217.297 83.824C217.297 84.4213 217.409 84.96 217.633 85.44C217.867 85.9093 218.187 86.2827 218.593 86.56C219.009 86.8373 219.483 86.976 220.016 86.976ZM230.437 79.52C231.162 79.52 231.733 79.6693 232.149 79.968C232.565 80.2667 232.858 80.6667 233.029 81.168C233.21 81.6693 233.301 82.2293 233.301 82.848V87.344C233.301 87.5253 233.237 87.68 233.109 87.808C232.991 87.936 232.842 88 232.661 88C232.479 88 232.325 87.936 232.197 87.808C232.079 87.68 232.021 87.5253 232.021 87.344V82.88C232.021 82.4747 231.957 82.112 231.829 81.792C231.711 81.4613 231.509 81.2 231.221 81.008C230.943 80.8053 230.559 80.704 230.069 80.704C229.621 80.704 229.21 80.8053 228.837 81.008C228.463 81.2 228.165 81.4613 227.941 81.792C227.717 82.112 227.605 82.4747 227.605 82.88V87.344C227.605 87.5253 227.541 87.68 227.413 87.808C227.295 87.936 227.146 88 226.965 88C226.783 88 226.629 87.936 226.501 87.808C226.383 87.68 226.325 87.5253 226.325 87.344V80.368C226.325 80.1867 226.383 80.0373 226.501 79.92C226.629 79.792 226.783 79.728 226.965 79.728C227.157 79.728 227.311 79.792 227.429 79.92C227.546 80.0373 227.605 80.1867 227.605 80.368V81.504L227.285 81.856C227.338 81.5787 227.461 81.3013 227.653 81.024C227.845 80.736 228.085 80.48 228.373 80.256C228.661 80.032 228.981 79.856 229.333 79.728C229.685 79.5893 230.053 79.52 230.437 79.52ZM241.782 79.6C241.964 79.6 242.113 79.664 242.23 79.792C242.358 79.9093 242.422 80.0587 242.422 80.24V87.216C242.422 88.112 242.246 88.8533 241.894 89.44C241.542 90.0373 241.068 90.48 240.47 90.768C239.884 91.056 239.217 91.2 238.47 91.2C238.054 91.2 237.654 91.1573 237.27 91.072C236.886 90.9867 236.572 90.8747 236.326 90.736C236.124 90.64 235.98 90.5173 235.894 90.368C235.82 90.2293 235.809 90.08 235.862 89.92C235.937 89.728 236.044 89.5947 236.182 89.52C236.332 89.4453 236.486 89.4453 236.646 89.52C236.817 89.5947 237.062 89.696 237.382 89.824C237.713 89.9627 238.081 90.032 238.486 90.032C239.041 90.032 239.516 89.9253 239.91 89.712C240.305 89.4987 240.609 89.184 240.822 88.768C241.036 88.3627 241.142 87.856 241.142 87.248V86.112L241.334 86.512C241.164 86.8427 240.934 87.1307 240.646 87.376C240.358 87.6213 240.028 87.8133 239.654 87.952C239.281 88.0907 238.87 88.16 238.422 88.16C237.814 88.16 237.297 88.032 236.87 87.776C236.454 87.5093 236.134 87.1467 235.91 86.688C235.697 86.2187 235.59 85.68 235.59 85.072V80.24C235.59 80.0587 235.649 79.9093 235.766 79.792C235.894 79.664 236.049 79.6 236.23 79.6C236.422 79.6 236.577 79.664 236.694 79.792C236.812 79.9093 236.87 80.0587 236.87 80.24V84.784C236.87 85.5093 237.03 86.0587 237.35 86.432C237.67 86.7947 238.166 86.976 238.838 86.976C239.265 86.976 239.649 86.88 239.99 86.688C240.342 86.496 240.62 86.2347 240.822 85.904C241.036 85.5627 241.142 85.1893 241.142 84.784V80.24C241.142 80.0587 241.201 79.9093 241.318 79.792C241.436 79.664 241.59 79.6 241.782 79.6ZM254.553 79.584C254.724 79.584 254.868 79.6427 254.985 79.76C255.113 79.8773 255.177 80.032 255.177 80.224C255.177 80.2667 255.172 80.3147 255.161 80.368C255.161 80.4107 255.151 80.4533 255.129 80.496L252.665 87.584C252.612 87.7227 252.521 87.8293 252.393 87.904C252.276 87.9787 252.148 88.0107 252.009 88C251.764 87.9893 251.577 87.8507 251.449 87.584L249.433 82.528L249.753 82.576L247.929 87.584C247.812 87.8507 247.625 87.9893 247.369 88C247.231 88.0107 247.097 87.9787 246.969 87.904C246.841 87.8293 246.756 87.7227 246.713 87.584L244.201 80.496C244.169 80.4 244.153 80.3093 244.153 80.224C244.153 80.0533 244.212 79.904 244.329 79.776C244.447 79.648 244.607 79.584 244.809 79.584C244.937 79.584 245.055 79.616 245.161 79.68C245.268 79.744 245.343 79.8453 245.385 79.984L247.545 86.288L247.209 86.272L249.081 81.472C249.188 81.2053 249.385 81.072 249.673 81.072C249.823 81.072 249.94 81.1093 250.025 81.184C250.121 81.248 250.191 81.344 250.233 81.472L252.185 86.272L251.785 86.304L253.945 79.984C254.041 79.7173 254.244 79.584 254.553 79.584ZM260.903 79.6C261.607 79.6 262.161 79.7547 262.567 80.064C262.983 80.3627 263.276 80.768 263.447 81.28C263.628 81.7813 263.719 82.3413 263.719 82.96V87.344C263.719 87.5253 263.655 87.68 263.527 87.808C263.409 87.936 263.26 88 263.079 88C262.897 88 262.743 87.936 262.615 87.808C262.497 87.68 262.439 87.5253 262.439 87.344V82.96C262.439 82.5547 262.38 82.192 262.263 81.872C262.145 81.5413 261.948 81.28 261.671 81.088C261.404 80.8853 261.036 80.784 260.567 80.784C260.129 80.784 259.729 80.8853 259.367 81.088C259.004 81.28 258.716 81.5413 258.503 81.872C258.289 82.192 258.183 82.5547 258.183 82.96V87.344C258.183 87.5253 258.119 87.68 257.991 87.808C257.873 87.936 257.724 88 257.543 88C257.361 88 257.207 87.936 257.079 87.808C256.961 87.68 256.903 87.5253 256.903 87.344V76.8C256.903 76.6187 256.961 76.4693 257.079 76.352C257.207 76.224 257.361 76.16 257.543 76.16C257.735 76.16 257.889 76.224 258.007 76.352C258.124 76.4693 258.183 76.6187 258.183 76.8V81.584L257.863 81.936C257.916 81.6587 258.033 81.3813 258.215 81.104C258.396 80.816 258.625 80.56 258.903 80.336C259.18 80.112 259.489 79.936 259.831 79.808C260.172 79.6693 260.529 79.6 260.903 79.6ZM269.914 88.16C269.061 88.16 268.314 87.9787 267.674 87.616C267.034 87.2533 266.533 86.7573 266.17 86.128C265.818 85.488 265.642 84.752 265.642 83.92C265.642 82.992 265.824 82.2027 266.186 81.552C266.56 80.8907 267.04 80.3893 267.626 80.048C268.224 79.696 268.853 79.52 269.514 79.52C270.005 79.52 270.48 79.6107 270.938 79.792C271.397 79.9733 271.802 80.24 272.154 80.592C272.506 80.9333 272.789 81.3493 273.002 81.84C273.216 82.32 273.328 82.8587 273.338 83.456C273.338 83.6267 273.274 83.7707 273.146 83.888C273.018 84.0053 272.869 84.064 272.698 84.064H266.378L266.09 82.96H272.25L271.994 83.184V82.832C271.952 82.3947 271.802 82.0213 271.546 81.712C271.301 81.392 270.997 81.1467 270.634 80.976C270.282 80.8053 269.909 80.72 269.514 80.72C269.194 80.72 268.874 80.7787 268.554 80.896C268.245 81.0027 267.962 81.184 267.706 81.44C267.461 81.6853 267.258 82.0053 267.098 82.4C266.949 82.7947 266.874 83.2693 266.874 83.824C266.874 84.4427 266.997 84.9867 267.242 85.456C267.498 85.9253 267.85 86.2987 268.298 86.576C268.746 86.8427 269.269 86.976 269.866 86.976C270.24 86.976 270.565 86.928 270.842 86.832C271.12 86.736 271.36 86.6187 271.562 86.48C271.765 86.3307 271.936 86.1813 272.074 86.032C272.213 85.936 272.346 85.888 272.474 85.888C272.634 85.888 272.762 85.9413 272.858 86.048C272.965 86.1547 273.018 86.2827 273.018 86.432C273.018 86.6133 272.933 86.7733 272.762 86.912C272.464 87.2427 272.058 87.536 271.546 87.792C271.034 88.0373 270.49 88.16 269.914 88.16ZM275.902 88C275.721 88 275.566 87.936 275.438 87.808C275.321 87.68 275.262 87.5253 275.262 87.344V80.368C275.262 80.1867 275.321 80.0373 275.438 79.92C275.566 79.792 275.721 79.728 275.902 79.728C276.094 79.728 276.249 79.792 276.366 79.92C276.483 80.0373 276.542 80.1867 276.542 80.368V82.48L276.35 82.144C276.414 81.8133 276.526 81.4933 276.686 81.184C276.857 80.864 277.07 80.5813 277.326 80.336C277.582 80.08 277.875 79.8827 278.206 79.744C278.537 79.5947 278.899 79.52 279.294 79.52C279.529 79.52 279.742 79.5787 279.934 79.696C280.137 79.8027 280.238 79.9573 280.238 80.16C280.238 80.384 280.179 80.5493 280.062 80.656C279.945 80.7627 279.811 80.816 279.662 80.816C279.523 80.816 279.39 80.7893 279.262 80.736C279.134 80.672 278.974 80.64 278.782 80.64C278.515 80.64 278.249 80.7147 277.982 80.864C277.726 81.0027 277.486 81.2053 277.262 81.472C277.049 81.7387 276.873 82.0427 276.734 82.384C276.606 82.7147 276.542 83.072 276.542 83.456V87.344C276.542 87.5253 276.478 87.68 276.35 87.808C276.233 87.936 276.083 88 275.902 88ZM285.149 88.16C284.295 88.16 283.549 87.9787 282.909 87.616C282.269 87.2533 281.767 86.7573 281.405 86.128C281.053 85.488 280.877 84.752 280.877 83.92C280.877 82.992 281.058 82.2027 281.421 81.552C281.794 80.8907 282.274 80.3893 282.861 80.048C283.458 79.696 284.087 79.52 284.749 79.52C285.239 79.52 285.714 79.6107 286.173 79.792C286.631 79.9733 287.037 80.24 287.389 80.592C287.741 80.9333 288.023 81.3493 288.237 81.84C288.45 82.32 288.562 82.8587 288.573 83.456C288.573 83.6267 288.509 83.7707 288.381 83.888C288.253 84.0053 288.103 84.064 287.933 84.064H281.613L281.325 82.96H287.485L287.229 83.184V82.832C287.186 82.3947 287.037 82.0213 286.781 81.712C286.535 81.392 286.231 81.1467 285.869 80.976C285.517 80.8053 285.143 80.72 284.749 80.72C284.429 80.72 284.109 80.7787 283.789 80.896C283.479 81.0027 283.197 81.184 282.941 81.44C282.695 81.6853 282.493 82.0053 282.333 82.4C282.183 82.7947 282.109 83.2693 282.109 83.824C282.109 84.4427 282.231 84.9867 282.477 85.456C282.733 85.9253 283.085 86.2987 283.533 86.576C283.981 86.8427 284.503 86.976 285.101 86.976C285.474 86.976 285.799 86.928 286.077 86.832C286.354 86.736 286.594 86.6187 286.797 86.48C286.999 86.3307 287.17 86.1813 287.309 86.032C287.447 85.936 287.581 85.888 287.709 85.888C287.869 85.888 287.997 85.9413 288.093 86.048C288.199 86.1547 288.253 86.2827 288.253 86.432C288.253 86.6133 288.167 86.7733 287.997 86.912C287.698 87.2427 287.293 87.536 286.781 87.792C286.269 88.0373 285.725 88.16 285.149 88.16Z" fill="#ADADAD"/>
<defs>
<linearGradient id="paint0_linear_92_1180" x1="36.5636" y1="64.0029" x2="41.4321" y2="69.2255" gradientUnits="userSpaceOnUse">
<stop stop-color="#00B59C"/>
<stop offset="1" stop-color="#9CFFAC"/>
</linearGradient>
<linearGradient id="paint1_linear_92_1180" x1="58.5236" y1="64.0045" x2="63.392" y2="69.2271" gradientUnits="userSpaceOnUse">
<stop stop-color="#00B59C"/>
<stop offset="1" stop-color="#9CFFAC"/>
</linearGradient>
<linearGradient id="paint2_linear_92_1180" x1="22.2835" y1="48.5564" x2="22.2835" y2="52.0248" gradientUnits="userSpaceOnUse">
<stop stop-color="#00B59C"/>
<stop offset="1" stop-color="#9CFFAC"/>
</linearGradient>
<linearGradient id="paint3_linear_92_1180" x1="46.0008" y1="41.5537" x2="46.0008" y2="66.2547" gradientUnits="userSpaceOnUse">
<stop stop-color="#00B59C"/>
<stop offset="1" stop-color="#9CFFAC"/>
</linearGradient>
<linearGradient id="paint4_linear_92_1180" x1="41.9369" y1="49.243" x2="41.9369" y2="51.4419" gradientUnits="userSpaceOnUse">
<stop stop-color="#00B59C"/>
<stop offset="1" stop-color="#9CFFAC"/>
</linearGradient>
<clipPath id="clip0_92_1180">
<rect width="52" height="52" fill="white" transform="translate(20 30)"/>
</clipPath>
</defs>
</svg>
