<svg width="332" height="112" viewBox="0 0 332 112" fill="none" xmlns="http://www.w3.org/2000/svg">
<path d="M46.3556 54.5182C44.6699 54.1136 44.4766 53.9529 44.4766 52.9531C44.4766 51.6275 46.424 50.973 47.2184 52.0397C47.7228 52.7121 48.6794 52.849 49.3519 52.3431C50.0243 51.8388 50.1597 50.8837 49.6553 50.2097C49.1136 49.4876 48.3584 48.9775 47.5234 48.6785V46.8594C47.5234 46.0173 46.8421 45.3359 46 45.3359C45.1579 45.3359 44.4766 46.0173 44.4766 46.8594V48.6634C42.7071 49.2943 41.4297 50.9696 41.4297 52.9531C41.4297 56.4686 44.0675 57.1024 45.6444 57.4818C47.3301 57.8864 47.5234 58.0471 47.5234 59.0469C47.5234 59.8874 46.8405 60.5703 46 60.5703C45.5165 60.5703 45.0716 60.3486 44.7816 59.9603C44.2772 59.2879 43.325 59.1554 42.6481 59.6569C41.9757 60.1612 41.8403 61.1163 42.3447 61.7903C42.8864 62.5124 43.6416 63.0225 44.4766 63.3215V65.1406C44.4766 65.9827 45.1579 66.6641 46 66.6641C46.8421 66.6641 47.5234 65.9827 47.5234 65.1406V63.3366C49.2929 62.7057 50.5703 61.0304 50.5703 59.0469C50.5703 55.5314 47.9325 54.8976 46.3556 54.5182Z" fill="url(#paint0_linear_92_1165)"/>
<path d="M72 56.1016C72 43.1241 62.3194 32.0821 49.4817 30.4173C48.6962 30.3072 47.9954 30.8071 47.808 31.5584L46.3099 37.5525C46.0835 38.4519 46.7122 39.3538 47.6518 39.4389C56.3223 40.2096 62.8594 47.3731 62.8594 56.1016C62.8594 61.7207 60.0356 66.9442 55.4073 70.0327L53.4138 67.3756C52.6526 66.3564 51.0273 66.6699 50.718 67.9201L47.6711 80.1076C47.43 81.0657 48.1567 82 49.1484 82H61.3359C62.5927 82 63.3049 80.5617 62.5544 79.5631L60.9074 77.3657C67.8849 72.5187 72 64.6873 72 56.1016ZM44.3482 72.5611C35.6777 71.7904 29.1406 64.6269 29.1406 55.8984C29.1406 50.2793 31.9644 45.0558 36.5927 41.9673L38.5862 44.6244C39.3407 45.6316 40.9703 45.34 41.282 44.0799L44.3289 31.8924C44.57 30.9343 43.8433 30 42.8516 30H30.6641C29.4073 30 28.6951 31.4383 29.4456 32.4369L31.0926 34.6343C24.1151 39.4813 20 47.3127 20 55.8984C20 68.8759 29.6806 79.9179 42.5183 81.5827C43.2766 81.6838 44.0031 81.1992 44.192 80.4416L45.6901 74.4475C45.9165 73.5481 45.2878 72.6462 44.3482 72.5611Z" fill="url(#paint1_linear_92_1165)"/>
<path d="M89.538 38C89.25 38 88.998 37.916 88.782 37.748C88.566 37.568 88.458 37.346 88.458 37.082V26.318C88.458 26.054 88.548 25.838 88.728 25.67C88.908 25.49 89.124 25.4 89.376 25.4H94.452C95.1 25.4 95.694 25.562 96.234 25.886C96.774 26.198 97.206 26.636 97.53 27.2C97.866 27.752 98.034 28.388 98.034 29.108C98.034 29.588 97.938 30.05 97.746 30.494C97.554 30.926 97.296 31.31 96.972 31.646C96.648 31.982 96.282 32.234 95.874 32.402L95.676 32.06C96.048 32.192 96.372 32.384 96.648 32.636C96.924 32.876 97.14 33.164 97.296 33.5C97.464 33.824 97.554 34.196 97.566 34.616C97.602 34.988 97.632 35.3 97.656 35.552C97.692 35.792 97.74 35.99 97.8 36.146C97.86 36.302 97.968 36.422 98.124 36.506C98.34 36.626 98.472 36.806 98.52 37.046C98.58 37.286 98.532 37.502 98.376 37.694C98.268 37.838 98.13 37.934 97.962 37.982C97.806 38.018 97.644 38.024 97.476 38C97.308 37.964 97.164 37.916 97.044 37.856C96.852 37.736 96.654 37.568 96.45 37.352C96.258 37.124 96.102 36.812 95.982 36.416C95.862 36.02 95.802 35.498 95.802 34.85C95.802 34.55 95.754 34.292 95.658 34.076C95.562 33.86 95.43 33.686 95.262 33.554C95.094 33.41 94.896 33.308 94.668 33.248C94.44 33.176 94.188 33.14 93.912 33.14H90.096L90.348 32.78V37.082C90.348 37.346 90.276 37.568 90.132 37.748C89.988 37.916 89.79 38 89.538 38ZM90.114 31.574H94.416C94.692 31.562 94.956 31.454 95.208 31.25C95.472 31.034 95.682 30.746 95.838 30.386C96.006 30.026 96.09 29.618 96.09 29.162C96.09 28.586 95.916 28.106 95.568 27.722C95.232 27.326 94.83 27.128 94.362 27.128H90.15L90.348 26.66V31.952L90.114 31.574ZM104.834 38.18C103.838 38.18 102.974 37.976 102.242 37.568C101.51 37.148 100.94 36.578 100.532 35.858C100.136 35.126 99.9381 34.292 99.9381 33.356C99.9381 32.3 100.148 31.4 100.568 30.656C101 29.9 101.558 29.324 102.242 28.928C102.926 28.52 103.652 28.316 104.42 28.316C105.008 28.316 105.566 28.436 106.094 28.676C106.622 28.904 107.09 29.228 107.498 29.648C107.918 30.056 108.248 30.542 108.488 31.106C108.728 31.658 108.854 32.264 108.866 32.924C108.854 33.164 108.758 33.362 108.578 33.518C108.398 33.674 108.188 33.752 107.948 33.752H100.946L100.514 32.222H107.282L106.94 32.546V32.096C106.916 31.676 106.778 31.31 106.526 30.998C106.274 30.674 105.962 30.428 105.59 30.26C105.218 30.08 104.828 29.99 104.42 29.99C104.06 29.99 103.712 30.05 103.376 30.17C103.052 30.278 102.758 30.458 102.494 30.71C102.242 30.962 102.038 31.298 101.882 31.718C101.738 32.126 101.666 32.636 101.666 33.248C101.666 33.908 101.804 34.484 102.08 34.976C102.356 35.468 102.728 35.852 103.196 36.128C103.664 36.392 104.18 36.524 104.744 36.524C105.188 36.524 105.554 36.482 105.842 36.398C106.13 36.302 106.37 36.188 106.562 36.056C106.754 35.924 106.922 35.798 107.066 35.678C107.246 35.57 107.426 35.516 107.606 35.516C107.822 35.516 108.002 35.594 108.146 35.75C108.29 35.894 108.362 36.068 108.362 36.272C108.362 36.536 108.23 36.776 107.966 36.992C107.642 37.304 107.192 37.58 106.616 37.82C106.052 38.06 105.458 38.18 104.834 38.18ZM115.311 24.698C115.539 24.698 115.773 24.728 116.013 24.788C116.253 24.848 116.451 24.95 116.607 25.094C116.775 25.226 116.859 25.412 116.859 25.652C116.859 25.892 116.787 26.09 116.643 26.246C116.499 26.39 116.331 26.462 116.139 26.462C116.019 26.462 115.857 26.438 115.653 26.39C115.449 26.33 115.245 26.3 115.041 26.3C114.765 26.3 114.543 26.366 114.375 26.498C114.207 26.618 114.087 26.774 114.015 26.966C113.943 27.146 113.907 27.326 113.907 27.506V37.082C113.907 37.346 113.817 37.568 113.637 37.748C113.469 37.916 113.259 38 113.007 38C112.743 38 112.527 37.916 112.359 37.748C112.191 37.568 112.107 37.346 112.107 37.082V27.524C112.107 26.696 112.377 26.018 112.917 25.49C113.469 24.962 114.267 24.698 115.311 24.698ZM115.671 28.694C115.911 28.694 116.109 28.772 116.265 28.928C116.421 29.084 116.499 29.282 116.499 29.522C116.499 29.762 116.421 29.96 116.265 30.116C116.109 30.272 115.911 30.35 115.671 30.35H111.009C110.781 30.35 110.583 30.272 110.415 30.116C110.259 29.96 110.181 29.762 110.181 29.522C110.181 29.282 110.259 29.084 110.415 28.928C110.583 28.772 110.781 28.694 111.009 28.694H115.671ZM125.357 28.532C125.609 28.532 125.819 28.622 125.987 28.802C126.167 28.97 126.257 29.186 126.257 29.45V34.184C126.257 35.432 125.909 36.41 125.213 37.118C124.517 37.814 123.533 38.162 122.261 38.162C121.001 38.162 120.023 37.814 119.327 37.118C118.643 36.41 118.301 35.432 118.301 34.184V29.45C118.301 29.186 118.385 28.97 118.553 28.802C118.721 28.622 118.937 28.532 119.201 28.532C119.453 28.532 119.663 28.622 119.831 28.802C120.011 28.97 120.101 29.186 120.101 29.45V34.184C120.101 34.964 120.281 35.546 120.641 35.93C121.013 36.314 121.553 36.506 122.261 36.506C122.981 36.506 123.527 36.314 123.899 35.93C124.271 35.546 124.457 34.964 124.457 34.184V29.45C124.457 29.186 124.541 28.97 124.709 28.802C124.877 28.622 125.093 28.532 125.357 28.532ZM133.638 28.316C134.49 28.316 135.15 28.496 135.618 28.856C136.086 29.204 136.41 29.678 136.59 30.278C136.782 30.866 136.878 31.526 136.878 32.258V37.082C136.878 37.346 136.788 37.568 136.608 37.748C136.44 37.916 136.23 38 135.978 38C135.714 38 135.498 37.916 135.33 37.748C135.162 37.568 135.078 37.346 135.078 37.082V32.276C135.078 31.844 135.018 31.46 134.898 31.124C134.778 30.776 134.568 30.5 134.268 30.296C133.98 30.08 133.572 29.972 133.044 29.972C132.552 29.972 132.12 30.08 131.748 30.296C131.376 30.5 131.082 30.776 130.866 31.124C130.662 31.46 130.56 31.844 130.56 32.276V37.082C130.56 37.346 130.47 37.568 130.29 37.748C130.122 37.916 129.912 38 129.66 38C129.396 38 129.18 37.916 129.012 37.748C128.844 37.568 128.76 37.346 128.76 37.082V29.45C128.76 29.186 128.844 28.97 129.012 28.802C129.18 28.622 129.396 28.532 129.66 28.532C129.912 28.532 130.122 28.622 130.29 28.802C130.47 28.97 130.56 29.186 130.56 29.45V30.458L130.236 30.638C130.32 30.374 130.464 30.11 130.668 29.846C130.884 29.57 131.142 29.318 131.442 29.09C131.742 28.85 132.078 28.664 132.45 28.532C132.822 28.388 133.218 28.316 133.638 28.316ZM147.135 24.68C147.399 24.68 147.615 24.764 147.783 24.932C147.951 25.1 148.035 25.322 148.035 25.598V37.082C148.035 37.346 147.951 37.568 147.783 37.748C147.615 37.916 147.399 38 147.135 38C146.883 38 146.667 37.916 146.487 37.748C146.319 37.568 146.235 37.346 146.235 37.082V35.786L146.613 35.804C146.613 36.02 146.523 36.266 146.343 36.542C146.175 36.806 145.941 37.064 145.641 37.316C145.341 37.568 144.987 37.778 144.579 37.946C144.171 38.102 143.733 38.18 143.265 38.18C142.437 38.18 141.693 37.97 141.033 37.55C140.373 37.118 139.851 36.536 139.467 35.804C139.083 35.06 138.891 34.208 138.891 33.248C138.891 32.288 139.083 31.442 139.467 30.71C139.851 29.966 140.367 29.384 141.015 28.964C141.675 28.532 142.407 28.316 143.211 28.316C143.715 28.316 144.183 28.4 144.615 28.568C145.059 28.736 145.443 28.952 145.767 29.216C146.091 29.48 146.343 29.762 146.523 30.062C146.703 30.35 146.793 30.626 146.793 30.89L146.235 30.944V25.598C146.235 25.334 146.319 25.118 146.487 24.95C146.667 24.77 146.883 24.68 147.135 24.68ZM143.463 36.524C144.039 36.524 144.537 36.38 144.957 36.092C145.389 35.804 145.725 35.414 145.965 34.922C146.205 34.43 146.325 33.872 146.325 33.248C146.325 32.624 146.205 32.066 145.965 31.574C145.725 31.082 145.389 30.692 144.957 30.404C144.525 30.116 144.027 29.972 143.463 29.972C142.911 29.972 142.419 30.116 141.987 30.404C141.567 30.692 141.231 31.082 140.979 31.574C140.739 32.066 140.619 32.624 140.619 33.248C140.619 33.872 140.739 34.43 140.979 34.922C141.231 35.414 141.567 35.804 141.987 36.092C142.419 36.38 142.911 36.524 143.463 36.524ZM158.315 28.388C158.579 28.388 158.795 28.478 158.963 28.658C159.131 28.826 159.215 29.042 159.215 29.306V37.082C159.215 37.346 159.131 37.568 158.963 37.748C158.795 37.916 158.579 38 158.315 38C158.063 38 157.847 37.916 157.667 37.748C157.499 37.568 157.415 37.346 157.415 37.082V35.786L157.793 35.84C157.793 36.056 157.703 36.296 157.523 36.56C157.355 36.824 157.121 37.082 156.821 37.334C156.521 37.574 156.167 37.778 155.759 37.946C155.351 38.102 154.913 38.18 154.445 38.18C153.617 38.18 152.873 37.97 152.213 37.55C151.553 37.118 151.031 36.53 150.647 35.786C150.263 35.042 150.071 34.196 150.071 33.248C150.071 32.276 150.263 31.424 150.647 30.692C151.031 29.948 151.547 29.366 152.195 28.946C152.855 28.526 153.587 28.316 154.391 28.316C154.907 28.316 155.381 28.4 155.813 28.568C156.257 28.736 156.641 28.952 156.965 29.216C157.289 29.48 157.535 29.762 157.703 30.062C157.883 30.35 157.973 30.626 157.973 30.89L157.415 30.944V29.306C157.415 29.054 157.499 28.838 157.667 28.658C157.847 28.478 158.063 28.388 158.315 28.388ZM154.643 36.524C155.207 36.524 155.705 36.38 156.137 36.092C156.569 35.804 156.905 35.414 157.145 34.922C157.385 34.418 157.505 33.86 157.505 33.248C157.505 32.624 157.385 32.066 157.145 31.574C156.905 31.082 156.569 30.692 156.137 30.404C155.705 30.116 155.207 29.972 154.643 29.972C154.091 29.972 153.599 30.116 153.167 30.404C152.747 30.692 152.411 31.082 152.159 31.574C151.919 32.066 151.799 32.624 151.799 33.248C151.799 33.86 151.919 34.418 152.159 34.922C152.411 35.414 152.747 35.804 153.167 36.092C153.599 36.38 154.091 36.524 154.643 36.524ZM166.507 28.316C167.347 28.316 168.091 28.526 168.739 28.946C169.399 29.366 169.921 29.948 170.305 30.692C170.689 31.424 170.881 32.27 170.881 33.23C170.881 34.19 170.689 35.042 170.305 35.786C169.921 36.53 169.405 37.118 168.757 37.55C168.109 37.97 167.377 38.18 166.561 38.18C166.105 38.18 165.673 38.108 165.265 37.964C164.857 37.808 164.497 37.616 164.185 37.388C163.873 37.148 163.615 36.896 163.411 36.632C163.219 36.368 163.099 36.122 163.051 35.894L163.537 35.66V37.226C163.537 37.478 163.447 37.694 163.267 37.874C163.099 38.042 162.889 38.126 162.637 38.126C162.373 38.126 162.157 38.042 161.989 37.874C161.821 37.706 161.737 37.49 161.737 37.226V25.598C161.737 25.334 161.821 25.118 161.989 24.95C162.157 24.77 162.373 24.68 162.637 24.68C162.889 24.68 163.099 24.77 163.267 24.95C163.447 25.118 163.537 25.334 163.537 25.598V30.656L163.249 30.494C163.285 30.266 163.399 30.032 163.591 29.792C163.783 29.54 164.023 29.3 164.311 29.072C164.611 28.844 164.947 28.664 165.319 28.532C165.703 28.388 166.099 28.316 166.507 28.316ZM166.309 29.972C165.733 29.972 165.229 30.116 164.797 30.404C164.377 30.692 164.047 31.082 163.807 31.574C163.567 32.054 163.447 32.606 163.447 33.23C163.447 33.854 163.567 34.418 163.807 34.922C164.047 35.414 164.377 35.804 164.797 36.092C165.229 36.38 165.733 36.524 166.309 36.524C166.873 36.524 167.365 36.38 167.785 36.092C168.205 35.804 168.535 35.408 168.775 34.904C169.027 34.4 169.153 33.842 169.153 33.23C169.153 32.606 169.027 32.054 168.775 31.574C168.535 31.082 168.205 30.692 167.785 30.404C167.365 30.116 166.873 29.972 166.309 29.972ZM174.86 37.082C174.86 37.346 174.77 37.568 174.59 37.748C174.422 37.916 174.212 38 173.96 38C173.708 38 173.492 37.916 173.312 37.748C173.144 37.568 173.06 37.346 173.06 37.082V25.598C173.06 25.334 173.15 25.118 173.33 24.95C173.51 24.77 173.726 24.68 173.978 24.68C174.242 24.68 174.452 24.77 174.608 24.95C174.776 25.118 174.86 25.334 174.86 25.598V37.082ZM181.774 38.18C180.778 38.18 179.914 37.976 179.182 37.568C178.45 37.148 177.88 36.578 177.472 35.858C177.076 35.126 176.878 34.292 176.878 33.356C176.878 32.3 177.088 31.4 177.508 30.656C177.94 29.9 178.498 29.324 179.182 28.928C179.866 28.52 180.592 28.316 181.36 28.316C181.948 28.316 182.506 28.436 183.034 28.676C183.562 28.904 184.03 29.228 184.438 29.648C184.858 30.056 185.188 30.542 185.428 31.106C185.668 31.658 185.794 32.264 185.806 32.924C185.794 33.164 185.698 33.362 185.518 33.518C185.338 33.674 185.128 33.752 184.888 33.752H177.886L177.454 32.222H184.222L183.88 32.546V32.096C183.856 31.676 183.718 31.31 183.466 30.998C183.214 30.674 182.902 30.428 182.53 30.26C182.158 30.08 181.768 29.99 181.36 29.99C181 29.99 180.652 30.05 180.316 30.17C179.992 30.278 179.698 30.458 179.434 30.71C179.182 30.962 178.978 31.298 178.822 31.718C178.678 32.126 178.606 32.636 178.606 33.248C178.606 33.908 178.744 34.484 179.02 34.976C179.296 35.468 179.668 35.852 180.136 36.128C180.604 36.392 181.12 36.524 181.684 36.524C182.128 36.524 182.494 36.482 182.782 36.398C183.07 36.302 183.31 36.188 183.502 36.056C183.694 35.924 183.862 35.798 184.006 35.678C184.186 35.57 184.366 35.516 184.546 35.516C184.762 35.516 184.942 35.594 185.086 35.75C185.23 35.894 185.302 36.068 185.302 36.272C185.302 36.536 185.17 36.776 184.906 36.992C184.582 37.304 184.132 37.58 183.556 37.82C182.992 38.06 182.398 38.18 181.774 38.18Z" fill="#253D4E"/>
<path d="M89.736 67.344C89.736 67.5253 89.6667 67.68 89.528 67.808C89.4 67.936 89.2453 68 89.064 68C88.8613 68 88.7013 67.936 88.584 67.808C88.4667 67.68 88.408 67.5253 88.408 67.344V57.456C88.408 57.264 88.472 57.1093 88.6 56.992C88.728 56.864 88.888 56.8 89.08 56.8C89.2613 56.8 89.416 56.864 89.544 56.992C89.672 57.1093 89.736 57.264 89.736 57.456V67.344ZM95.7806 56.192C95.962 56.192 96.1486 56.2133 96.3406 56.256C96.5433 56.2987 96.714 56.3733 96.8526 56.48C97.002 56.5867 97.0766 56.7307 97.0766 56.912C97.0766 57.0827 97.0233 57.2267 96.9166 57.344C96.81 57.4507 96.682 57.504 96.5326 57.504C96.4366 57.504 96.3033 57.4773 96.1326 57.424C95.962 57.36 95.786 57.328 95.6046 57.328C95.3593 57.328 95.1566 57.3813 94.9966 57.488C94.8473 57.5947 94.7353 57.7387 94.6606 57.92C94.5966 58.0907 94.5646 58.2827 94.5646 58.496V67.344C94.5646 67.5253 94.5006 67.68 94.3726 67.808C94.2553 67.936 94.106 68 93.9246 68C93.7326 68 93.578 67.936 93.4606 67.808C93.3433 67.68 93.2846 67.5253 93.2846 67.344V58.512C93.2846 57.7973 93.5033 57.232 93.9406 56.816C94.3886 56.4 95.002 56.192 95.7806 56.192ZM96.2286 59.856C96.3993 59.856 96.5433 59.9147 96.6606 60.032C96.778 60.1387 96.8366 60.2773 96.8366 60.448C96.8366 60.6187 96.778 60.7627 96.6606 60.88C96.5433 60.9867 96.3993 61.04 96.2286 61.04H92.2126C92.042 61.04 91.898 60.9813 91.7806 60.864C91.6633 60.7467 91.6046 60.608 91.6046 60.448C91.6046 60.2667 91.6633 60.1227 91.7806 60.016C91.898 59.9093 92.042 59.856 92.2126 59.856H96.2286ZM109.095 59.6C109.276 59.6 109.425 59.664 109.543 59.792C109.671 59.9093 109.735 60.0587 109.735 60.24V67.216C109.735 68.112 109.559 68.8533 109.207 69.44C108.855 70.0373 108.38 70.48 107.783 70.768C107.196 71.056 106.529 71.2 105.783 71.2C105.367 71.2 104.967 71.1573 104.583 71.072C104.199 70.9867 103.884 70.8747 103.639 70.736C103.436 70.64 103.292 70.5173 103.207 70.368C103.132 70.2293 103.121 70.08 103.175 69.92C103.249 69.728 103.356 69.5947 103.495 69.52C103.644 69.4453 103.799 69.4453 103.959 69.52C104.129 69.5947 104.375 69.696 104.695 69.824C105.025 69.9627 105.393 70.032 105.799 70.032C106.353 70.032 106.828 69.9253 107.223 69.712C107.617 69.4987 107.921 69.184 108.135 68.768C108.348 68.3627 108.455 67.856 108.455 67.248V66.112L108.647 66.512C108.476 66.8427 108.247 67.1307 107.959 67.376C107.671 67.6213 107.34 67.8133 106.967 67.952C106.593 68.0907 106.183 68.16 105.735 68.16C105.127 68.16 104.609 68.032 104.183 67.776C103.767 67.5093 103.447 67.1467 103.223 66.688C103.009 66.2187 102.903 65.68 102.903 65.072V60.24C102.903 60.0587 102.961 59.9093 103.079 59.792C103.207 59.664 103.361 59.6 103.543 59.6C103.735 59.6 103.889 59.664 104.007 59.792C104.124 59.9093 104.183 60.0587 104.183 60.24V64.784C104.183 65.5093 104.343 66.0587 104.663 66.432C104.983 66.7947 105.479 66.976 106.151 66.976C106.577 66.976 106.961 66.88 107.303 66.688C107.655 66.496 107.932 66.2347 108.135 65.904C108.348 65.5627 108.455 65.1893 108.455 64.784V60.24C108.455 60.0587 108.513 59.9093 108.631 59.792C108.748 59.664 108.903 59.6 109.095 59.6ZM119.884 63.84C119.884 64.672 119.697 65.4133 119.324 66.064C118.961 66.7147 118.465 67.2267 117.836 67.6C117.217 67.9733 116.518 68.16 115.74 68.16C114.961 68.16 114.257 67.9733 113.628 67.6C112.998 67.2267 112.497 66.7147 112.124 66.064C111.761 65.4133 111.58 64.672 111.58 63.84C111.58 63.008 111.761 62.2667 112.124 61.616C112.497 60.9653 112.998 60.4533 113.628 60.08C114.257 59.7067 114.961 59.52 115.74 59.52C116.518 59.52 117.217 59.7067 117.836 60.08C118.465 60.4533 118.961 60.9653 119.324 61.616C119.697 62.2667 119.884 63.008 119.884 63.84ZM118.604 63.84C118.604 63.2213 118.476 62.6773 118.22 62.208C117.974 61.7387 117.633 61.3707 117.196 61.104C116.769 60.8373 116.284 60.704 115.74 60.704C115.196 60.704 114.705 60.8373 114.268 61.104C113.841 61.3707 113.5 61.7387 113.244 62.208C112.988 62.6773 112.86 63.2213 112.86 63.84C112.86 64.448 112.988 64.9867 113.244 65.456C113.5 65.9253 113.841 66.2987 114.268 66.576C114.705 66.8427 115.196 66.976 115.74 66.976C116.284 66.976 116.769 66.8427 117.196 66.576C117.633 66.2987 117.974 65.9253 118.22 65.456C118.476 64.9867 118.604 64.448 118.604 63.84ZM128.001 59.728C128.193 59.728 128.348 59.792 128.465 59.92C128.582 60.0373 128.641 60.1867 128.641 60.368V64.736C128.641 65.8133 128.337 66.6507 127.729 67.248C127.132 67.8347 126.294 68.128 125.217 68.128C124.15 68.128 123.313 67.8347 122.705 67.248C122.108 66.6507 121.809 65.8133 121.809 64.736V60.368C121.809 60.1867 121.868 60.0373 121.985 59.92C122.113 59.792 122.268 59.728 122.449 59.728C122.641 59.728 122.796 59.792 122.913 59.92C123.03 60.0373 123.089 60.1867 123.089 60.368V64.736C123.089 65.4613 123.276 66.0107 123.649 66.384C124.022 66.7573 124.545 66.944 125.217 66.944C125.91 66.944 126.438 66.7573 126.801 66.384C127.174 66.0107 127.361 65.4613 127.361 64.736V60.368C127.361 60.1867 127.42 60.0373 127.537 59.92C127.665 59.792 127.82 59.728 128.001 59.728ZM131.652 68C131.471 68 131.316 67.936 131.188 67.808C131.071 67.68 131.012 67.5253 131.012 67.344V60.368C131.012 60.1867 131.071 60.0373 131.188 59.92C131.316 59.792 131.471 59.728 131.652 59.728C131.844 59.728 131.999 59.792 132.116 59.92C132.233 60.0373 132.292 60.1867 132.292 60.368V62.48L132.1 62.144C132.164 61.8133 132.276 61.4933 132.436 61.184C132.607 60.864 132.82 60.5813 133.076 60.336C133.332 60.08 133.625 59.8827 133.956 59.744C134.287 59.5947 134.649 59.52 135.044 59.52C135.279 59.52 135.492 59.5787 135.684 59.696C135.887 59.8027 135.988 59.9573 135.988 60.16C135.988 60.384 135.929 60.5493 135.812 60.656C135.695 60.7627 135.561 60.816 135.412 60.816C135.273 60.816 135.14 60.7893 135.012 60.736C134.884 60.672 134.724 60.64 134.532 60.64C134.265 60.64 133.999 60.7147 133.732 60.864C133.476 61.0027 133.236 61.2053 133.012 61.472C132.799 61.7387 132.623 62.0427 132.484 62.384C132.356 62.7147 132.292 63.072 132.292 63.456V67.344C132.292 67.5253 132.228 67.68 132.1 67.808C131.983 67.936 131.833 68 131.652 68ZM143.072 67.344C143.072 67.5253 143.008 67.68 142.88 67.808C142.763 67.936 142.614 68 142.432 68C142.24 68 142.086 67.936 141.968 67.808C141.851 67.68 141.792 67.5253 141.792 67.344V60.24C141.792 60.0587 141.851 59.9093 141.968 59.792C142.096 59.664 142.251 59.6 142.432 59.6C142.614 59.6 142.763 59.664 142.88 59.792C143.008 59.9093 143.072 60.0587 143.072 60.24V67.344ZM142.432 58.528C142.166 58.528 141.968 58.4747 141.84 58.368C141.712 58.2613 141.648 58.096 141.648 57.872V57.648C141.648 57.424 141.718 57.2587 141.856 57.152C141.995 57.0453 142.192 56.992 142.448 56.992C142.704 56.992 142.896 57.0453 143.024 57.152C143.152 57.2587 143.216 57.424 143.216 57.648V57.872C143.216 58.096 143.147 58.2613 143.008 58.368C142.88 58.4747 142.688 58.528 142.432 58.528ZM145.052 59.776H148.812C148.982 59.776 149.121 59.8347 149.228 59.952C149.345 60.0693 149.404 60.208 149.404 60.368C149.404 60.5387 149.345 60.6827 149.228 60.8C149.121 60.9067 148.982 60.96 148.812 60.96H145.052C144.892 60.96 144.753 60.9013 144.636 60.784C144.518 60.6667 144.46 60.5227 144.46 60.352C144.46 60.192 144.518 60.0587 144.636 59.952C144.753 59.8347 144.892 59.776 145.052 59.776ZM146.732 57.6C146.913 57.6 147.062 57.664 147.18 57.792C147.297 57.9093 147.356 58.0587 147.356 58.24V65.968C147.356 66.224 147.393 66.416 147.468 66.544C147.542 66.672 147.638 66.7627 147.756 66.816C147.884 66.8587 148.006 66.88 148.124 66.88C148.23 66.88 148.321 66.864 148.396 66.832C148.481 66.7893 148.577 66.768 148.684 66.768C148.79 66.768 148.886 66.8213 148.972 66.928C149.068 67.024 149.116 67.152 149.116 67.312C149.116 67.504 149.004 67.6693 148.78 67.808C148.556 67.936 148.305 68 148.028 68C147.878 68 147.692 67.9893 147.468 67.968C147.254 67.9467 147.041 67.8773 146.828 67.76C146.614 67.6427 146.433 67.4507 146.284 67.184C146.145 66.9067 146.076 66.5227 146.076 66.032V58.24C146.076 58.0587 146.14 57.9093 146.268 57.792C146.396 57.664 146.55 57.6 146.732 57.6ZM154.93 68.16C154.077 68.16 153.33 67.9787 152.69 67.616C152.05 67.2533 151.549 66.7573 151.186 66.128C150.834 65.488 150.658 64.752 150.658 63.92C150.658 62.992 150.839 62.2027 151.202 61.552C151.575 60.8907 152.055 60.3893 152.642 60.048C153.239 59.696 153.869 59.52 154.53 59.52C155.021 59.52 155.495 59.6107 155.954 59.792C156.413 59.9733 156.818 60.24 157.17 60.592C157.522 60.9333 157.805 61.3493 158.018 61.84C158.231 62.32 158.343 62.8587 158.354 63.456C158.354 63.6267 158.29 63.7707 158.162 63.888C158.034 64.0053 157.885 64.064 157.714 64.064H151.394L151.106 62.96H157.266L157.01 63.184V62.832C156.967 62.3947 156.818 62.0213 156.562 61.712C156.317 61.392 156.013 61.1467 155.65 60.976C155.298 60.8053 154.925 60.72 154.53 60.72C154.21 60.72 153.89 60.7787 153.57 60.896C153.261 61.0027 152.978 61.184 152.722 61.44C152.477 61.6853 152.274 62.0053 152.114 62.4C151.965 62.7947 151.89 63.2693 151.89 63.824C151.89 64.4427 152.013 64.9867 152.258 65.456C152.514 65.9253 152.866 66.2987 153.314 66.576C153.762 66.8427 154.285 66.976 154.882 66.976C155.255 66.976 155.581 66.928 155.858 66.832C156.135 66.736 156.375 66.6187 156.578 66.48C156.781 66.3307 156.951 66.1813 157.09 66.032C157.229 65.936 157.362 65.888 157.49 65.888C157.65 65.888 157.778 65.9413 157.874 66.048C157.981 66.1547 158.034 66.2827 158.034 66.432C158.034 66.6133 157.949 66.7733 157.778 66.912C157.479 67.2427 157.074 67.536 156.562 67.792C156.05 68.0373 155.506 68.16 154.93 68.16ZM164.23 59.6C164.955 59.6 165.542 59.7867 165.99 60.16C166.448 60.5227 166.752 61.04 166.902 61.712H166.662L166.774 61.424C166.902 61.1253 167.12 60.8373 167.43 60.56C167.739 60.2827 168.096 60.0533 168.502 59.872C168.907 59.6907 169.328 59.6 169.766 59.6C170.47 59.6 171.024 59.7547 171.43 60.064C171.835 60.3627 172.123 60.768 172.294 61.28C172.475 61.7813 172.566 62.3467 172.566 62.976V67.344C172.566 67.5253 172.502 67.68 172.374 67.808C172.256 67.936 172.107 68 171.926 68C171.734 68 171.579 67.936 171.462 67.808C171.344 67.68 171.286 67.5253 171.286 67.344V63.008C171.286 62.592 171.222 62.2187 171.094 61.888C170.976 61.5467 170.779 61.28 170.502 61.088C170.235 60.8853 169.867 60.784 169.398 60.784C168.96 60.784 168.56 60.8853 168.198 61.088C167.835 61.28 167.547 61.5467 167.334 61.888C167.12 62.2187 167.014 62.592 167.014 63.008V67.344C167.014 67.5253 166.955 67.68 166.838 67.808C166.72 67.936 166.566 68 166.374 68C166.192 68 166.038 67.936 165.91 67.808C165.792 67.68 165.734 67.5253 165.734 67.344V62.96C165.734 62.5547 165.675 62.192 165.558 61.872C165.451 61.5413 165.264 61.28 164.998 61.088C164.731 60.8853 164.363 60.784 163.894 60.784C163.467 60.784 163.078 60.8853 162.726 61.088C162.374 61.28 162.091 61.5413 161.878 61.872C161.664 62.192 161.558 62.5547 161.558 62.96V67.344C161.558 67.5253 161.494 67.68 161.366 67.808C161.248 67.936 161.099 68 160.918 68C160.736 68 160.582 67.936 160.454 67.808C160.336 67.68 160.278 67.5253 160.278 67.344V60.368C160.278 60.1867 160.336 60.0373 160.454 59.92C160.582 59.792 160.736 59.728 160.918 59.728C161.11 59.728 161.264 59.792 161.382 59.92C161.499 60.0373 161.558 60.1867 161.558 60.368V61.584L161.206 61.968C161.248 61.6907 161.355 61.4133 161.526 61.136C161.707 60.8587 161.936 60.6027 162.214 60.368C162.491 60.1333 162.8 59.9467 163.142 59.808C163.483 59.6693 163.846 59.6 164.23 59.6ZM174.47 66.688C174.374 66.5493 174.331 66.4053 174.342 66.256C174.353 66.096 174.443 65.9573 174.614 65.84C174.721 65.7653 174.843 65.7333 174.982 65.744C175.131 65.7547 175.265 65.824 175.382 65.952C175.681 66.304 176.022 66.5867 176.406 66.8C176.79 67.0027 177.259 67.104 177.814 67.104C178.07 67.0933 178.326 67.0507 178.582 66.976C178.838 66.9013 179.051 66.7733 179.222 66.592C179.403 66.4 179.494 66.1493 179.494 65.84C179.494 65.5413 179.403 65.3067 179.222 65.136C179.041 64.9547 178.806 64.8107 178.518 64.704C178.23 64.5867 177.915 64.4853 177.574 64.4C177.222 64.304 176.875 64.1973 176.534 64.08C176.193 63.952 175.883 63.7973 175.606 63.616C175.339 63.424 175.121 63.1893 174.95 62.912C174.79 62.624 174.71 62.2773 174.71 61.872C174.71 61.392 174.838 60.976 175.094 60.624C175.361 60.272 175.713 60 176.15 59.808C176.598 59.616 177.083 59.52 177.606 59.52C177.905 59.52 178.214 59.5573 178.534 59.632C178.865 59.696 179.185 59.8133 179.494 59.984C179.803 60.144 180.075 60.368 180.31 60.656C180.406 60.7627 180.459 60.896 180.47 61.056C180.481 61.216 180.411 61.36 180.262 61.488C180.145 61.5733 180.011 61.6107 179.862 61.6C179.723 61.5893 179.606 61.536 179.51 61.44C179.286 61.1733 179.003 60.9707 178.662 60.832C178.331 60.6827 177.963 60.608 177.558 60.608C177.302 60.608 177.051 60.6453 176.806 60.72C176.561 60.7947 176.353 60.9227 176.182 61.104C176.022 61.2747 175.942 61.5147 175.942 61.824C175.953 62.112 176.049 62.3467 176.23 62.528C176.411 62.7093 176.657 62.8587 176.966 62.976C177.275 63.0827 177.617 63.1893 177.99 63.296C178.331 63.3813 178.657 63.4827 178.966 63.6C179.286 63.7067 179.574 63.8507 179.83 64.032C180.086 64.2133 180.289 64.448 180.438 64.736C180.587 65.0133 180.662 65.3653 180.662 65.792C180.662 66.2827 180.523 66.7093 180.246 67.072C179.969 67.424 179.601 67.696 179.142 67.888C178.694 68.0693 178.209 68.16 177.686 68.16C177.099 68.16 176.518 68.048 175.942 67.824C175.377 67.6 174.886 67.2213 174.47 66.688ZM190.918 59.6C191.622 59.6 192.177 59.7547 192.582 60.064C192.998 60.3627 193.292 60.768 193.462 61.28C193.644 61.7813 193.734 62.3413 193.734 62.96V67.344C193.734 67.5253 193.67 67.68 193.542 67.808C193.425 67.936 193.276 68 193.094 68C192.913 68 192.758 67.936 192.63 67.808C192.513 67.68 192.454 67.5253 192.454 67.344V62.96C192.454 62.5547 192.396 62.192 192.278 61.872C192.161 61.5413 191.964 61.28 191.686 61.088C191.42 60.8853 191.052 60.784 190.582 60.784C190.145 60.784 189.745 60.8853 189.382 61.088C189.02 61.28 188.732 61.5413 188.518 61.872C188.305 62.192 188.198 62.5547 188.198 62.96V67.344C188.198 67.5253 188.134 67.68 188.006 67.808C187.889 67.936 187.74 68 187.558 68C187.377 68 187.222 67.936 187.094 67.808C186.977 67.68 186.918 67.5253 186.918 67.344V56.8C186.918 56.6187 186.977 56.4693 187.094 56.352C187.222 56.224 187.377 56.16 187.558 56.16C187.75 56.16 187.905 56.224 188.022 56.352C188.14 56.4693 188.198 56.6187 188.198 56.8V61.584L187.878 61.936C187.932 61.6587 188.049 61.3813 188.23 61.104C188.412 60.816 188.641 60.56 188.918 60.336C189.196 60.112 189.505 59.936 189.846 59.808C190.188 59.6693 190.545 59.6 190.918 59.6ZM202.922 59.648C203.103 59.648 203.253 59.712 203.37 59.84C203.498 59.9573 203.562 60.1067 203.562 60.288V67.344C203.562 67.5253 203.498 67.68 203.37 67.808C203.253 67.936 203.103 68 202.922 68C202.73 68 202.575 67.936 202.458 67.808C202.341 67.68 202.282 67.5253 202.282 67.344V65.824L202.586 65.792C202.586 66.0267 202.506 66.2827 202.346 66.56C202.186 66.8373 201.967 67.0987 201.69 67.344C201.413 67.5787 201.082 67.776 200.698 67.936C200.325 68.0853 199.919 68.16 199.482 68.16C198.757 68.16 198.106 67.9733 197.53 67.6C196.954 67.216 196.495 66.6987 196.154 66.048C195.823 65.3973 195.658 64.656 195.658 63.824C195.658 62.9813 195.823 62.24 196.154 61.6C196.495 60.9493 196.954 60.4427 197.53 60.08C198.106 59.7067 198.746 59.52 199.45 59.52C199.909 59.52 200.335 59.5947 200.73 59.744C201.125 59.8933 201.466 60.096 201.754 60.352C202.053 60.608 202.282 60.8907 202.442 61.2C202.613 61.5093 202.698 61.8187 202.698 62.128L202.282 62.032V60.288C202.282 60.1067 202.341 59.9573 202.458 59.84C202.575 59.712 202.73 59.648 202.922 59.648ZM199.626 66.976C200.159 66.976 200.629 66.8373 201.034 66.56C201.45 66.2827 201.77 65.9093 201.994 65.44C202.229 64.96 202.346 64.4213 202.346 63.824C202.346 63.2373 202.229 62.7093 201.994 62.24C201.77 61.76 201.45 61.3867 201.034 61.12C200.629 60.8427 200.159 60.704 199.626 60.704C199.103 60.704 198.634 60.8373 198.218 61.104C197.813 61.3707 197.493 61.7387 197.258 62.208C197.023 62.6773 196.906 63.216 196.906 63.824C196.906 64.4213 197.018 64.96 197.242 65.44C197.477 65.9093 197.797 66.2827 198.202 66.56C198.618 66.8373 199.093 66.976 199.626 66.976ZM205.747 59.584C205.875 59.584 205.997 59.6213 206.115 59.696C206.232 59.76 206.317 59.856 206.371 59.984L209.027 66.224L208.771 66.352L211.475 60C211.592 59.712 211.789 59.5733 212.067 59.584C212.227 59.584 212.365 59.6373 212.483 59.744C212.6 59.8507 212.659 59.984 212.659 60.144C212.659 60.208 212.648 60.272 212.627 60.336C212.616 60.3893 212.6 60.4373 212.579 60.48L209.491 67.584C209.373 67.8507 209.187 67.9893 208.931 68C208.792 68.0107 208.659 67.984 208.531 67.92C208.413 67.8453 208.328 67.7333 208.275 67.584L205.187 60.496C205.165 60.4533 205.144 60.4053 205.123 60.352C205.112 60.2987 205.107 60.2347 205.107 60.16C205.107 60.0213 205.16 59.8933 205.267 59.776C205.384 59.648 205.544 59.584 205.747 59.584ZM218.133 68.16C217.28 68.16 216.533 67.9787 215.893 67.616C215.253 67.2533 214.752 66.7573 214.389 66.128C214.037 65.488 213.861 64.752 213.861 63.92C213.861 62.992 214.042 62.2027 214.405 61.552C214.778 60.8907 215.258 60.3893 215.845 60.048C216.442 59.696 217.072 59.52 217.733 59.52C218.224 59.52 218.698 59.6107 219.157 59.792C219.616 59.9733 220.021 60.24 220.373 60.592C220.725 60.9333 221.008 61.3493 221.221 61.84C221.434 62.32 221.546 62.8587 221.557 63.456C221.557 63.6267 221.493 63.7707 221.365 63.888C221.237 64.0053 221.088 64.064 220.917 64.064H214.597L214.309 62.96H220.469L220.213 63.184V62.832C220.17 62.3947 220.021 62.0213 219.765 61.712C219.52 61.392 219.216 61.1467 218.853 60.976C218.501 60.8053 218.128 60.72 217.733 60.72C217.413 60.72 217.093 60.7787 216.773 60.896C216.464 61.0027 216.181 61.184 215.925 61.44C215.68 61.6853 215.477 62.0053 215.317 62.4C215.168 62.7947 215.093 63.2693 215.093 63.824C215.093 64.4427 215.216 64.9867 215.461 65.456C215.717 65.9253 216.069 66.2987 216.517 66.576C216.965 66.8427 217.488 66.976 218.085 66.976C218.458 66.976 218.784 66.928 219.061 66.832C219.338 66.736 219.578 66.6187 219.781 66.48C219.984 66.3307 220.154 66.1813 220.293 66.032C220.432 65.936 220.565 65.888 220.693 65.888C220.853 65.888 220.981 65.9413 221.077 66.048C221.184 66.1547 221.237 66.2827 221.237 66.432C221.237 66.6133 221.152 66.7733 220.981 66.912C220.682 67.2427 220.277 67.536 219.765 67.792C219.253 68.0373 218.709 68.16 218.133 68.16ZM234.703 56.16C234.884 56.16 235.034 56.224 235.151 56.352C235.279 56.4693 235.343 56.6187 235.343 56.8V67.344C235.343 67.5253 235.279 67.68 235.151 67.808C235.034 67.936 234.884 68 234.703 68C234.511 68 234.356 67.936 234.239 67.808C234.122 67.68 234.063 67.5253 234.063 67.344V65.824L234.367 65.712C234.367 65.968 234.287 66.24 234.127 66.528C233.967 66.8053 233.748 67.0667 233.471 67.312C233.194 67.5573 232.863 67.76 232.479 67.92C232.106 68.08 231.7 68.16 231.263 68.16C230.548 68.16 229.898 67.9733 229.311 67.6C228.735 67.2267 228.276 66.7147 227.935 66.064C227.604 65.4133 227.439 64.672 227.439 63.84C227.439 62.9973 227.604 62.2507 227.935 61.6C228.276 60.9493 228.735 60.4427 229.311 60.08C229.887 59.7067 230.527 59.52 231.231 59.52C231.679 59.52 232.1 59.5947 232.495 59.744C232.89 59.8933 233.231 60.096 233.519 60.352C233.818 60.608 234.052 60.8907 234.223 61.2C234.394 61.5093 234.479 61.8187 234.479 62.128L234.063 62.032V56.8C234.063 56.6187 234.122 56.4693 234.239 56.352C234.356 56.224 234.511 56.16 234.703 56.16ZM231.407 66.976C231.94 66.976 232.41 66.8427 232.815 66.576C233.231 66.2987 233.551 65.9253 233.775 65.456C234.01 64.976 234.127 64.4373 234.127 63.84C234.127 63.232 234.01 62.6933 233.775 62.224C233.551 61.7547 233.231 61.3867 232.815 61.12C232.41 60.8427 231.94 60.704 231.407 60.704C230.884 60.704 230.415 60.8427 229.999 61.12C229.594 61.3867 229.274 61.7547 229.039 62.224C228.804 62.6933 228.687 63.232 228.687 63.84C228.687 64.4267 228.804 64.96 229.039 65.44C229.274 65.9093 229.594 66.2827 229.999 66.56C230.415 66.8373 230.884 66.976 231.407 66.976ZM244.531 59.648C244.713 59.648 244.862 59.712 244.979 59.84C245.107 59.9573 245.171 60.1067 245.171 60.288V67.344C245.171 67.5253 245.107 67.68 244.979 67.808C244.862 67.936 244.713 68 244.531 68C244.339 68 244.185 67.936 244.067 67.808C243.95 67.68 243.891 67.5253 243.891 67.344V65.824L244.195 65.792C244.195 66.0267 244.115 66.2827 243.955 66.56C243.795 66.8373 243.577 67.0987 243.299 67.344C243.022 67.5787 242.691 67.776 242.307 67.936C241.934 68.0853 241.529 68.16 241.091 68.16C240.366 68.16 239.715 67.9733 239.139 67.6C238.563 67.216 238.105 66.6987 237.763 66.048C237.433 65.3973 237.267 64.656 237.267 63.824C237.267 62.9813 237.433 62.24 237.763 61.6C238.105 60.9493 238.563 60.4427 239.139 60.08C239.715 59.7067 240.355 59.52 241.059 59.52C241.518 59.52 241.945 59.5947 242.339 59.744C242.734 59.8933 243.075 60.096 243.363 60.352C243.662 60.608 243.891 60.8907 244.051 61.2C244.222 61.5093 244.307 61.8187 244.307 62.128L243.891 62.032V60.288C243.891 60.1067 243.95 59.9573 244.067 59.84C244.185 59.712 244.339 59.648 244.531 59.648ZM241.235 66.976C241.769 66.976 242.238 66.8373 242.643 66.56C243.059 66.2827 243.379 65.9093 243.603 65.44C243.838 64.96 243.955 64.4213 243.955 63.824C243.955 63.2373 243.838 62.7093 243.603 62.24C243.379 61.76 243.059 61.3867 242.643 61.12C242.238 60.8427 241.769 60.704 241.235 60.704C240.713 60.704 240.243 60.8373 239.827 61.104C239.422 61.3707 239.102 61.7387 238.867 62.208C238.633 62.6773 238.515 63.216 238.515 63.824C238.515 64.4213 238.627 64.96 238.851 65.44C239.086 65.9093 239.406 66.2827 239.811 66.56C240.227 66.8373 240.702 66.976 241.235 66.976ZM251.495 59.6C252.221 59.6 252.807 59.7867 253.255 60.16C253.714 60.5227 254.018 61.04 254.167 61.712H253.927L254.039 61.424C254.167 61.1253 254.386 60.8373 254.695 60.56C255.005 60.2827 255.362 60.0533 255.767 59.872C256.173 59.6907 256.594 59.6 257.031 59.6C257.735 59.6 258.29 59.7547 258.695 60.064C259.101 60.3627 259.389 60.768 259.559 61.28C259.741 61.7813 259.831 62.3467 259.831 62.976V67.344C259.831 67.5253 259.767 67.68 259.639 67.808C259.522 67.936 259.373 68 259.191 68C258.999 68 258.845 67.936 258.727 67.808C258.61 67.68 258.551 67.5253 258.551 67.344V63.008C258.551 62.592 258.487 62.2187 258.359 61.888C258.242 61.5467 258.045 61.28 257.767 61.088C257.501 60.8853 257.133 60.784 256.663 60.784C256.226 60.784 255.826 60.8853 255.463 61.088C255.101 61.28 254.813 61.5467 254.599 61.888C254.386 62.2187 254.279 62.592 254.279 63.008V67.344C254.279 67.5253 254.221 67.68 254.103 67.808C253.986 67.936 253.831 68 253.639 68C253.458 68 253.303 67.936 253.175 67.808C253.058 67.68 252.999 67.5253 252.999 67.344V62.96C252.999 62.5547 252.941 62.192 252.823 61.872C252.717 61.5413 252.53 61.28 252.263 61.088C251.997 60.8853 251.629 60.784 251.159 60.784C250.733 60.784 250.343 60.8853 249.991 61.088C249.639 61.28 249.357 61.5413 249.143 61.872C248.93 62.192 248.823 62.5547 248.823 62.96V67.344C248.823 67.5253 248.759 67.68 248.631 67.808C248.514 67.936 248.365 68 248.183 68C248.002 68 247.847 67.936 247.719 67.808C247.602 67.68 247.543 67.5253 247.543 67.344V60.368C247.543 60.1867 247.602 60.0373 247.719 59.92C247.847 59.792 248.002 59.728 248.183 59.728C248.375 59.728 248.53 59.792 248.647 59.92C248.765 60.0373 248.823 60.1867 248.823 60.368V61.584L248.471 61.968C248.514 61.6907 248.621 61.4133 248.791 61.136C248.973 60.8587 249.202 60.6027 249.479 60.368C249.757 60.1333 250.066 59.9467 250.407 59.808C250.749 59.6693 251.111 59.6 251.495 59.6ZM269.016 59.648C269.197 59.648 269.346 59.712 269.464 59.84C269.592 59.9573 269.656 60.1067 269.656 60.288V67.344C269.656 67.5253 269.592 67.68 269.464 67.808C269.346 67.936 269.197 68 269.016 68C268.824 68 268.669 67.936 268.552 67.808C268.434 67.68 268.376 67.5253 268.376 67.344V65.824L268.68 65.792C268.68 66.0267 268.6 66.2827 268.44 66.56C268.28 66.8373 268.061 67.0987 267.784 67.344C267.506 67.5787 267.176 67.776 266.792 67.936C266.418 68.0853 266.013 68.16 265.576 68.16C264.85 68.16 264.2 67.9733 263.624 67.6C263.048 67.216 262.589 66.6987 262.248 66.048C261.917 65.3973 261.752 64.656 261.752 63.824C261.752 62.9813 261.917 62.24 262.248 61.6C262.589 60.9493 263.048 60.4427 263.624 60.08C264.2 59.7067 264.84 59.52 265.544 59.52C266.002 59.52 266.429 59.5947 266.824 59.744C267.218 59.8933 267.56 60.096 267.848 60.352C268.146 60.608 268.376 60.8907 268.536 61.2C268.706 61.5093 268.792 61.8187 268.792 62.128L268.376 62.032V60.288C268.376 60.1067 268.434 59.9573 268.552 59.84C268.669 59.712 268.824 59.648 269.016 59.648ZM265.72 66.976C266.253 66.976 266.722 66.8373 267.128 66.56C267.544 66.2827 267.864 65.9093 268.088 65.44C268.322 64.96 268.44 64.4213 268.44 63.824C268.44 63.2373 268.322 62.7093 268.088 62.24C267.864 61.76 267.544 61.3867 267.128 61.12C266.722 60.8427 266.253 60.704 265.72 60.704C265.197 60.704 264.728 60.8373 264.312 61.104C263.906 61.3707 263.586 61.7387 263.352 62.208C263.117 62.6773 263 63.216 263 63.824C263 64.4213 263.112 64.96 263.336 65.44C263.57 65.9093 263.89 66.2827 264.296 66.56C264.712 66.8373 265.186 66.976 265.72 66.976ZM275.5 59.52C275.958 59.52 276.385 59.6 276.78 59.76C277.174 59.9093 277.516 60.1067 277.804 60.352C278.102 60.5973 278.332 60.8533 278.492 61.12C278.662 61.3867 278.748 61.6373 278.748 61.872L278.444 61.68V60.288C278.444 60.1067 278.502 59.9573 278.62 59.84C278.737 59.712 278.892 59.648 279.084 59.648C279.265 59.648 279.414 59.712 279.532 59.84C279.66 59.9573 279.724 60.1067 279.724 60.288V67.296C279.724 68.1707 279.537 68.896 279.164 69.472C278.801 70.048 278.31 70.48 277.692 70.768C277.073 71.056 276.38 71.2 275.612 71.2C275.292 71.2 274.94 71.1573 274.556 71.072C274.172 70.9867 273.83 70.88 273.532 70.752C273.233 70.6347 273.041 70.512 272.956 70.384C272.796 70.2773 272.694 70.1547 272.652 70.016C272.62 69.888 272.646 69.7653 272.732 69.648C272.828 69.4987 272.95 69.424 273.1 69.424C273.26 69.424 273.457 69.472 273.692 69.568C273.788 69.6 273.937 69.6533 274.14 69.728C274.353 69.8027 274.588 69.8667 274.844 69.92C275.11 69.984 275.372 70.016 275.628 70.016C276.534 70.016 277.228 69.776 277.708 69.296C278.198 68.8267 278.444 68.2027 278.444 67.424V65.936L278.62 66.016C278.556 66.3147 278.422 66.592 278.22 66.848C278.028 67.104 277.788 67.3333 277.5 67.536C277.222 67.728 276.913 67.8827 276.572 68C276.23 68.1067 275.884 68.16 275.532 68.16C274.785 68.16 274.113 67.9733 273.516 67.6C272.918 67.2267 272.444 66.7147 272.092 66.064C271.75 65.4133 271.58 64.672 271.58 63.84C271.58 62.9973 271.75 62.2507 272.092 61.6C272.444 60.9493 272.913 60.4427 273.5 60.08C274.097 59.7067 274.764 59.52 275.5 59.52ZM275.66 60.704C275.116 60.704 274.625 60.8427 274.188 61.12C273.761 61.3867 273.425 61.7547 273.18 62.224C272.945 62.6933 272.828 63.232 272.828 63.84C272.828 64.4267 272.945 64.96 273.18 65.44C273.425 65.9093 273.761 66.2827 274.188 66.56C274.625 66.8373 275.116 66.976 275.66 66.976C276.214 66.976 276.705 66.8427 277.132 66.576C277.558 66.2987 277.894 65.9253 278.14 65.456C278.385 64.9867 278.508 64.448 278.508 63.84C278.508 63.2213 278.385 62.6773 278.14 62.208C277.894 61.7387 277.558 61.3707 277.132 61.104C276.705 60.8373 276.214 60.704 275.66 60.704ZM285.602 68.16C284.748 68.16 284.002 67.9787 283.362 67.616C282.722 67.2533 282.22 66.7573 281.858 66.128C281.506 65.488 281.33 64.752 281.33 63.92C281.33 62.992 281.511 62.2027 281.874 61.552C282.247 60.8907 282.727 60.3893 283.314 60.048C283.911 59.696 284.54 59.52 285.202 59.52C285.692 59.52 286.167 59.6107 286.626 59.792C287.084 59.9733 287.49 60.24 287.842 60.592C288.194 60.9333 288.476 61.3493 288.69 61.84C288.903 62.32 289.015 62.8587 289.026 63.456C289.026 63.6267 288.962 63.7707 288.834 63.888C288.706 64.0053 288.556 64.064 288.386 64.064H282.066L281.778 62.96H287.938L287.682 63.184V62.832C287.639 62.3947 287.49 62.0213 287.234 61.712C286.988 61.392 286.684 61.1467 286.322 60.976C285.97 60.8053 285.596 60.72 285.202 60.72C284.882 60.72 284.562 60.7787 284.242 60.896C283.932 61.0027 283.65 61.184 283.394 61.44C283.148 61.6853 282.946 62.0053 282.786 62.4C282.636 62.7947 282.562 63.2693 282.562 63.824C282.562 64.4427 282.684 64.9867 282.93 65.456C283.186 65.9253 283.538 66.2987 283.986 66.576C284.434 66.8427 284.956 66.976 285.554 66.976C285.927 66.976 286.252 66.928 286.53 66.832C286.807 66.736 287.047 66.6187 287.25 66.48C287.452 66.3307 287.623 66.1813 287.762 66.032C287.9 65.936 288.034 65.888 288.162 65.888C288.322 65.888 288.45 65.9413 288.546 66.048C288.652 66.1547 288.706 66.2827 288.706 66.432C288.706 66.6133 288.62 66.7733 288.45 66.912C288.151 67.2427 287.746 67.536 287.234 67.792C286.722 68.0373 286.178 68.16 285.602 68.16ZM97.944 79.584C98.1147 79.584 98.2587 79.6427 98.376 79.76C98.504 79.8773 98.568 80.032 98.568 80.224C98.568 80.2667 98.5627 80.3147 98.552 80.368C98.552 80.4107 98.5413 80.4533 98.52 80.496L96.056 87.584C96.0027 87.7227 95.912 87.8293 95.784 87.904C95.6667 87.9787 95.5387 88.0107 95.4 88C95.1547 87.9893 94.968 87.8507 94.84 87.584L92.824 82.528L93.144 82.576L91.32 87.584C91.2027 87.8507 91.016 87.9893 90.76 88C90.6213 88.0107 90.488 87.9787 90.36 87.904C90.232 87.8293 90.1467 87.7227 90.104 87.584L87.592 80.496C87.56 80.4 87.544 80.3093 87.544 80.224C87.544 80.0533 87.6027 79.904 87.72 79.776C87.8373 79.648 87.9973 79.584 88.2 79.584C88.328 79.584 88.4453 79.616 88.552 79.68C88.6587 79.744 88.7333 79.8453 88.776 79.984L90.936 86.288L90.6 86.272L92.472 81.472C92.5787 81.2053 92.776 81.072 93.064 81.072C93.2133 81.072 93.3307 81.1093 93.416 81.184C93.512 81.248 93.5813 81.344 93.624 81.472L95.576 86.272L95.176 86.304L97.336 79.984C97.432 79.7173 97.6347 79.584 97.944 79.584ZM104.117 88.16C103.264 88.16 102.517 87.9787 101.877 87.616C101.237 87.2533 100.736 86.7573 100.373 86.128C100.021 85.488 99.8454 84.752 99.8454 83.92C99.8454 82.992 100.027 82.2027 100.389 81.552C100.763 80.8907 101.243 80.3893 101.829 80.048C102.427 79.696 103.056 79.52 103.717 79.52C104.208 79.52 104.683 79.6107 105.141 79.792C105.6 79.9733 106.005 80.24 106.357 80.592C106.709 80.9333 106.992 81.3493 107.205 81.84C107.419 82.32 107.531 82.8587 107.541 83.456C107.541 83.6267 107.477 83.7707 107.349 83.888C107.221 84.0053 107.072 84.064 106.901 84.064H100.581L100.293 82.96H106.453L106.197 83.184V82.832C106.155 82.3947 106.005 82.0213 105.749 81.712C105.504 81.392 105.2 81.1467 104.837 80.976C104.485 80.8053 104.112 80.72 103.717 80.72C103.397 80.72 103.077 80.7787 102.757 80.896C102.448 81.0027 102.165 81.184 101.909 81.44C101.664 81.6853 101.461 82.0053 101.301 82.4C101.152 82.7947 101.077 83.2693 101.077 83.824C101.077 84.4427 101.2 84.9867 101.445 85.456C101.701 85.9253 102.053 86.2987 102.501 86.576C102.949 86.8427 103.472 86.976 104.069 86.976C104.443 86.976 104.768 86.928 105.045 86.832C105.323 86.736 105.563 86.6187 105.765 86.48C105.968 86.3307 106.139 86.1813 106.277 86.032C106.416 85.936 106.549 85.888 106.677 85.888C106.837 85.888 106.965 85.9413 107.061 86.048C107.168 86.1547 107.221 86.2827 107.221 86.432C107.221 86.6133 107.136 86.7733 106.965 86.912C106.667 87.2427 106.261 87.536 105.749 87.792C105.237 88.0373 104.693 88.16 104.117 88.16ZM120.688 79.648C120.869 79.648 121.018 79.712 121.135 79.84C121.264 79.9573 121.328 80.1067 121.328 80.288V87.344C121.328 87.5253 121.264 87.68 121.135 87.808C121.018 87.936 120.869 88 120.688 88C120.496 88 120.341 87.936 120.224 87.808C120.106 87.68 120.048 87.5253 120.048 87.344V85.824L120.352 85.792C120.352 86.0267 120.272 86.2827 120.112 86.56C119.952 86.8373 119.733 87.0987 119.456 87.344C119.178 87.5787 118.848 87.776 118.464 87.936C118.09 88.0853 117.685 88.16 117.248 88.16C116.522 88.16 115.872 87.9733 115.296 87.6C114.72 87.216 114.261 86.6987 113.92 86.048C113.589 85.3973 113.424 84.656 113.424 83.824C113.424 82.9813 113.589 82.24 113.92 81.6C114.261 80.9493 114.72 80.4427 115.296 80.08C115.872 79.7067 116.512 79.52 117.216 79.52C117.674 79.52 118.101 79.5947 118.496 79.744C118.89 79.8933 119.232 80.096 119.52 80.352C119.818 80.608 120.048 80.8907 120.208 81.2C120.378 81.5093 120.464 81.8187 120.464 82.128L120.048 82.032V80.288C120.048 80.1067 120.106 79.9573 120.224 79.84C120.341 79.712 120.496 79.648 120.688 79.648ZM117.391 86.976C117.925 86.976 118.394 86.8373 118.8 86.56C119.216 86.2827 119.536 85.9093 119.76 85.44C119.994 84.96 120.112 84.4213 120.112 83.824C120.112 83.2373 119.994 82.7093 119.76 82.24C119.536 81.76 119.216 81.3867 118.8 81.12C118.394 80.8427 117.925 80.704 117.391 80.704C116.869 80.704 116.4 80.8373 115.984 81.104C115.578 81.3707 115.258 81.7387 115.024 82.208C114.789 82.6773 114.672 83.216 114.672 83.824C114.672 84.4213 114.784 84.96 115.008 85.44C115.242 85.9093 115.562 86.2827 115.968 86.56C116.384 86.8373 116.858 86.976 117.391 86.976ZM127.172 79.52C127.63 79.52 128.057 79.6 128.452 79.76C128.846 79.9093 129.188 80.1067 129.476 80.352C129.774 80.5973 130.004 80.8533 130.164 81.12C130.334 81.3867 130.42 81.6373 130.42 81.872L130.116 81.68V80.288C130.116 80.1067 130.174 79.9573 130.292 79.84C130.409 79.712 130.564 79.648 130.756 79.648C130.937 79.648 131.086 79.712 131.204 79.84C131.332 79.9573 131.396 80.1067 131.396 80.288V87.296C131.396 88.1707 131.209 88.896 130.836 89.472C130.473 90.048 129.982 90.48 129.364 90.768C128.745 91.056 128.052 91.2 127.284 91.2C126.964 91.2 126.612 91.1573 126.228 91.072C125.844 90.9867 125.502 90.88 125.204 90.752C124.905 90.6347 124.713 90.512 124.628 90.384C124.468 90.2773 124.366 90.1547 124.324 90.016C124.292 89.888 124.318 89.7653 124.404 89.648C124.5 89.4987 124.622 89.424 124.772 89.424C124.932 89.424 125.129 89.472 125.364 89.568C125.46 89.6 125.609 89.6533 125.812 89.728C126.025 89.8027 126.26 89.8667 126.516 89.92C126.782 89.984 127.044 90.016 127.3 90.016C128.206 90.016 128.9 89.776 129.38 89.296C129.87 88.8267 130.116 88.2027 130.116 87.424V85.936L130.292 86.016C130.228 86.3147 130.094 86.592 129.892 86.848C129.7 87.104 129.46 87.3333 129.172 87.536C128.894 87.728 128.585 87.8827 128.244 88C127.902 88.1067 127.556 88.16 127.204 88.16C126.457 88.16 125.785 87.9733 125.188 87.6C124.59 87.2267 124.116 86.7147 123.764 86.064C123.422 85.4133 123.252 84.672 123.252 83.84C123.252 82.9973 123.422 82.2507 123.764 81.6C124.116 80.9493 124.585 80.4427 125.172 80.08C125.769 79.7067 126.436 79.52 127.172 79.52ZM127.332 80.704C126.788 80.704 126.297 80.8427 125.86 81.12C125.433 81.3867 125.097 81.7547 124.852 82.224C124.617 82.6933 124.5 83.232 124.5 83.84C124.5 84.4267 124.617 84.96 124.852 85.44C125.097 85.9093 125.433 86.2827 125.86 86.56C126.297 86.8373 126.788 86.976 127.332 86.976C127.886 86.976 128.377 86.8427 128.804 86.576C129.23 86.2987 129.566 85.9253 129.812 85.456C130.057 84.9867 130.18 84.448 130.18 83.84C130.18 83.2213 130.057 82.6773 129.812 82.208C129.566 81.7387 129.23 81.3707 128.804 81.104C128.377 80.8373 127.886 80.704 127.332 80.704ZM134.402 88C134.221 88 134.066 87.936 133.938 87.808C133.821 87.68 133.762 87.5253 133.762 87.344V80.368C133.762 80.1867 133.821 80.0373 133.938 79.92C134.066 79.792 134.221 79.728 134.402 79.728C134.594 79.728 134.749 79.792 134.866 79.92C134.983 80.0373 135.042 80.1867 135.042 80.368V82.48L134.85 82.144C134.914 81.8133 135.026 81.4933 135.186 81.184C135.357 80.864 135.57 80.5813 135.826 80.336C136.082 80.08 136.375 79.8827 136.706 79.744C137.037 79.5947 137.399 79.52 137.794 79.52C138.029 79.52 138.242 79.5787 138.434 79.696C138.637 79.8027 138.738 79.9573 138.738 80.16C138.738 80.384 138.679 80.5493 138.562 80.656C138.445 80.7627 138.311 80.816 138.162 80.816C138.023 80.816 137.89 80.7893 137.762 80.736C137.634 80.672 137.474 80.64 137.282 80.64C137.015 80.64 136.749 80.7147 136.482 80.864C136.226 81.0027 135.986 81.2053 135.762 81.472C135.549 81.7387 135.373 82.0427 135.234 82.384C135.106 82.7147 135.042 83.072 135.042 83.456V87.344C135.042 87.5253 134.978 87.68 134.85 87.808C134.733 87.936 134.583 88 134.402 88ZM143.649 88.16C142.795 88.16 142.049 87.9787 141.409 87.616C140.769 87.2533 140.267 86.7573 139.905 86.128C139.553 85.488 139.377 84.752 139.377 83.92C139.377 82.992 139.558 82.2027 139.921 81.552C140.294 80.8907 140.774 80.3893 141.361 80.048C141.958 79.696 142.587 79.52 143.249 79.52C143.739 79.52 144.214 79.6107 144.673 79.792C145.131 79.9733 145.537 80.24 145.889 80.592C146.241 80.9333 146.523 81.3493 146.737 81.84C146.95 82.32 147.062 82.8587 147.073 83.456C147.073 83.6267 147.009 83.7707 146.881 83.888C146.753 84.0053 146.603 84.064 146.433 84.064H140.113L139.825 82.96H145.985L145.729 83.184V82.832C145.686 82.3947 145.537 82.0213 145.281 81.712C145.035 81.392 144.731 81.1467 144.369 80.976C144.017 80.8053 143.643 80.72 143.249 80.72C142.929 80.72 142.609 80.7787 142.289 80.896C141.979 81.0027 141.697 81.184 141.441 81.44C141.195 81.6853 140.993 82.0053 140.833 82.4C140.683 82.7947 140.609 83.2693 140.609 83.824C140.609 84.4427 140.731 84.9867 140.977 85.456C141.233 85.9253 141.585 86.2987 142.033 86.576C142.481 86.8427 143.003 86.976 143.601 86.976C143.974 86.976 144.299 86.928 144.577 86.832C144.854 86.736 145.094 86.6187 145.297 86.48C145.499 86.3307 145.67 86.1813 145.809 86.032C145.947 85.936 146.081 85.888 146.209 85.888C146.369 85.888 146.497 85.9413 146.593 86.048C146.699 86.1547 146.753 86.2827 146.753 86.432C146.753 86.6133 146.667 86.7733 146.497 86.912C146.198 87.2427 145.793 87.536 145.281 87.792C144.769 88.0373 144.225 88.16 143.649 88.16ZM152.821 88.16C151.967 88.16 151.221 87.9787 150.581 87.616C149.941 87.2533 149.439 86.7573 149.077 86.128C148.725 85.488 148.549 84.752 148.549 83.92C148.549 82.992 148.73 82.2027 149.093 81.552C149.466 80.8907 149.946 80.3893 150.533 80.048C151.13 79.696 151.759 79.52 152.421 79.52C152.911 79.52 153.386 79.6107 153.845 79.792C154.303 79.9733 154.709 80.24 155.061 80.592C155.413 80.9333 155.695 81.3493 155.909 81.84C156.122 82.32 156.234 82.8587 156.245 83.456C156.245 83.6267 156.181 83.7707 156.053 83.888C155.925 84.0053 155.775 84.064 155.605 84.064H149.285L148.997 82.96H155.157L154.901 83.184V82.832C154.858 82.3947 154.709 82.0213 154.453 81.712C154.207 81.392 153.903 81.1467 153.541 80.976C153.189 80.8053 152.815 80.72 152.421 80.72C152.101 80.72 151.781 80.7787 151.461 80.896C151.151 81.0027 150.869 81.184 150.613 81.44C150.367 81.6853 150.165 82.0053 150.005 82.4C149.855 82.7947 149.781 83.2693 149.781 83.824C149.781 84.4427 149.903 84.9867 150.149 85.456C150.405 85.9253 150.757 86.2987 151.205 86.576C151.653 86.8427 152.175 86.976 152.773 86.976C153.146 86.976 153.471 86.928 153.749 86.832C154.026 86.736 154.266 86.6187 154.469 86.48C154.671 86.3307 154.842 86.1813 154.981 86.032C155.119 85.936 155.253 85.888 155.381 85.888C155.541 85.888 155.669 85.9413 155.765 86.048C155.871 86.1547 155.925 86.2827 155.925 86.432C155.925 86.6133 155.839 86.7733 155.669 86.912C155.37 87.2427 154.965 87.536 154.453 87.792C153.941 88.0373 153.397 88.16 152.821 88.16ZM162.255 79.776H166.015C166.185 79.776 166.324 79.8347 166.431 79.952C166.548 80.0693 166.607 80.208 166.607 80.368C166.607 80.5387 166.548 80.6827 166.431 80.8C166.324 80.9067 166.185 80.96 166.015 80.96H162.255C162.095 80.96 161.956 80.9013 161.839 80.784C161.721 80.6667 161.663 80.5227 161.663 80.352C161.663 80.192 161.721 80.0587 161.839 79.952C161.956 79.8347 162.095 79.776 162.255 79.776ZM163.935 77.6C164.116 77.6 164.265 77.664 164.383 77.792C164.5 77.9093 164.559 78.0587 164.559 78.24V85.968C164.559 86.224 164.596 86.416 164.671 86.544C164.745 86.672 164.841 86.7627 164.959 86.816C165.087 86.8587 165.209 86.88 165.327 86.88C165.433 86.88 165.524 86.864 165.599 86.832C165.684 86.7893 165.78 86.768 165.887 86.768C165.993 86.768 166.089 86.8213 166.175 86.928C166.271 87.024 166.319 87.152 166.319 87.312C166.319 87.504 166.207 87.6693 165.983 87.808C165.759 87.936 165.508 88 165.231 88C165.081 88 164.895 87.9893 164.671 87.968C164.457 87.9467 164.244 87.8773 164.031 87.76C163.817 87.6427 163.636 87.4507 163.487 87.184C163.348 86.9067 163.279 86.5227 163.279 86.032V78.24C163.279 78.0587 163.343 77.9093 163.471 77.792C163.599 77.664 163.753 77.6 163.935 77.6ZM176.165 83.84C176.165 84.672 175.978 85.4133 175.605 86.064C175.242 86.7147 174.746 87.2267 174.117 87.6C173.498 87.9733 172.8 88.16 172.021 88.16C171.242 88.16 170.538 87.9733 169.909 87.6C169.28 87.2267 168.778 86.7147 168.405 86.064C168.042 85.4133 167.861 84.672 167.861 83.84C167.861 83.008 168.042 82.2667 168.405 81.616C168.778 80.9653 169.28 80.4533 169.909 80.08C170.538 79.7067 171.242 79.52 172.021 79.52C172.8 79.52 173.498 79.7067 174.117 80.08C174.746 80.4533 175.242 80.9653 175.605 81.616C175.978 82.2667 176.165 83.008 176.165 83.84ZM174.885 83.84C174.885 83.2213 174.757 82.6773 174.501 82.208C174.256 81.7387 173.914 81.3707 173.477 81.104C173.05 80.8373 172.565 80.704 172.021 80.704C171.477 80.704 170.986 80.8373 170.549 81.104C170.122 81.3707 169.781 81.7387 169.525 82.208C169.269 82.6773 169.141 83.2213 169.141 83.84C169.141 84.448 169.269 84.9867 169.525 85.456C169.781 85.9253 170.122 86.2987 170.549 86.576C170.986 86.8427 171.477 86.976 172.021 86.976C172.565 86.976 173.05 86.8427 173.477 86.576C173.914 86.2987 174.256 85.9253 174.501 85.456C174.757 84.9867 174.885 84.448 174.885 83.84ZM183.137 88C182.955 88 182.801 87.936 182.673 87.808C182.555 87.68 182.497 87.5253 182.497 87.344V80.368C182.497 80.1867 182.555 80.0373 182.673 79.92C182.801 79.792 182.955 79.728 183.137 79.728C183.329 79.728 183.483 79.792 183.601 79.92C183.718 80.0373 183.777 80.1867 183.777 80.368V82.48L183.585 82.144C183.649 81.8133 183.761 81.4933 183.921 81.184C184.091 80.864 184.305 80.5813 184.561 80.336C184.817 80.08 185.11 79.8827 185.441 79.744C185.771 79.5947 186.134 79.52 186.529 79.52C186.763 79.52 186.977 79.5787 187.169 79.696C187.371 79.8027 187.473 79.9573 187.473 80.16C187.473 80.384 187.414 80.5493 187.297 80.656C187.179 80.7627 187.046 80.816 186.897 80.816C186.758 80.816 186.625 80.7893 186.497 80.736C186.369 80.672 186.209 80.64 186.016 80.64C185.75 80.64 185.483 80.7147 185.217 80.864C184.961 81.0027 184.721 81.2053 184.497 81.472C184.283 81.7387 184.107 82.0427 183.969 82.384C183.841 82.7147 183.777 83.072 183.777 83.456V87.344C183.777 87.5253 183.713 87.68 183.585 87.808C183.467 87.936 183.318 88 183.137 88ZM192.383 88.16C191.53 88.16 190.783 87.9787 190.143 87.616C189.503 87.2533 189.002 86.7573 188.639 86.128C188.287 85.488 188.111 84.752 188.111 83.92C188.111 82.992 188.292 82.2027 188.655 81.552C189.028 80.8907 189.508 80.3893 190.095 80.048C190.692 79.696 191.322 79.52 191.983 79.52C192.474 79.52 192.948 79.6107 193.407 79.792C193.866 79.9733 194.271 80.24 194.623 80.592C194.975 80.9333 195.258 81.3493 195.471 81.84C195.684 82.32 195.796 82.8587 195.807 83.456C195.807 83.6267 195.743 83.7707 195.615 83.888C195.487 84.0053 195.338 84.064 195.167 84.064H188.847L188.559 82.96H194.719L194.463 83.184V82.832C194.42 82.3947 194.271 82.0213 194.015 81.712C193.77 81.392 193.466 81.1467 193.103 80.976C192.751 80.8053 192.378 80.72 191.983 80.72C191.663 80.72 191.343 80.7787 191.023 80.896C190.714 81.0027 190.431 81.184 190.175 81.44C189.93 81.6853 189.727 82.0053 189.567 82.4C189.418 82.7947 189.343 83.2693 189.343 83.824C189.343 84.4427 189.466 84.9867 189.711 85.456C189.967 85.9253 190.319 86.2987 190.767 86.576C191.215 86.8427 191.738 86.976 192.335 86.976C192.708 86.976 193.034 86.928 193.311 86.832C193.588 86.736 193.828 86.6187 194.031 86.48C194.234 86.3307 194.404 86.1813 194.543 86.032C194.682 85.936 194.815 85.888 194.943 85.888C195.103 85.888 195.231 85.9413 195.327 86.048C195.434 86.1547 195.487 86.2827 195.487 86.432C195.487 86.6133 195.402 86.7733 195.231 86.912C194.932 87.2427 194.527 87.536 194.015 87.792C193.503 88.0373 192.959 88.16 192.383 88.16ZM201.187 76.192C201.368 76.192 201.555 76.2133 201.747 76.256C201.95 76.2987 202.12 76.3733 202.259 76.48C202.408 76.5867 202.483 76.7307 202.483 76.912C202.483 77.0827 202.43 77.2267 202.323 77.344C202.216 77.4507 202.088 77.504 201.939 77.504C201.843 77.504 201.71 77.4773 201.539 77.424C201.368 77.36 201.192 77.328 201.011 77.328C200.766 77.328 200.563 77.3813 200.403 77.488C200.254 77.5947 200.142 77.7387 200.067 77.92C200.003 78.0907 199.971 78.2827 199.971 78.496V87.344C199.971 87.5253 199.907 87.68 199.779 87.808C199.662 87.936 199.512 88 199.331 88C199.139 88 198.984 87.936 198.867 87.808C198.75 87.68 198.691 87.5253 198.691 87.344V78.512C198.691 77.7973 198.91 77.232 199.347 76.816C199.795 76.4 200.408 76.192 201.187 76.192ZM201.635 79.856C201.806 79.856 201.95 79.9147 202.067 80.032C202.184 80.1387 202.243 80.2773 202.243 80.448C202.243 80.6187 202.184 80.7627 202.067 80.88C201.95 80.9867 201.806 81.04 201.635 81.04H197.619C197.448 81.04 197.304 80.9813 197.187 80.864C197.07 80.7467 197.011 80.608 197.011 80.448C197.011 80.2667 197.07 80.1227 197.187 80.016C197.304 79.9093 197.448 79.856 197.619 79.856H201.635ZM210.095 79.728C210.287 79.728 210.441 79.792 210.559 79.92C210.676 80.0373 210.735 80.1867 210.735 80.368V84.736C210.735 85.8133 210.431 86.6507 209.823 87.248C209.225 87.8347 208.388 88.128 207.311 88.128C206.244 88.128 205.407 87.8347 204.799 87.248C204.201 86.6507 203.903 85.8133 203.903 84.736V80.368C203.903 80.1867 203.961 80.0373 204.079 79.92C204.207 79.792 204.361 79.728 204.543 79.728C204.735 79.728 204.889 79.792 205.007 79.92C205.124 80.0373 205.183 80.1867 205.183 80.368V84.736C205.183 85.4613 205.369 86.0107 205.743 86.384C206.116 86.7573 206.639 86.944 207.311 86.944C208.004 86.944 208.532 86.7573 208.895 86.384C209.268 86.0107 209.455 85.4613 209.455 84.736V80.368C209.455 80.1867 209.513 80.0373 209.631 79.92C209.759 79.792 209.913 79.728 210.095 79.728ZM217.218 79.52C217.943 79.52 218.514 79.6693 218.93 79.968C219.346 80.2667 219.639 80.6667 219.81 81.168C219.991 81.6693 220.082 82.2293 220.082 82.848V87.344C220.082 87.5253 220.018 87.68 219.89 87.808C219.773 87.936 219.623 88 219.442 88C219.261 88 219.106 87.936 218.978 87.808C218.861 87.68 218.802 87.5253 218.802 87.344V82.88C218.802 82.4747 218.738 82.112 218.61 81.792C218.493 81.4613 218.29 81.2 218.002 81.008C217.725 80.8053 217.341 80.704 216.85 80.704C216.402 80.704 215.991 80.8053 215.618 81.008C215.245 81.2 214.946 81.4613 214.722 81.792C214.498 82.112 214.386 82.4747 214.386 82.88V87.344C214.386 87.5253 214.322 87.68 214.194 87.808C214.077 87.936 213.927 88 213.746 88C213.565 88 213.41 87.936 213.282 87.808C213.165 87.68 213.106 87.5253 213.106 87.344V80.368C213.106 80.1867 213.165 80.0373 213.282 79.92C213.41 79.792 213.565 79.728 213.746 79.728C213.938 79.728 214.093 79.792 214.21 79.92C214.327 80.0373 214.386 80.1867 214.386 80.368V81.504L214.066 81.856C214.119 81.5787 214.242 81.3013 214.434 81.024C214.626 80.736 214.866 80.48 215.154 80.256C215.442 80.032 215.762 79.856 216.114 79.728C216.466 79.5893 216.834 79.52 217.218 79.52ZM229.266 76.16C229.447 76.16 229.596 76.224 229.714 76.352C229.842 76.4693 229.906 76.6187 229.906 76.8V87.344C229.906 87.5253 229.842 87.68 229.714 87.808C229.596 87.936 229.447 88 229.266 88C229.074 88 228.919 87.936 228.802 87.808C228.684 87.68 228.626 87.5253 228.626 87.344V85.824L228.93 85.712C228.93 85.968 228.85 86.24 228.69 86.528C228.53 86.8053 228.311 87.0667 228.034 87.312C227.756 87.5573 227.426 87.76 227.042 87.92C226.668 88.08 226.263 88.16 225.826 88.16C225.111 88.16 224.46 87.9733 223.874 87.6C223.298 87.2267 222.839 86.7147 222.498 86.064C222.167 85.4133 222.002 84.672 222.002 83.84C222.002 82.9973 222.167 82.2507 222.498 81.6C222.839 80.9493 223.298 80.4427 223.874 80.08C224.45 79.7067 225.09 79.52 225.794 79.52C226.242 79.52 226.663 79.5947 227.058 79.744C227.452 79.8933 227.794 80.096 228.082 80.352C228.38 80.608 228.615 80.8907 228.786 81.2C228.956 81.5093 229.042 81.8187 229.042 82.128L228.626 82.032V76.8C228.626 76.6187 228.684 76.4693 228.802 76.352C228.919 76.224 229.074 76.16 229.266 76.16ZM225.97 86.976C226.503 86.976 226.972 86.8427 227.378 86.576C227.794 86.2987 228.114 85.9253 228.338 85.456C228.572 84.976 228.69 84.4373 228.69 83.84C228.69 83.232 228.572 82.6933 228.338 82.224C228.114 81.7547 227.794 81.3867 227.378 81.12C226.972 80.8427 226.503 80.704 225.97 80.704C225.447 80.704 224.978 80.8427 224.562 81.12C224.156 81.3867 223.836 81.7547 223.602 82.224C223.367 82.6933 223.25 83.232 223.25 83.84C223.25 84.4267 223.367 84.96 223.602 85.44C223.836 85.9093 224.156 86.2827 224.562 86.56C224.978 86.8373 225.447 86.976 225.97 86.976ZM237.916 87.344C237.916 87.5253 237.852 87.68 237.724 87.808C237.607 87.936 237.457 88 237.276 88C237.084 88 236.929 87.936 236.812 87.808C236.695 87.68 236.636 87.5253 236.636 87.344V80.24C236.636 80.0587 236.695 79.9093 236.812 79.792C236.94 79.664 237.095 79.6 237.276 79.6C237.457 79.6 237.607 79.664 237.724 79.792C237.852 79.9093 237.916 80.0587 237.916 80.24V87.344ZM237.276 78.528C237.009 78.528 236.812 78.4747 236.684 78.368C236.556 78.2613 236.492 78.096 236.492 77.872V77.648C236.492 77.424 236.561 77.2587 236.7 77.152C236.839 77.0453 237.036 76.992 237.292 76.992C237.548 76.992 237.74 77.0453 237.868 77.152C237.996 77.2587 238.06 77.424 238.06 77.648V77.872C238.06 78.096 237.991 78.2613 237.852 78.368C237.724 78.4747 237.532 78.528 237.276 78.528ZM239.895 79.776H243.655C243.826 79.776 243.965 79.8347 244.071 79.952C244.189 80.0693 244.247 80.208 244.247 80.368C244.247 80.5387 244.189 80.6827 244.071 80.8C243.965 80.9067 243.826 80.96 243.655 80.96H239.895C239.735 80.96 239.597 80.9013 239.479 80.784C239.362 80.6667 239.303 80.5227 239.303 80.352C239.303 80.192 239.362 80.0587 239.479 79.952C239.597 79.8347 239.735 79.776 239.895 79.776ZM241.575 77.6C241.757 77.6 241.906 77.664 242.023 77.792C242.141 77.9093 242.199 78.0587 242.199 78.24V85.968C242.199 86.224 242.237 86.416 242.311 86.544C242.386 86.672 242.482 86.7627 242.599 86.816C242.727 86.8587 242.85 86.88 242.967 86.88C243.074 86.88 243.165 86.864 243.239 86.832C243.325 86.7893 243.421 86.768 243.527 86.768C243.634 86.768 243.73 86.8213 243.815 86.928C243.911 87.024 243.959 87.152 243.959 87.312C243.959 87.504 243.847 87.6693 243.623 87.808C243.399 87.936 243.149 88 242.871 88C242.722 88 242.535 87.9893 242.311 87.968C242.098 87.9467 241.885 87.8773 241.671 87.76C241.458 87.6427 241.277 87.4507 241.127 87.184C240.989 86.9067 240.919 86.5227 240.919 86.032V78.24C240.919 78.0587 240.983 77.9093 241.111 77.792C241.239 77.664 241.394 77.6 241.575 77.6Z" fill="#ADADAD"/>
<defs>
<linearGradient id="paint0_linear_92_1165" x1="46" y1="66.6641" x2="46" y2="45.3359" gradientUnits="userSpaceOnUse">
<stop stop-color="#C3FFE8"/>
<stop offset="0.9973" stop-color="#F0FFF4"/>
</linearGradient>
<linearGradient id="paint1_linear_92_1165" x1="46" y1="82" x2="46" y2="30" gradientUnits="userSpaceOnUse">
<stop stop-color="#00B59C"/>
<stop offset="1" stop-color="#9CFFAC"/>
</linearGradient>
</defs>
</svg>
