<?xml version="1.0" standalone="no"?>
<!DOCTYPE svg PUBLIC "-//W3C//DTD SVG 20010904//EN"
 "http://www.w3.org/TR/2001/REC-SVG-20010904/DTD/svg10.dtd">
<svg version="1.0" xmlns="http://www.w3.org/2000/svg"
 width="640.000000pt" height="640.000000pt" viewBox="0 0 640.000000 640.000000"
 preserveAspectRatio="xMidYMid meet">
<metadata>
Created by potrace 1.14, written by Peter Selinger 2001-2017
</metadata>
<g transform="translate(0.000000,640.000000) scale(0.100000,-0.100000)"
fill="#000000" stroke="none">
<path d="M1000 6112 c-47 -20 -86 -37 -88 -38 -1 -1 7 -26 19 -55 11 -30 22
-58 23 -64 2 -5 7 -21 13 -35 33 -77 51 -125 48 -129 -4 -3 -27 21 -147 150
-14 16 -30 29 -35 29 -14 0 -135 -118 -132 -129 4 -9 151 -171 245 -268 l42
-43 -21 -28 c-12 -15 -27 -33 -34 -40 -6 -6 -15 -21 -18 -32 -3 -11 -11 -20
-16 -20 -5 0 -9 -9 -9 -19 0 -11 -4 -22 -9 -25 -18 -11 -44 -141 -44 -216 0
-103 22 -168 115 -349 93 -179 131 -252 142 -269 5 -9 17 -7 46 8 22 11 41 20
43 20 2 0 15 -21 28 -47 13 -27 26 -50 29 -53 3 -3 15 -25 26 -50 l22 -46 -33
4 c-25 3 -40 -3 -66 -26 l-34 -30 0 -1043 0 -1044 45 0 45 0 3 -98 c3 -95 2
-97 -20 -97 -35 -1 -97 -10 -161 -24 -40 -9 -54 -10 -48 -2 5 6 9 13 9 16 1 3
5 18 11 33 14 36 11 40 -43 61 -25 10 -62 26 -83 36 l-38 18 -14 -31 c-8 -18
-15 -34 -15 -37 -5 -25 -103 -239 -116 -254 -17 -17 -23 -13 -168 132 l-150
151 -52 -55 c-28 -30 -55 -54 -61 -54 -8 0 -10 -5 -13 -30 -1 -5 63 -74 142
-153 104 -105 141 -149 136 -161 -6 -15 -17 -20 -36 -17 -5 0 -8 -4 -8 -9 0
-6 -5 -10 -11 -10 -11 0 -20 -3 -156 -64 -45 -20 -87 -36 -92 -36 -22 0 -19
-22 15 -101 19 -46 37 -85 39 -87 2 -2 16 3 32 11 15 8 39 18 52 22 23 7 24 6
17 -26 -4 -19 -10 -47 -14 -64 -9 -41 -8 -230 1 -287 26 -161 122 -352 238
-468 45 -45 97 -90 104 -90 3 0 14 -8 25 -18 31 -29 129 -77 215 -107 87 -30
100 -33 191 -44 253 -30 546 75 716 257 26 28 52 53 57 56 5 4 17 -18 26 -46
76 -233 319 -336 536 -228 9 5 21 4 26 -1 14 -14 141 -44 178 -43 53 3 109 15
152 34 22 10 45 14 50 10 7 -7 69 -30 103 -37 33 -8 128 -4 167 6 84 23 202
109 218 161 3 11 10 20 14 20 5 0 21 39 36 88 15 48 33 106 41 130 8 23 14 49
14 57 0 9 10 15 23 16 67 4 149 0 155 -6 4 -4 7 -25 7 -48 l0 -42 848 0 849 0
29 33 29 32 0 1781 c0 1660 -1 1783 -17 1810 -17 28 -16 32 131 473 81 244
149 450 150 458 21 108 25 182 13 258 -4 30 -9 62 -11 70 -1 9 -5 21 -10 28
-4 6 -5 12 -2 12 10 0 -55 142 -89 194 -104 156 -255 256 -449 296 -109 22
-208 18 -351 -15 -33 -7 -149 -56 -165 -69 -8 -6 -28 -18 -44 -26 -34 -18
-141 -120 -180 -173 -43 -59 -89 -167 -147 -349 -30 -93 -58 -168 -64 -168 -5
0 -23 12 -40 26 -16 14 -37 31 -46 38 -21 14 -59 89 -59 116 0 17 6 20 41 20
l41 0 -5 73 c-14 190 -47 284 -133 376 -72 77 -186 143 -274 157 -57 10 -171
11 -176 3 -3 -5 -10 -7 -15 -3 -9 5 -139 -33 -149 -45 -3 -3 -21 -14 -40 -25
-82 -44 -192 -185 -207 -265 -2 -13 -6 -27 -8 -31 -2 -3 -7 -40 -11 -81 -3
-40 -8 -77 -11 -81 -2 -5 -23 2 -46 15 -49 26 -113 50 -142 52 -65 4 -119 56
-150 145 -14 39 -87 158 -105 170 -21 14 -75 56 -85 67 -14 13 -135 74 -135
67 0 -2 -12 1 -27 7 -46 18 -182 20 -248 3 -71 -18 -135 -45 -135 -56 0 -4 -6
-8 -14 -8 -16 0 -146 -119 -146 -134 0 -5 -8 -19 -18 -30 -11 -12 -31 -52 -47
-91 -22 -57 -27 -87 -28 -160 -2 -84 1 -110 18 -168 6 -21 6 -20 -11 3 -20 29
-100 106 -141 135 -50 37 -179 85 -226 85 -14 0 -29 5 -33 12 -4 7 -7 60 -6
118 2 58 2 125 1 150 -1 25 -1 50 0 55 0 6 2 30 3 55 l3 46 -96 2 c-85 2 -97
0 -100 -15 -3 -10 -4 -71 -4 -135 0 -65 -3 -118 -7 -118 -5 0 -8 6 -8 13 0 11
-37 108 -98 258 -6 14 -18 11 -92 -19z"/>
</g>
</svg>
