<svg width="840" height="364" viewBox="0 0 840 364" fill="none" xmlns="http://www.w3.org/2000/svg">
<rect x="461" y="100" width="40" height="264" rx="20" fill="#F5F7FB"/>
<path d="M696.665 20L697.506 17.4893H701.334L702.179 20H704.148L700.558 9.81818H698.281L694.697 20H696.665ZM698.003 16.0078L699.38 11.9062H699.459L700.836 16.0078H698.003ZM708.01 20.1342C709.323 20.1342 709.915 19.3537 710.198 18.7969H710.307V20H712.077V9.81818H710.273V13.6264H710.198C709.925 13.0746 709.363 12.2642 708.015 12.2642C706.251 12.2642 704.863 13.6463 704.863 16.1918C704.863 18.7074 706.211 20.1342 708.01 20.1342ZM708.513 18.6577C707.324 18.6577 706.698 17.6136 706.698 16.1818C706.698 14.7599 707.314 13.7408 708.513 13.7408C709.671 13.7408 710.307 14.7003 710.307 16.1818C710.307 17.6634 709.661 18.6577 708.513 18.6577ZM720.816 12.3636H718.902L717.142 18.0362H717.062L715.308 12.3636H713.388L716.108 20H718.097L720.816 12.3636ZM724.04 20.1541C725.238 20.1541 725.954 19.5923 726.282 18.951H726.342V20H728.072V14.8892C728.072 12.8707 726.426 12.2642 724.97 12.2642C723.364 12.2642 722.131 12.9801 721.733 14.3722L723.414 14.6108C723.593 14.0888 724.1 13.6413 724.98 13.6413C725.815 13.6413 726.272 14.0689 726.272 14.8196V14.8494C726.272 15.3665 725.73 15.3913 724.383 15.5355C722.902 15.6946 721.485 16.1371 721.485 17.8572C721.485 19.3587 722.583 20.1541 724.04 20.1541ZM724.507 18.8317C723.757 18.8317 723.22 18.4886 723.22 17.8274C723.22 17.1364 723.821 16.848 724.627 16.7337C725.099 16.669 726.044 16.5497 726.277 16.3608V17.2607C726.277 18.1108 725.591 18.8317 724.507 18.8317ZM731.681 15.5256C731.681 14.4219 732.348 13.7855 733.297 13.7855C734.227 13.7855 734.784 14.397 734.784 15.4162V20H736.583V15.1378C736.588 13.3082 735.544 12.2642 733.968 12.2642C732.825 12.2642 732.039 12.8111 731.691 13.6612H731.602V12.3636H729.882V20H731.681V15.5256ZM741.744 20.1491C743.663 20.1491 744.886 19.0107 745.015 17.3899H743.295C743.141 18.2102 742.549 18.6825 741.759 18.6825C740.635 18.6825 739.909 17.7429 739.909 16.1818C739.909 14.6406 740.65 13.7159 741.759 13.7159C742.624 13.7159 743.156 14.2727 743.295 15.0085H745.015C744.891 13.353 743.598 12.2642 741.734 12.2642C739.497 12.2642 738.085 13.88 738.085 16.2116C738.085 18.5234 739.462 20.1491 741.744 20.1491ZM749.874 20.1491C751.654 20.1491 752.877 19.2791 753.195 17.9517L751.514 17.7628C751.271 18.4091 750.674 18.7472 749.899 18.7472C748.735 18.7472 747.965 17.9815 747.95 16.674H753.269V16.1222C753.269 13.4425 751.659 12.2642 749.779 12.2642C747.592 12.2642 746.165 13.87 746.165 16.2266C746.165 18.6229 747.572 20.1491 749.874 20.1491ZM747.955 15.4609C748.009 14.4865 748.73 13.6662 749.804 13.6662C750.838 13.6662 751.534 14.4219 751.544 15.4609H747.955ZM757.626 20.1342C758.938 20.1342 759.53 19.3537 759.813 18.7969H759.923V20H761.692V9.81818H759.888V13.6264H759.813C759.54 13.0746 758.978 12.2642 757.631 12.2642C755.866 12.2642 754.479 13.6463 754.479 16.1918C754.479 18.7074 755.826 20.1342 757.626 20.1342ZM758.128 18.6577C756.94 18.6577 756.313 17.6136 756.313 16.1818C756.313 14.7599 756.93 13.7408 758.128 13.7408C759.286 13.7408 759.923 14.7003 759.923 16.1818C759.923 17.6634 759.276 18.6577 758.128 18.6577ZM767.162 20H769.007V16.2713H770.886L772.885 20H774.943L772.741 15.9631C773.939 15.4808 774.57 14.4567 774.57 13.0746C774.57 11.1307 773.317 9.81818 770.981 9.81818H767.162V20ZM769.007 14.7401V11.3594H770.697C772.074 11.3594 772.691 11.9908 772.691 13.0746C772.691 14.1584 772.074 14.7401 770.707 14.7401H769.007ZM779.46 20.1491C781.24 20.1491 782.463 19.2791 782.781 17.9517L781.1 17.7628C780.857 18.4091 780.26 18.7472 779.485 18.7472C778.321 18.7472 777.551 17.9815 777.536 16.674H782.855V16.1222C782.855 13.4425 781.244 12.2642 779.365 12.2642C777.178 12.2642 775.751 13.87 775.751 16.2266C775.751 18.6229 777.158 20.1491 779.46 20.1491ZM777.541 15.4609C777.595 14.4865 778.316 13.6662 779.39 13.6662C780.424 13.6662 781.12 14.4219 781.13 15.4609H777.541ZM784.378 22.8636H786.178V18.7969H786.252C786.536 19.3537 787.127 20.1342 788.44 20.1342C790.239 20.1342 791.587 18.7074 791.587 16.1918C791.587 13.6463 790.2 12.2642 788.435 12.2642C787.087 12.2642 786.526 13.0746 786.252 13.6264H786.148V12.3636H784.378V22.8636ZM786.143 16.1818C786.143 14.7003 786.779 13.7408 787.938 13.7408C789.136 13.7408 789.752 14.7599 789.752 16.1818C789.752 17.6136 789.126 18.6577 787.938 18.6577C786.789 18.6577 786.143 17.6634 786.143 16.1818ZM796.459 20.1491C798.696 20.1491 800.118 18.5732 800.118 16.2116C800.118 13.8452 798.696 12.2642 796.459 12.2642C794.222 12.2642 792.8 13.8452 792.8 16.2116C792.8 18.5732 794.222 20.1491 796.459 20.1491ZM796.469 18.7074C795.231 18.7074 794.624 17.6037 794.624 16.2067C794.624 14.8097 795.231 13.6911 796.469 13.6911C797.687 13.6911 798.293 14.8097 798.293 16.2067C798.293 17.6037 797.687 18.7074 796.469 18.7074ZM801.645 20H803.445V15.5107C803.445 14.5412 804.176 13.8551 805.165 13.8551C805.469 13.8551 805.846 13.9098 806.001 13.9595V12.304C805.836 12.2741 805.553 12.2543 805.354 12.2543C804.479 12.2543 803.748 12.7514 803.47 13.6364H803.39V12.3636H801.645V20ZM811.42 12.3636H809.913V10.5341H808.113V12.3636H807.03V13.7557H808.113V18.0014C808.104 19.4382 809.148 20.1442 810.5 20.1044C811.012 20.0895 811.365 19.9901 811.559 19.9254L811.256 18.5185C811.156 18.5433 810.952 18.5881 810.729 18.5881C810.276 18.5881 809.913 18.429 809.913 17.7031V13.7557H811.42V12.3636Z" fill="#555F7E"/>
<path d="M827.333 15.9999H836.667M836.667 15.9999L832 11.3333M836.667 15.9999L832 20.6666" stroke="#8E95A9" stroke-width="2" stroke-linecap="round" stroke-linejoin="round"/>
<path d="M150.393 345H157.095V343.683H152.511V343.608L154.535 341.49C156.399 339.606 156.931 338.706 156.931 337.567C156.931 335.932 155.599 334.679 153.68 334.679C151.776 334.679 150.384 335.912 150.384 337.771H151.85C151.845 336.678 152.551 335.962 153.65 335.962C154.684 335.962 155.469 336.598 155.469 337.612C155.469 338.512 154.933 339.158 153.839 340.317L150.393 343.886V345ZM158.979 345H165.681V343.683H161.097V343.608L163.121 341.49C164.985 339.606 165.517 338.706 165.517 337.567C165.517 335.932 164.185 334.679 162.266 334.679C160.362 334.679 158.969 335.912 158.969 337.771H160.436C160.431 336.678 161.137 335.962 162.236 335.962C163.27 335.962 164.055 336.598 164.055 337.612C164.055 338.512 163.518 339.158 162.425 340.317L158.979 343.886V345Z" fill="#8E95A9"/>
<path d="M96.1679 345H102.87V343.683H98.2858V343.608L100.309 341.49C102.174 339.606 102.706 338.706 102.706 337.567C102.706 335.932 101.373 334.679 99.4541 334.679C97.55 334.679 96.1579 335.912 96.1579 337.771H97.6246C97.6196 336.678 98.3256 335.962 99.4243 335.962C100.458 335.962 101.244 336.598 101.244 337.612C101.244 338.512 100.707 339.158 99.6132 340.317L96.1679 343.886V345ZM108.299 345.169C110.65 345.169 112.027 343.25 112.027 339.914C112.027 336.603 110.63 334.679 108.299 334.679C105.962 334.679 104.57 336.598 104.565 339.914C104.565 343.245 105.942 345.164 108.299 345.169ZM108.299 343.842C106.921 343.842 106.091 342.46 106.091 339.914C106.096 337.379 106.926 335.982 108.299 335.982C109.666 335.982 110.501 337.379 110.501 339.914C110.501 342.46 109.671 343.842 108.299 343.842Z" fill="#8E95A9"/>
<path d="M204.216 345H210.917V343.683H206.334V343.608L208.357 341.49C210.221 339.606 210.753 338.706 210.753 337.567C210.753 335.932 209.421 334.679 207.502 334.679C205.598 334.679 204.206 335.912 204.206 337.771H205.672C205.667 336.678 206.373 335.962 207.472 335.962C208.506 335.962 209.292 336.598 209.292 337.612C209.292 338.512 208.755 339.158 207.661 340.317L204.216 343.886V345ZM212.369 343.011H217.197V345H218.663V343.011H220.01V341.709H218.663V334.818H216.769L212.369 341.768V343.011ZM217.206 341.709H213.98V341.629L217.127 336.648H217.206V341.709Z" fill="#8E95A9"/>
<path d="M258.236 345H264.938V343.683H260.354V343.608L262.378 341.49C264.242 339.606 264.774 338.706 264.774 337.567C264.774 335.932 263.441 334.679 261.522 334.679C259.618 334.679 258.226 335.912 258.226 337.771H259.693C259.688 336.678 260.394 335.962 261.493 335.962C262.527 335.962 263.312 336.598 263.312 337.612C263.312 338.512 262.775 339.158 261.682 340.317L258.236 343.886V345ZM270.377 345.139C272.505 345.159 273.917 343.628 273.912 341.674C273.917 339.725 272.5 338.328 270.735 338.328C269.661 338.328 268.731 338.845 268.209 339.705H268.135C268.14 337.369 269.015 336.001 270.506 336.001C271.486 336.001 272.102 336.593 272.311 337.463H273.827C273.593 335.827 272.326 334.654 270.506 334.654C268.14 334.654 266.663 336.688 266.663 340.252C266.663 344.001 268.567 345.124 270.377 345.139ZM270.372 343.847C269.189 343.847 268.324 342.852 268.324 341.709C268.329 340.57 269.233 339.576 270.407 339.576C271.57 339.576 272.425 340.516 272.42 341.694C272.425 342.897 271.535 343.847 270.372 343.847Z" fill="#8E95A9"/>
<path d="M312.264 345H318.965V343.683H314.381V343.608L316.405 341.49C318.269 339.606 318.801 338.706 318.801 337.567C318.801 335.932 317.469 334.679 315.55 334.679C313.646 334.679 312.254 335.912 312.254 337.771H313.72C313.715 336.678 314.421 335.962 315.52 335.962C316.554 335.962 317.34 336.598 317.34 337.612C317.34 338.512 316.803 339.158 315.709 340.317L312.264 343.886V345ZM324.29 345.139C326.408 345.139 327.904 343.936 327.914 342.286C327.904 341.003 327.004 339.924 325.866 339.72V339.661C326.855 339.422 327.526 338.492 327.536 337.393C327.526 335.837 326.154 334.679 324.29 334.679C322.406 334.679 321.033 335.837 321.043 337.393C321.033 338.487 321.705 339.422 322.714 339.661V339.72C321.555 339.924 320.656 341.003 320.666 342.286C320.656 343.936 322.152 345.139 324.29 345.139ZM324.29 343.881C323.017 343.881 322.212 343.205 322.222 342.186C322.212 341.127 323.087 340.371 324.29 340.371C325.473 340.371 326.348 341.127 326.358 342.186C326.348 343.205 325.548 343.881 324.29 343.881ZM324.29 339.143C323.261 339.143 322.53 338.492 322.54 337.523C322.53 336.568 323.236 335.937 324.29 335.937C325.324 335.937 326.03 336.568 326.04 337.523C326.03 338.492 325.304 339.143 324.29 339.143Z" fill="#8E95A9"/>
<path d="M369.994 345.139C372.072 345.139 373.598 343.896 373.593 342.206C373.598 340.918 372.818 339.994 371.465 339.785V339.705C372.529 339.432 373.22 338.597 373.215 337.453C373.22 335.957 371.992 334.679 370.034 334.679C368.164 334.679 366.663 335.808 366.613 337.463H368.1C368.134 336.528 369.014 335.962 370.014 335.962C371.053 335.962 371.734 336.593 371.729 337.533C371.734 338.517 370.943 339.163 369.815 339.163H368.955V340.416H369.815C371.227 340.416 372.042 341.132 372.042 342.156C372.042 343.146 371.182 343.817 369.984 343.817C368.88 343.817 368.02 343.25 367.96 342.345H366.399C366.464 344.006 367.936 345.139 369.994 345.139ZM379.017 345.169C381.369 345.169 382.746 343.25 382.746 339.914C382.746 336.603 381.349 334.679 379.017 334.679C376.681 334.679 375.289 336.598 375.284 339.914C375.284 343.245 376.661 345.164 379.017 345.169ZM379.017 343.842C377.64 343.842 376.81 342.46 376.81 339.914C376.815 337.379 377.645 335.982 379.017 335.982C380.384 335.982 381.22 337.379 381.22 339.914C381.22 342.46 380.389 343.842 379.017 343.842Z" fill="#8E95A9"/>
<path d="M423.713 345.169C426.064 345.169 427.441 343.25 427.441 339.914C427.441 336.603 426.044 334.679 423.713 334.679C421.376 334.679 419.984 336.598 419.979 339.914C419.979 343.245 421.356 345.164 423.713 345.169ZM423.713 343.842C422.335 343.842 421.505 342.46 421.505 339.914C421.51 337.379 422.34 335.982 423.713 335.982C425.08 335.982 425.915 337.379 425.915 339.914C425.915 342.46 425.085 343.842 423.713 343.842ZM429.205 345H435.907V343.683H431.323V343.608L433.346 341.49C435.211 339.606 435.743 338.706 435.743 337.567C435.743 335.932 434.41 334.679 432.491 334.679C430.587 334.679 429.195 335.912 429.195 337.771H430.662C430.657 336.678 431.363 335.962 432.461 335.962C433.495 335.962 434.281 336.598 434.281 337.612C434.281 338.512 433.744 339.158 432.65 340.317L429.205 343.886V345Z" fill="#8E95A9"/>
<path d="M477.926 345.169C480.277 345.169 481.654 343.25 481.654 339.914C481.654 336.603 480.257 334.679 477.926 334.679C475.589 334.679 474.197 336.598 474.192 339.914C474.192 343.245 475.569 345.164 477.926 345.169ZM477.926 343.842C476.548 343.842 475.718 342.46 475.718 339.914C475.723 337.379 476.553 335.982 477.926 335.982C479.293 335.982 480.128 337.379 480.128 339.914C480.128 342.46 479.298 343.842 477.926 343.842ZM483.204 343.011H488.032V345H489.498V343.011H490.845V341.709H489.498V334.818H487.604L483.204 341.768V343.011ZM488.041 341.709H484.815V341.629L487.962 336.648H488.041V341.709Z" fill="#8E95A9"/>
<path d="M531.555 345.169C533.907 345.169 535.284 343.25 535.284 339.914C535.284 336.603 533.887 334.679 531.555 334.679C529.219 334.679 527.827 336.598 527.822 339.914C527.822 343.245 529.199 345.164 531.555 345.169ZM531.555 343.842C530.178 343.842 529.348 342.46 529.348 339.914C529.353 337.379 530.183 335.982 531.555 335.982C532.923 335.982 533.758 337.379 533.758 339.914C533.758 342.46 532.928 343.842 531.555 343.842ZM540.602 345.139C542.73 345.159 544.142 343.628 544.137 341.674C544.142 339.725 542.725 338.328 540.96 338.328C539.887 338.328 538.957 338.845 538.435 339.705H538.36C538.365 337.369 539.24 336.001 540.732 336.001C541.711 336.001 542.328 336.593 542.536 337.463H544.053C543.819 335.827 542.551 334.654 540.732 334.654C538.365 334.654 536.889 336.688 536.889 340.252C536.889 344.001 538.793 345.124 540.602 345.139ZM540.597 343.847C539.414 343.847 538.549 342.852 538.549 341.709C538.554 340.57 539.459 339.576 540.632 339.576C541.796 339.576 542.651 340.516 542.646 341.694C542.651 342.897 541.761 343.847 540.597 343.847Z" fill="#8E95A9"/>
<path d="M584.583 345.169C586.934 345.169 588.311 343.25 588.311 339.914C588.311 336.603 586.914 334.679 584.583 334.679C582.246 334.679 580.854 336.598 580.849 339.914C580.849 343.245 582.226 345.164 584.583 345.169ZM584.583 343.842C583.206 343.842 582.375 342.46 582.375 339.914C582.38 337.379 583.211 335.982 584.583 335.982C585.95 335.982 586.785 337.379 586.785 339.914C586.785 342.46 585.955 343.842 584.583 343.842ZM593.515 345.139C595.633 345.139 597.13 343.936 597.14 342.286C597.13 341.003 596.23 339.924 595.091 339.72V339.661C596.081 339.422 596.752 338.492 596.762 337.393C596.752 335.837 595.38 334.679 593.515 334.679C591.631 334.679 590.259 335.837 590.269 337.393C590.259 338.487 590.93 339.422 591.939 339.661V339.72C590.781 339.924 589.881 341.003 589.891 342.286C589.881 343.936 591.378 345.139 593.515 345.139ZM593.515 343.881C592.243 343.881 591.437 343.205 591.447 342.186C591.437 341.127 592.312 340.371 593.515 340.371C594.699 340.371 595.574 341.127 595.584 342.186C595.574 343.205 594.773 343.881 593.515 343.881ZM593.515 339.143C592.486 339.143 591.756 338.492 591.765 337.523C591.756 336.568 592.461 335.937 593.515 335.937C594.55 335.937 595.256 336.568 595.265 337.523C595.256 338.492 594.53 339.143 593.515 339.143Z" fill="#8E95A9"/>
<path d="M641.015 334.818H639.519L636.978 336.479V337.95L639.414 336.359H639.474V345H641.015V334.818ZM647.314 345.169C649.666 345.169 651.043 343.25 651.043 339.914C651.043 336.603 649.646 334.679 647.314 334.679C644.978 334.679 643.585 336.598 643.581 339.914C643.581 343.245 644.958 345.164 647.314 345.169ZM647.314 343.842C645.937 343.842 645.107 342.46 645.107 339.914C645.112 337.379 645.942 335.982 647.314 335.982C648.681 335.982 649.517 337.379 649.517 339.914C649.517 342.46 648.686 343.842 647.314 343.842Z" fill="#8E95A9"/>
<path d="M695.241 334.818H693.744L691.204 336.479V337.95L693.64 336.359H693.7V345H695.241V334.818ZM697.995 345H704.697V343.683H700.113V343.608L702.136 341.49C704.001 339.606 704.533 338.706 704.533 337.567C704.533 335.932 703.2 334.679 701.281 334.679C699.377 334.679 697.985 335.912 697.985 337.771H699.452C699.447 336.678 700.153 335.962 701.251 335.962C702.286 335.962 703.071 336.598 703.071 337.612C703.071 338.512 702.534 339.158 701.44 340.317L697.995 343.886V345Z" fill="#8E95A9"/>
<path d="M748.954 334.818H747.457L744.917 336.479V337.95L747.353 336.359H747.412V345H748.954V334.818ZM751.494 343.011H756.322V345H757.788V343.011H759.135V341.709H757.788V334.818H755.894L751.494 341.768V343.011ZM756.331 341.709H753.105V341.629L756.252 336.648H756.331V341.709Z" fill="#8E95A9"/>
<path d="M803.084 334.818H801.587L799.047 336.479V337.95L801.483 336.359H801.542V345H803.084V334.818ZM809.392 345.139C811.52 345.159 812.932 343.628 812.927 341.674C812.932 339.725 811.515 338.328 809.75 338.328C808.677 338.328 807.747 338.845 807.225 339.705H807.15C807.155 337.369 808.03 336.001 809.522 336.001C810.501 336.001 811.118 336.593 811.326 337.463H812.843C812.609 335.827 811.341 334.654 809.522 334.654C807.155 334.654 805.679 336.688 805.679 340.252C805.679 344.001 807.583 345.124 809.392 345.139ZM809.388 343.847C808.204 343.847 807.339 342.852 807.339 341.709C807.344 340.57 808.249 339.576 809.422 339.576C810.586 339.576 811.441 340.516 811.436 341.694C811.441 342.897 810.551 343.847 809.388 343.847Z" fill="#8E95A9"/>
<rect x="103" y="268" width="1" height="40" rx="0.5" fill="#CDD1DE"/>
<rect x="101" y="197" width="5" height="80" rx="2.5" fill="#3BB77E"/>
<rect x="157" y="268" width="1" height="40" rx="0.5" fill="#CDD1DE"/>
<rect x="155" y="105" width="5" height="172" rx="2.5" fill="#3BB77E"/>
<rect x="211" y="268" width="1" height="40" rx="0.5" fill="#CDD1DE"/>
<rect x="209" y="157" width="5" height="120" rx="2.5" fill="#3BB77E"/>
<rect x="265" y="268" width="1" height="40" rx="0.5" fill="#CDD1DE"/>
<rect x="263" y="147" width="5" height="130" rx="2.5" fill="#3BB77E"/>
<rect x="319" y="268" width="1" height="40" rx="0.5" fill="#CDD1DE"/>
<rect x="317" y="197" width="5" height="80" rx="2.5" fill="#3BB77E"/>
<rect x="373" y="268" width="1" height="40" rx="0.5" fill="#CDD1DE"/>
<rect x="371" y="162" width="5" height="115" rx="2.5" fill="#3BB77E"/>
<rect x="427" y="268" width="1" height="40" rx="0.5" fill="#CDD1DE"/>
<rect x="425" y="207" width="5" height="70" rx="2.5" fill="#3BB77E"/>
<rect x="481" y="268" width="1" height="40" rx="0.5" fill="#CDD1DE"/>
<rect x="479" y="116" width="5" height="161" rx="2.5" fill="#FF392B"/>
<rect x="535" y="268" width="1" height="40" rx="0.5" fill="#CDD1DE"/>
<rect x="533" y="176" width="5" height="101" rx="2.5" fill="#3BB77E"/>
<rect x="589" y="268" width="1" height="40" rx="0.5" fill="#CDD1DE"/>
<rect x="587" y="227" width="5" height="50" rx="2.5" fill="#3BB77E"/>
<rect x="643" y="268" width="1" height="40" rx="0.5" fill="#CDD1DE"/>
<rect x="641" y="82" width="5" height="195" rx="2.5" fill="#3BB77E"/>
<rect x="697" y="268" width="1" height="40" rx="0.5" fill="#CDD1DE"/>
<rect x="695" y="157" width="5" height="120" rx="2.5" fill="#3BB77E"/>
<rect x="751" y="268" width="1" height="40" rx="0.5" fill="#CDD1DE"/>
<rect x="749" y="187" width="5" height="90" rx="2.5" fill="#3BB77E"/>
<rect x="805" y="268" width="1" height="40" rx="0.5" fill="#CDD1DE"/>
<rect x="803" y="147" width="5" height="130" rx="2.5" fill="#3BB77E"/>
<path d="M4.04688 96.2727H4.98153L4.98651 95.1541C7.08949 95 8.29261 93.7969 8.29261 92.1861C8.29261 90.3516 6.65696 89.6406 5.36435 89.3224L5.00142 89.228L5.01136 86.0362C5.94105 86.1605 6.57741 86.6776 6.67188 87.4929H8.15341C8.11364 85.9766 6.8608 84.843 5.01634 84.6939L5.02131 83.5455H4.08665L4.08168 84.7038C2.29688 84.8828 0.989347 85.9964 0.989347 87.6023C0.989347 89.0192 2.00355 89.8494 3.6392 90.2919L4.06676 90.4062L4.05682 93.7919C3.08736 93.6726 2.33665 93.1456 2.2571 92.1861H0.715909C0.810369 93.9013 2.0483 95.005 4.05185 95.1541L4.04688 96.2727ZM4.99148 93.7919L5.00142 90.6648C6.01065 90.9432 6.77131 91.3111 6.77131 92.1712C6.77131 93.0412 6.04545 93.6527 4.99148 93.7919ZM4.07173 88.9794C3.33097 88.7607 2.51562 88.3679 2.5206 87.5128C2.5206 86.767 3.11222 86.1854 4.0767 86.0412L4.07173 88.9794ZM13.4295 95.1392C15.5474 95.1392 17.0439 93.9361 17.0538 92.2855C17.0439 91.0028 16.144 89.924 15.0055 89.7202V89.6605C15.9949 89.4219 16.666 88.4922 16.676 87.3935C16.666 85.8374 15.2939 84.679 13.4295 84.679C11.5453 84.679 10.1731 85.8374 10.1831 87.3935C10.1731 88.4872 10.8443 89.4219 11.8535 89.6605V89.7202C10.6951 89.924 9.79528 91.0028 9.80522 92.2855C9.79528 93.9361 11.2917 95.1392 13.4295 95.1392ZM13.4295 93.8814C12.1568 93.8814 11.3514 93.2053 11.3613 92.1861C11.3514 91.1271 12.2264 90.3714 13.4295 90.3714C14.6127 90.3714 15.4877 91.1271 15.4977 92.1861C15.4877 93.2053 14.6873 93.8814 13.4295 93.8814ZM13.4295 89.1435C12.4004 89.1435 11.6696 88.4922 11.6795 87.5227C11.6696 86.5682 12.3755 85.9368 13.4295 85.9368C14.4636 85.9368 15.1696 86.5682 15.1795 87.5227C15.1696 88.4922 14.4437 89.1435 13.4295 89.1435ZM22.1957 95.1392C24.244 95.1392 25.7056 93.6925 25.7006 91.7088C25.7056 89.7401 24.3335 88.3082 22.479 88.3082C21.7234 88.3082 21.0224 88.5966 20.6246 88.9844H20.565L20.8881 86.1357H25.2085V84.8182H19.6104L19.0387 89.9489L20.4457 90.1577C20.8285 89.8146 21.5146 89.581 22.131 89.581C23.3391 89.5909 24.2141 90.4957 24.2141 91.7386C24.2141 92.9616 23.364 93.8466 22.1957 93.8466C21.2113 93.8466 20.4308 93.2202 20.3512 92.3452H18.8597C18.9194 93.9659 20.3263 95.1392 22.1957 95.1392ZM31.0613 95.169C33.4128 95.169 34.79 93.25 34.79 89.9141C34.79 86.603 33.3929 84.679 31.0613 84.679C28.7246 84.679 27.3326 86.598 27.3276 89.9141C27.3276 93.245 28.7047 95.1641 31.0613 95.169ZM31.0613 93.8416C29.6841 93.8416 28.8539 92.4595 28.8539 89.9141C28.8588 87.3786 29.6891 85.9815 31.0613 85.9815C32.4284 85.9815 33.2637 87.3786 33.2637 89.9141C33.2637 92.4595 32.4334 93.8416 31.0613 93.8416ZM40.0984 95.169C42.4499 95.169 43.8271 93.25 43.8271 89.9141C43.8271 86.603 42.43 84.679 40.0984 84.679C37.7617 84.679 36.3697 86.598 36.3647 89.9141C36.3647 93.245 37.7418 95.1641 40.0984 95.169ZM40.0984 93.8416C38.7212 93.8416 37.891 92.4595 37.891 89.9141C37.896 87.3786 38.7262 85.9815 40.0984 85.9815C41.4656 85.9815 42.3008 87.3786 42.3008 89.9141C42.3008 92.4595 41.4705 93.8416 40.0984 93.8416Z" fill="#8E95A9"/>
<path d="M4.04688 171.273H4.98153L4.98651 170.154C7.08949 170 8.29261 168.797 8.29261 167.186C8.29261 165.352 6.65696 164.641 5.36435 164.322L5.00142 164.228L5.01136 161.036C5.94105 161.161 6.57741 161.678 6.67188 162.493H8.15341C8.11364 160.977 6.8608 159.843 5.01634 159.694L5.02131 158.545H4.08665L4.08168 159.704C2.29688 159.883 0.989347 160.996 0.989347 162.602C0.989347 164.019 2.00355 164.849 3.6392 165.292L4.06676 165.406L4.05682 168.792C3.08736 168.673 2.33665 168.146 2.2571 167.186H0.715909C0.810369 168.901 2.0483 170.005 4.05185 170.154L4.04688 171.273ZM4.99148 168.792L5.00142 165.665C6.01065 165.943 6.77131 166.311 6.77131 167.171C6.77131 168.041 6.04545 168.653 4.99148 168.792ZM4.07173 163.979C3.33097 163.761 2.51562 163.368 2.5206 162.513C2.5206 161.767 3.11222 161.185 4.0767 161.041L4.07173 163.979ZM9.77539 168.011H14.6028V170H16.0694V168.011H17.4167V166.709H16.0694V159.818H14.1752L9.77539 166.768V168.011ZM14.6127 166.709H11.3862V166.629L14.5332 161.648H14.6127V166.709ZM22.6941 170.169C25.0456 170.169 26.4228 168.25 26.4228 164.914C26.4228 161.603 25.0257 159.679 22.6941 159.679C20.3574 159.679 18.9654 161.598 18.9604 164.914C18.9604 168.245 20.3375 170.164 22.6941 170.169ZM22.6941 168.842C21.3169 168.842 20.4867 167.46 20.4867 164.914C20.4917 162.379 21.3219 160.982 22.6941 160.982C24.0613 160.982 24.8965 162.379 24.8965 164.914C24.8965 167.46 24.0662 168.842 22.6941 168.842ZM31.7312 170.169C34.0827 170.169 35.4599 168.25 35.4599 164.914C35.4599 161.603 34.0629 159.679 31.7312 159.679C29.3945 159.679 28.0025 161.598 27.9975 164.914C27.9975 168.245 29.3746 170.164 31.7312 170.169ZM31.7312 168.842C30.354 168.842 29.5238 167.46 29.5238 164.914C29.5288 162.379 30.359 160.982 31.7312 160.982C33.0984 160.982 33.9336 162.379 33.9336 164.914C33.9336 167.46 33.1033 168.842 31.7312 168.842ZM40.7683 170.169C43.1199 170.169 44.497 168.25 44.497 164.914C44.497 161.603 43.1 159.679 40.7683 159.679C38.4316 159.679 37.0396 161.598 37.0346 164.914C37.0346 168.245 38.4118 170.164 40.7683 170.169ZM40.7683 168.842C39.3912 168.842 38.5609 167.46 38.5609 164.914C38.5659 162.379 39.3961 160.982 40.7683 160.982C42.1355 160.982 42.9707 162.379 42.9707 164.914C42.9707 167.46 42.1404 168.842 40.7683 168.842Z" fill="#8E95A9"/>
<path d="M4.04688 246.273H4.98153L4.98651 245.154C7.08949 245 8.29261 243.797 8.29261 242.186C8.29261 240.352 6.65696 239.641 5.36435 239.322L5.00142 239.228L5.01136 236.036C5.94105 236.161 6.57741 236.678 6.67188 237.493H8.15341C8.11364 235.977 6.8608 234.843 5.01634 234.694L5.02131 233.545H4.08665L4.08168 234.704C2.29688 234.883 0.989347 235.996 0.989347 237.602C0.989347 239.019 2.00355 239.849 3.6392 240.292L4.06676 240.406L4.05682 243.792C3.08736 243.673 2.33665 243.146 2.2571 242.186H0.715909C0.810369 243.901 2.0483 245.005 4.05185 245.154L4.04688 246.273ZM4.99148 243.792L5.00142 240.665C6.01065 240.943 6.77131 241.311 6.77131 242.171C6.77131 243.041 6.04545 243.653 4.99148 243.792ZM4.07173 238.979C3.33097 238.761 2.51562 238.368 2.5206 237.513C2.5206 236.767 3.11222 236.185 4.0767 236.041L4.07173 238.979ZM13.5339 245.139C15.612 245.139 17.1383 243.896 17.1333 242.206C17.1383 240.918 16.3578 239.994 15.0055 239.785V239.705C16.0694 239.432 16.7605 238.597 16.7555 237.453C16.7605 235.957 15.5325 234.679 13.5737 234.679C11.7044 234.679 10.2029 235.808 10.1532 237.463H11.6397C11.6745 236.528 12.5545 235.962 13.5538 235.962C14.5929 235.962 15.274 236.593 15.269 237.533C15.274 238.517 14.4835 239.163 13.3549 239.163H12.4949V240.416H13.3549C14.7669 240.416 15.5822 241.132 15.5822 242.156C15.5822 243.146 14.7221 243.817 13.524 243.817C12.4203 243.817 11.5602 243.25 11.5005 242.345H9.93945C10.0041 244.006 11.4757 245.139 13.5339 245.139ZM22.3734 245.139C24.4217 245.139 25.8833 243.692 25.8784 241.709C25.8833 239.74 24.5112 238.308 22.6568 238.308C21.9011 238.308 21.2001 238.597 20.8024 238.984H20.7427L21.0659 236.136H25.3862V234.818H19.7882L19.2164 239.949L20.6234 240.158C21.0062 239.815 21.6923 239.581 22.3088 239.581C23.5169 239.591 24.3919 240.496 24.3919 241.739C24.3919 242.962 23.5417 243.847 22.3734 243.847C21.389 243.847 20.6085 243.22 20.5289 242.345H19.0375C19.0971 243.966 20.5041 245.139 22.3734 245.139ZM31.239 245.169C33.5906 245.169 34.9677 243.25 34.9677 239.914C34.9677 236.603 33.5707 234.679 31.239 234.679C28.9023 234.679 27.5103 236.598 27.5053 239.914C27.5053 243.245 28.8825 245.164 31.239 245.169ZM31.239 243.842C29.8619 243.842 29.0316 242.46 29.0316 239.914C29.0366 237.379 29.8668 235.982 31.239 235.982C32.6062 235.982 33.4414 237.379 33.4414 239.914C33.4414 242.46 32.6112 243.842 31.239 243.842Z" fill="#8E95A9"/>
<path d="M4.04688 321.273H4.98153L4.98651 320.154C7.08949 320 8.29261 318.797 8.29261 317.186C8.29261 315.352 6.65696 314.641 5.36435 314.322L5.00142 314.228L5.01136 311.036C5.94105 311.161 6.57741 311.678 6.67188 312.493H8.15341C8.11364 310.977 6.8608 309.843 5.01634 309.694L5.02131 308.545H4.08665L4.08168 309.704C2.29688 309.883 0.989347 310.996 0.989347 312.602C0.989347 314.019 2.00355 314.849 3.6392 315.292L4.06676 315.406L4.05682 318.792C3.08736 318.673 2.33665 318.146 2.2571 317.186H0.715909C0.810369 318.901 2.0483 320.005 4.05185 320.154L4.04688 321.273ZM4.99148 318.792L5.00142 315.665C6.01065 315.943 6.77131 316.311 6.77131 317.171C6.77131 318.041 6.04545 318.653 4.99148 318.792ZM4.07173 313.979C3.33097 313.761 2.51562 313.368 2.5206 312.513C2.5206 311.767 3.11222 311.185 4.0767 311.041L4.07173 313.979ZM13.5339 320.169C15.8855 320.169 17.2626 318.25 17.2626 314.914C17.2626 311.603 15.8656 309.679 13.5339 309.679C11.1973 309.679 9.80522 311.598 9.80025 314.914C9.80025 318.245 11.1774 320.164 13.5339 320.169ZM13.5339 318.842C12.1568 318.842 11.3265 317.46 11.3265 314.914C11.3315 312.379 12.1618 310.982 13.5339 310.982C14.9011 310.982 15.7363 312.379 15.7363 314.914C15.7363 317.46 14.9061 318.842 13.5339 318.842Z" fill="#8E95A9"/>
<path d="M6.30682 22C10.7386 22 13.3026 19.2514 13.3026 14.706C13.3026 10.1818 10.7386 7.45455 6.45597 7.45455H1.59801V22H6.30682ZM3.79261 20.0824V9.37216H6.32102C9.50284 9.37216 11.1435 11.2756 11.1435 14.706C11.1435 18.1506 9.50284 20.0824 6.18608 20.0824H3.79261ZM19.0359 22.2415C20.8398 22.2415 21.8555 21.3253 22.2603 20.5085H22.3455V22H24.4194V14.7557C24.4194 11.581 21.9194 10.9489 20.1864 10.9489C18.212 10.9489 16.3938 11.7443 15.6836 13.733L17.6793 14.1875C17.9918 13.4134 18.7873 12.6676 20.2148 12.6676C21.5856 12.6676 22.2887 13.3849 22.2887 14.6207V14.6705C22.2887 15.4446 21.4933 15.4304 19.533 15.6577C17.4663 15.8991 15.3498 16.4389 15.3498 18.9176C15.3498 21.0625 16.962 22.2415 19.0359 22.2415ZM19.4975 20.5369C18.2972 20.5369 17.4308 19.9972 17.4308 18.946C17.4308 17.8097 18.4393 17.4048 19.668 17.2415C20.3569 17.1491 21.9904 16.9645 22.2958 16.6591V18.0653C22.2958 19.358 21.266 20.5369 19.4975 20.5369ZM35.4226 13.7543C34.9822 12.0568 33.6541 10.9489 31.2962 10.9489C28.8317 10.9489 27.0845 12.2486 27.0845 14.1804C27.0845 15.7287 28.022 16.7585 30.0675 17.2131L31.9141 17.6179C32.9652 17.8523 33.4553 18.321 33.4553 19.0028C33.4553 19.848 32.5533 20.5085 31.1612 20.5085C29.8899 20.5085 29.0732 19.9616 28.8175 18.8892L26.7649 19.2017C27.12 21.1335 28.7251 22.2202 31.1754 22.2202C33.8104 22.2202 35.6357 20.821 35.6357 18.8466C35.6357 17.3054 34.6555 16.3537 32.6527 15.892L30.9197 15.4943C29.7195 15.2102 29.201 14.8054 29.2081 14.0668C29.201 13.2287 30.1101 12.6321 31.3175 12.6321C32.6385 12.6321 33.2493 13.3636 33.4979 14.0952L35.4226 13.7543ZM40.0941 15.5227C40.0941 13.7827 41.195 12.7884 42.7077 12.7884C44.1708 12.7884 45.0444 13.7188 45.0444 15.3168V22H47.168V15.0611C47.168 12.3409 45.6765 10.9489 43.4322 10.9489C41.7347 10.9489 40.712 11.6875 40.2006 12.8665H40.0657V7.45455H37.9705V22H40.0941V15.5227ZM50.1722 22H52.2461V20.3026H52.4237C52.8072 20.9986 53.5884 22.2131 55.5771 22.2131C58.2191 22.2131 60.1367 20.0966 60.1367 16.5668C60.1367 13.0298 58.1907 10.9489 55.5558 10.9489C53.5316 10.9489 52.8001 12.1847 52.4237 12.8594H52.2958V7.45455H50.1722V22ZM52.2532 16.5455C52.2532 14.2656 53.2475 12.7528 55.1012 12.7528C57.0259 12.7528 57.9918 14.3793 57.9918 16.5455C57.9918 18.733 56.9975 20.402 55.1012 20.402C53.2759 20.402 52.2532 18.8395 52.2532 16.5455ZM67.1165 22.2202C70.1918 22.2202 72.2017 19.9688 72.2017 16.5952C72.2017 13.2003 70.1918 10.9489 67.1165 10.9489C64.0412 10.9489 62.0312 13.2003 62.0312 16.5952C62.0312 19.9688 64.0412 22.2202 67.1165 22.2202ZM67.1236 20.4375C65.1136 20.4375 64.1761 18.6832 64.1761 16.5881C64.1761 14.5 65.1136 12.7244 67.1236 12.7244C69.1193 12.7244 70.0568 14.5 70.0568 16.5881C70.0568 18.6832 69.1193 20.4375 67.1236 20.4375ZM77.7468 22.2415C79.5508 22.2415 80.5664 21.3253 80.9712 20.5085H81.0565V22H83.1303V14.7557C83.1303 11.581 80.6303 10.9489 78.8974 10.9489C76.9229 10.9489 75.1048 11.7443 74.3945 13.733L76.3903 14.1875C76.7028 13.4134 77.4982 12.6676 78.9258 12.6676C80.2965 12.6676 80.9996 13.3849 80.9996 14.6207V14.6705C80.9996 15.4446 80.2042 15.4304 78.244 15.6577C76.1772 15.8991 74.0607 16.4389 74.0607 18.9176C74.0607 21.0625 75.6729 22.2415 77.7468 22.2415ZM78.2085 20.5369C77.0082 20.5369 76.1417 19.9972 76.1417 18.946C76.1417 17.8097 77.1502 17.4048 78.3789 17.2415C79.0678 17.1491 80.7013 16.9645 81.0067 16.6591V18.0653C81.0067 19.358 79.9769 20.5369 78.2085 20.5369ZM85.9588 22H88.0824V15.3381C88.0824 13.9105 89.1832 12.8807 90.6889 12.8807C91.1293 12.8807 91.6264 12.9588 91.7969 13.0085V10.9773C91.5838 10.9489 91.1648 10.9276 90.8949 10.9276C89.6165 10.9276 88.5227 11.652 88.125 12.8239H88.0114V11.0909H85.9588V22ZM97.3278 22.2131C99.3164 22.2131 100.098 20.9986 100.481 20.3026H100.659V22H102.733V7.45455H100.609V12.8594H100.481C100.098 12.1847 99.3732 10.9489 97.342 10.9489C94.707 10.9489 92.7681 13.0298 92.7681 16.5668C92.7681 20.0966 94.6786 22.2131 97.3278 22.2131ZM97.7965 20.402C95.9002 20.402 94.913 18.733 94.913 16.5455C94.913 14.3793 95.8789 12.7528 97.7965 12.7528C99.6502 12.7528 100.645 14.2656 100.645 16.5455C100.645 18.8395 99.6289 20.402 97.7965 20.402Z" fill="#1C2A53"/>
</svg>
