<svg width="217" height="356" viewBox="0 0 217 356" fill="none" xmlns="http://www.w3.org/2000/svg">
<path d="M1.97869 320L2.91335 317.305H6.89062L7.82031 320H9.45099L5.78693 309.818H4.01207L0.348011 320H1.97869ZM3.3608 316.013L4.86222 311.668H4.94176L6.44318 316.013H3.3608ZM13.5376 320.149C14.9297 320.149 15.4766 319.299 15.745 318.812H15.8693V320H17.321V309.818H15.8345V313.602H15.745C15.4766 313.129 14.9695 312.264 13.5476 312.264C11.7031 312.264 10.3459 313.721 10.3459 316.197C10.3459 318.668 11.6832 320.149 13.5376 320.149ZM13.8658 318.881C12.5384 318.881 11.8473 317.713 11.8473 316.182C11.8473 314.665 12.5234 313.527 13.8658 313.527C15.1634 313.527 15.8594 314.586 15.8594 316.182C15.8594 317.788 15.1484 318.881 13.8658 318.881ZM21.665 320.169C22.9277 320.169 23.6387 319.528 23.9221 318.956H23.9817V320H25.4334V314.929C25.4334 312.707 23.6834 312.264 22.4703 312.264C21.0882 312.264 19.8155 312.821 19.3184 314.213L20.7154 314.531C20.9341 313.989 21.4909 313.467 22.4902 313.467C23.4498 313.467 23.9419 313.969 23.9419 314.835V314.869C23.9419 315.411 23.3851 315.401 22.013 315.56C20.5662 315.729 19.0847 316.107 19.0847 317.842C19.0847 319.344 20.2132 320.169 21.665 320.169ZM21.9881 318.976C21.1479 318.976 20.5414 318.598 20.5414 317.862C20.5414 317.067 21.2473 316.783 22.1074 316.669C22.5897 316.604 23.7331 316.475 23.9469 316.261V317.246C23.9469 318.151 23.226 318.976 21.9881 318.976ZM28.8999 315.466C28.8999 314.248 29.6456 313.552 30.6797 313.552C31.6889 313.552 32.3004 314.213 32.3004 315.322V320H33.7869V315.143C33.7869 313.254 32.7479 312.264 31.1868 312.264C30.0384 312.264 29.2876 312.796 28.9347 313.607H28.8402V312.364H27.4134V320H28.8999V315.466ZM38.6392 320.149C40.0312 320.149 40.5781 319.299 40.8466 318.812H40.9709V320H42.4226V309.818H40.9361V313.602H40.8466C40.5781 313.129 40.071 312.264 38.6491 312.264C36.8047 312.264 35.4474 313.721 35.4474 316.197C35.4474 318.668 36.7848 320.149 38.6392 320.149ZM38.9673 318.881C37.6399 318.881 36.9489 317.713 36.9489 316.182C36.9489 314.665 37.625 313.527 38.9673 313.527C40.2649 313.527 40.9609 314.586 40.9609 316.182C40.9609 317.788 40.25 318.881 38.9673 318.881ZM47.7608 320.154C49.9135 320.154 51.3205 318.578 51.3205 316.217C51.3205 313.84 49.9135 312.264 47.7608 312.264C45.6081 312.264 44.2012 313.84 44.2012 316.217C44.2012 318.578 45.6081 320.154 47.7608 320.154ZM47.7658 318.906C46.3588 318.906 45.7026 317.678 45.7026 316.212C45.7026 314.75 46.3588 313.507 47.7658 313.507C49.1628 313.507 49.8191 314.75 49.8191 316.212C49.8191 317.678 49.1628 318.906 47.7658 318.906ZM54.4663 315.466C54.4663 314.248 55.212 313.552 56.2461 313.552C57.2553 313.552 57.8668 314.213 57.8668 315.322V320H59.3533V315.143C59.3533 313.254 58.3143 312.264 56.7532 312.264C55.6048 312.264 54.854 312.796 54.5011 313.607H54.4066V312.364H52.9798V320H54.4663V315.466ZM64.6381 320.154C66.3036 320.154 67.4819 319.334 67.82 318.091L66.413 317.837C66.1445 318.558 65.4982 318.926 64.6531 318.926C63.3803 318.926 62.5252 318.101 62.4854 316.629H67.9144V316.102C67.9144 313.343 66.2638 312.264 64.5337 312.264C62.4059 312.264 61.0039 313.885 61.0039 316.232C61.0039 318.603 62.386 320.154 64.6381 320.154ZM62.4904 315.516C62.5501 314.432 63.3356 313.492 64.5437 313.492C65.6971 313.492 66.4528 314.347 66.4577 315.516H62.4904ZM72.4224 320.149C73.8145 320.149 74.3613 319.299 74.6298 318.812H74.7541V320H76.2058V309.818H74.7193V313.602H74.6298C74.3613 313.129 73.8542 312.264 72.4324 312.264C70.5879 312.264 69.2306 313.721 69.2306 316.197C69.2306 318.668 70.568 320.149 72.4224 320.149ZM72.7505 318.881C71.4231 318.881 70.7321 317.713 70.7321 316.182C70.7321 314.665 71.4082 313.527 72.7505 313.527C74.0481 313.527 74.7441 314.586 74.7441 316.182C74.7441 317.788 74.0332 318.881 72.7505 318.881ZM90.6085 313.129C90.2605 310.952 88.5552 309.679 86.4025 309.679C83.7676 309.679 81.8237 311.653 81.8237 314.909C81.8237 318.165 83.7576 320.139 86.4025 320.139C88.6397 320.139 90.2754 318.737 90.6085 316.724L89.0574 316.719C88.7939 318.021 87.7001 318.737 86.4125 318.737C84.6674 318.737 83.35 317.4 83.35 314.909C83.35 312.438 84.6625 311.081 86.4174 311.081C87.715 311.081 88.8038 311.812 89.0574 313.129H90.6085ZM94.5497 320.169C95.8125 320.169 96.5234 319.528 96.8068 318.956H96.8665V320H98.3182V314.929C98.3182 312.707 96.5682 312.264 95.3551 312.264C93.973 312.264 92.7003 312.821 92.2031 314.213L93.6001 314.531C93.8189 313.989 94.3757 313.467 95.375 313.467C96.3345 313.467 96.8267 313.969 96.8267 314.835V314.869C96.8267 315.411 96.2699 315.401 94.8977 315.56C93.451 315.729 91.9695 316.107 91.9695 317.842C91.9695 319.344 93.098 320.169 94.5497 320.169ZM94.8729 318.976C94.0327 318.976 93.4261 318.598 93.4261 317.862C93.4261 317.067 94.1321 316.783 94.9922 316.669C95.4744 316.604 96.6179 316.475 96.8317 316.261V317.246C96.8317 318.151 96.1108 318.976 94.8729 318.976ZM100.298 320H101.785V315.337C101.785 314.337 102.555 313.616 103.609 313.616C103.917 313.616 104.265 313.671 104.385 313.706V312.284C104.236 312.264 103.942 312.249 103.753 312.249C102.858 312.249 102.093 312.756 101.814 313.577H101.735V312.364H100.298V320ZM109.687 312.364H108.121V310.534H106.634V312.364H105.516V313.557H106.634V318.066C106.629 319.453 107.688 320.124 108.862 320.099C109.334 320.094 109.652 320.005 109.826 319.94L109.558 318.712C109.458 318.732 109.274 318.777 109.036 318.777C108.553 318.777 108.121 318.618 108.121 317.758V313.557H109.687V312.364Z" fill="#1C2A53"/>
<path d="M1.97869 350L2.91335 347.305H6.89062L7.82031 350H9.45099L5.78693 339.818H4.01207L0.348011 350H1.97869ZM3.3608 346.013L4.86222 341.668H4.94176L6.44318 346.013H3.3608ZM13.5376 350.149C14.9297 350.149 15.4766 349.299 15.745 348.812H15.8693V350H17.321V339.818H15.8345V343.602H15.745C15.4766 343.129 14.9695 342.264 13.5476 342.264C11.7031 342.264 10.3459 343.721 10.3459 346.197C10.3459 348.668 11.6832 350.149 13.5376 350.149ZM13.8658 348.881C12.5384 348.881 11.8473 347.713 11.8473 346.182C11.8473 344.665 12.5234 343.527 13.8658 343.527C15.1634 343.527 15.8594 344.586 15.8594 346.182C15.8594 347.788 15.1484 348.881 13.8658 348.881ZM21.665 350.169C22.9277 350.169 23.6387 349.528 23.9221 348.956H23.9817V350H25.4334V344.929C25.4334 342.707 23.6834 342.264 22.4703 342.264C21.0882 342.264 19.8155 342.821 19.3184 344.213L20.7154 344.531C20.9341 343.989 21.4909 343.467 22.4902 343.467C23.4498 343.467 23.9419 343.969 23.9419 344.835V344.869C23.9419 345.411 23.3851 345.401 22.013 345.56C20.5662 345.729 19.0847 346.107 19.0847 347.842C19.0847 349.344 20.2132 350.169 21.665 350.169ZM21.9881 348.976C21.1479 348.976 20.5414 348.598 20.5414 347.862C20.5414 347.067 21.2473 346.783 22.1074 346.669C22.5897 346.604 23.7331 346.475 23.9469 346.261V347.246C23.9469 348.151 23.226 348.976 21.9881 348.976ZM28.8999 345.466C28.8999 344.248 29.6456 343.552 30.6797 343.552C31.6889 343.552 32.3004 344.213 32.3004 345.322V350H33.7869V345.143C33.7869 343.254 32.7479 342.264 31.1868 342.264C30.0384 342.264 29.2876 342.796 28.9347 343.607H28.8402V342.364H27.4134V350H28.8999V345.466ZM38.6392 350.149C40.0312 350.149 40.5781 349.299 40.8466 348.812H40.9709V350H42.4226V339.818H40.9361V343.602H40.8466C40.5781 343.129 40.071 342.264 38.6491 342.264C36.8047 342.264 35.4474 343.721 35.4474 346.197C35.4474 348.668 36.7848 350.149 38.6392 350.149ZM38.9673 348.881C37.6399 348.881 36.9489 347.713 36.9489 346.182C36.9489 344.665 37.625 343.527 38.9673 343.527C40.2649 343.527 40.9609 344.586 40.9609 346.182C40.9609 347.788 40.25 348.881 38.9673 348.881ZM47.7608 350.154C49.9135 350.154 51.3205 348.578 51.3205 346.217C51.3205 343.84 49.9135 342.264 47.7608 342.264C45.6081 342.264 44.2012 343.84 44.2012 346.217C44.2012 348.578 45.6081 350.154 47.7608 350.154ZM47.7658 348.906C46.3588 348.906 45.7026 347.678 45.7026 346.212C45.7026 344.75 46.3588 343.507 47.7658 343.507C49.1628 343.507 49.8191 344.75 49.8191 346.212C49.8191 347.678 49.1628 348.906 47.7658 348.906ZM54.4663 345.466C54.4663 344.248 55.212 343.552 56.2461 343.552C57.2553 343.552 57.8668 344.213 57.8668 345.322V350H59.3533V345.143C59.3533 343.254 58.3143 342.264 56.7532 342.264C55.6048 342.264 54.854 342.796 54.5011 343.607H54.4066V342.364H52.9798V350H54.4663V345.466ZM64.6381 350.154C66.3036 350.154 67.4819 349.334 67.82 348.091L66.413 347.837C66.1445 348.558 65.4982 348.926 64.6531 348.926C63.3803 348.926 62.5252 348.101 62.4854 346.629H67.9144V346.102C67.9144 343.343 66.2638 342.264 64.5337 342.264C62.4059 342.264 61.0039 343.885 61.0039 346.232C61.0039 348.603 62.386 350.154 64.6381 350.154ZM62.4904 345.516C62.5501 344.432 63.3356 343.492 64.5437 343.492C65.6971 343.492 66.4528 344.347 66.4577 345.516H62.4904ZM72.4224 350.149C73.8145 350.149 74.3613 349.299 74.6298 348.812H74.7541V350H76.2058V339.818H74.7193V343.602H74.6298C74.3613 343.129 73.8542 342.264 72.4324 342.264C70.5879 342.264 69.2306 343.721 69.2306 346.197C69.2306 348.668 70.568 350.149 72.4224 350.149ZM72.7505 348.881C71.4231 348.881 70.7321 347.713 70.7321 346.182C70.7321 344.665 71.4082 343.527 72.7505 343.527C74.0481 343.527 74.7441 344.586 74.7441 346.182C74.7441 347.788 74.0332 348.881 72.7505 348.881ZM82.1518 350H83.688V346.147H85.7761C85.8109 346.147 85.8407 346.147 85.8755 346.147L87.9437 350H89.6937L87.4366 345.879C88.6845 345.416 89.3059 344.377 89.3059 343.01C89.3059 341.136 88.1426 339.818 85.7811 339.818H82.1518V350ZM83.688 344.825V341.136H85.617C87.1333 341.136 87.7598 341.857 87.7598 343.01C87.7598 344.158 87.1333 344.825 85.6369 344.825H83.688ZM94.2514 350.154C95.9169 350.154 97.0952 349.334 97.4332 348.091L96.0263 347.837C95.7578 348.558 95.1115 348.926 94.2663 348.926C92.9936 348.926 92.1385 348.101 92.0987 346.629H97.5277V346.102C97.5277 343.343 95.8771 342.264 94.147 342.264C92.0192 342.264 90.6172 343.885 90.6172 346.232C90.6172 348.603 91.9993 350.154 94.2514 350.154ZM92.1037 345.516C92.1634 344.432 92.9489 343.492 94.157 343.492C95.3104 343.492 96.0661 344.347 96.071 345.516H92.1037ZM105.669 342.364H104.073L102.144 348.24H102.064L100.13 342.364H98.5344L101.309 350H102.9L105.669 342.364ZM110.083 350.154C111.749 350.154 112.927 349.334 113.265 348.091L111.858 347.837C111.59 348.558 110.944 348.926 110.098 348.926C108.826 348.926 107.971 348.101 107.931 346.629H113.36V346.102C113.36 343.343 111.709 342.264 109.979 342.264C107.851 342.264 106.449 343.885 106.449 346.232C106.449 348.603 107.831 350.154 110.083 350.154ZM107.936 345.516C107.995 344.432 108.781 343.492 109.989 343.492C111.142 343.492 111.898 344.347 111.903 345.516H107.936ZM116.496 345.466C116.496 344.248 117.241 343.552 118.275 343.552C119.285 343.552 119.896 344.213 119.896 345.322V350H121.383V345.143C121.383 343.254 120.344 342.264 118.782 342.264C117.634 342.264 116.883 342.796 116.53 343.607H116.436V342.364H115.009V350H116.496V345.466ZM128.214 346.833C128.219 348.131 127.254 348.747 126.419 348.747C125.499 348.747 124.863 348.081 124.863 347.042V342.364H123.376V347.221C123.376 349.115 124.415 350.099 125.882 350.099C127.03 350.099 127.811 349.493 128.164 348.678H128.243V350H129.705V342.364H128.214V346.833ZM134.994 350.154C136.659 350.154 137.837 349.334 138.175 348.091L136.768 347.837C136.5 348.558 135.854 348.926 135.009 348.926C133.736 348.926 132.881 348.101 132.841 346.629H138.27V346.102C138.27 343.343 136.619 342.264 134.889 342.264C132.761 342.264 131.359 343.885 131.359 346.232C131.359 348.603 132.741 350.154 134.994 350.154ZM132.846 345.516C132.906 344.432 133.691 343.492 134.899 343.492C136.053 343.492 136.808 344.347 136.813 345.516H132.846Z" fill="#8E95A9"/>
<path d="M188.592 320H190.198L194.627 311.18V309.818H187.896V311.136H193.037V311.21L188.592 320ZM196.356 320H203.058V318.683H198.474V318.608L200.498 316.49C202.362 314.606 202.894 313.706 202.894 312.567C202.894 310.932 201.562 309.679 199.643 309.679C197.738 309.679 196.346 310.912 196.346 312.771H197.813C197.808 311.678 198.514 310.962 199.613 310.962C200.647 310.962 201.432 311.598 201.432 312.612C201.432 313.512 200.895 314.158 199.802 315.317L196.356 318.886V320ZM208.487 320.169C210.839 320.169 212.216 318.25 212.216 314.914C212.216 311.603 210.819 309.679 208.487 309.679C206.15 309.679 204.758 311.598 204.753 314.914C204.753 318.245 206.131 320.164 208.487 320.169ZM208.487 318.842C207.11 318.842 206.28 317.46 206.28 314.914C206.285 312.379 207.115 310.982 208.487 310.982C209.854 310.982 210.689 312.379 210.689 314.914C210.689 317.46 209.859 318.842 208.487 318.842Z" fill="#1C2A53"/>
<path d="M172.047 351.273H172.982L172.987 350.154C175.089 350 176.293 348.797 176.293 347.186C176.293 345.352 174.657 344.641 173.364 344.322L173.001 344.228L173.011 341.036C173.941 341.161 174.577 341.678 174.672 342.493H176.153C176.114 340.977 174.861 339.843 173.016 339.694L173.021 338.545H172.087L172.082 339.704C170.297 339.883 168.989 340.996 168.989 342.602C168.989 344.019 170.004 344.849 171.639 345.292L172.067 345.406L172.057 348.792C171.087 348.673 170.337 348.146 170.257 347.186H168.716C168.81 348.901 170.048 350.005 172.052 350.154L172.047 351.273ZM172.991 348.792L173.001 345.665C174.011 345.943 174.771 346.311 174.771 347.171C174.771 348.041 174.045 348.653 172.991 348.792ZM172.072 343.979C171.331 343.761 170.516 343.368 170.521 342.513C170.521 341.767 171.112 341.185 172.077 341.041L172.072 343.979ZM181.35 350.139C183.398 350.139 184.86 348.692 184.855 346.709C184.86 344.74 183.488 343.308 181.633 343.308C180.878 343.308 180.177 343.597 179.779 343.984H179.719L180.042 341.136H184.363V339.818H178.765L178.193 344.949L179.6 345.158C179.983 344.815 180.669 344.581 181.285 344.581C182.493 344.591 183.368 345.496 183.368 346.739C183.368 347.962 182.518 348.847 181.35 348.847C180.366 348.847 179.585 348.22 179.506 347.345H178.014C178.074 348.966 179.481 350.139 181.35 350.139ZM188.146 348.608H186.714L186.665 349.165C186.55 350.512 186.232 351.869 186.098 352.486H187.152C187.39 351.835 187.917 350.343 188.072 349.15L188.146 348.608ZM193.611 339.654C191.473 339.639 190.076 341.17 190.076 343.119C190.076 345.068 191.488 346.47 193.253 346.47C194.332 346.47 195.257 345.943 195.779 345.088H195.858C195.853 347.43 194.973 348.797 193.482 348.797C192.507 348.797 191.881 348.2 191.682 347.33H190.166C190.39 348.976 191.662 350.139 193.482 350.139C195.848 350.139 197.325 348.106 197.33 344.541C197.325 340.798 195.426 339.669 193.611 339.654ZM193.616 340.947C194.794 340.947 195.664 341.946 195.664 343.085C195.664 344.223 194.75 345.217 193.586 345.217C192.418 345.217 191.568 344.283 191.568 343.099C191.568 341.896 192.448 340.947 193.616 340.947ZM202.671 350.169C205.022 350.169 206.399 348.25 206.399 344.914C206.399 341.603 205.002 339.679 202.671 339.679C200.334 339.679 198.942 341.598 198.937 344.914C198.937 348.245 200.314 350.164 202.671 350.169ZM202.671 348.842C201.294 348.842 200.463 347.46 200.463 344.914C200.468 342.379 201.298 340.982 202.671 340.982C204.038 340.982 204.873 342.379 204.873 344.914C204.873 347.46 204.043 348.842 202.671 348.842ZM211.708 350.169C214.059 350.169 215.436 348.25 215.436 344.914C215.436 341.603 214.039 339.679 211.708 339.679C209.371 339.679 207.979 341.598 207.974 344.914C207.974 348.245 209.351 350.164 211.708 350.169ZM211.708 348.842C210.331 348.842 209.5 347.46 209.5 344.914C209.505 342.379 210.336 340.982 211.708 340.982C213.075 340.982 213.91 342.379 213.91 344.914C213.91 347.46 213.08 348.842 211.708 348.842Z" fill="#8E95A9"/>
<path d="M13.679 12.1847C13.1818 9.07386 10.7457 7.25568 7.67045 7.25568C3.90625 7.25568 1.12926 10.0753 1.12926 14.7273C1.12926 19.3793 3.89205 22.1989 7.67045 22.1989C10.8665 22.1989 13.2031 20.196 13.679 17.3196L11.4631 17.3125C11.0866 19.1733 9.52415 20.196 7.68466 20.196C5.19176 20.196 3.30966 18.2855 3.30966 14.7273C3.30966 11.1974 5.18466 9.25852 7.69176 9.25852C9.54545 9.25852 11.1009 10.3026 11.4631 12.1847H13.679ZM19.3093 22.2415C21.1133 22.2415 22.1289 21.3253 22.5337 20.5085H22.619V22H24.6928V14.7557C24.6928 11.581 22.1928 10.9489 20.4599 10.9489C18.4854 10.9489 16.6673 11.7443 15.957 13.733L17.9528 14.1875C18.2653 13.4134 19.0607 12.6676 20.4883 12.6676C21.859 12.6676 22.5621 13.3849 22.5621 14.6207V14.6705C22.5621 15.4446 21.7667 15.4304 19.8065 15.6577C17.7397 15.8991 15.6232 16.4389 15.6232 18.9176C15.6232 21.0625 17.2354 22.2415 19.3093 22.2415ZM19.771 20.5369C18.5707 20.5369 17.7042 19.9972 17.7042 18.946C17.7042 17.8097 18.7127 17.4048 19.9414 17.2415C20.6303 17.1491 22.2638 16.9645 22.5692 16.6591V18.0653C22.5692 19.358 21.5394 20.5369 19.771 20.5369ZM27.5213 22H29.6449V15.3381C29.6449 13.9105 30.7457 12.8807 32.2514 12.8807C32.6918 12.8807 33.1889 12.9588 33.3594 13.0085V10.9773C33.1463 10.9489 32.7273 10.9276 32.4574 10.9276C31.179 10.9276 30.0852 11.652 29.6875 12.8239H29.5739V11.0909H27.5213V22ZM40.9339 11.0909H38.6967V8.47727H36.5732V11.0909H34.9751V12.7955H36.5732V19.2372C36.5661 21.2188 38.0788 22.1776 39.755 22.142C40.4297 22.1349 40.8842 22.0071 41.1328 21.9148L40.7493 20.1605C40.6072 20.1889 40.3445 20.2528 40.0036 20.2528C39.3146 20.2528 38.6967 20.0256 38.6967 18.7969V12.7955H40.9339V11.0909Z" fill="#1C2A53"/>
<circle cx="108" cy="160" r="86" fill="white"/>
<path d="M108 75.29C108 74.5776 108.578 73.999 109.29 74.0097C123.423 74.2217 137.293 77.9143 149.67 84.7695C162.422 91.8331 173.17 102.023 180.903 114.381C188.636 126.739 193.101 140.86 193.878 155.418C194.654 169.975 191.718 184.491 185.344 197.602C178.97 210.713 169.367 221.988 157.439 230.369C145.51 238.75 131.647 243.96 117.152 245.512C102.656 247.063 88.0044 244.904 74.5725 239.238C61.537 233.738 50.0657 225.111 41.1696 214.127C40.7212 213.573 40.8194 212.762 41.3797 212.322C41.9401 211.882 42.7502 211.98 43.1989 212.533C51.8247 223.173 62.9427 231.531 75.5753 236.861C88.6042 242.357 102.817 244.451 116.877 242.946C130.938 241.441 144.385 236.387 155.956 228.258C167.526 220.129 176.841 209.192 183.024 196.474C189.206 183.756 192.055 169.676 191.301 155.555C190.548 141.434 186.217 127.737 178.716 115.749C171.215 103.762 160.79 93.8781 148.42 87.0264C136.426 80.3832 122.986 76.8017 109.29 76.59C108.577 76.579 108 76.0024 108 75.29Z" fill="url(#paint0_linear_442_1054)"/>
<g filter="url(#filter0_d_442_1054)">
<circle cx="108" cy="160" r="60" fill="white"/>
</g>
<path d="M90.1278 169.239C93.8608 169.239 96.5795 167.099 96.571 164.151C96.5795 161.969 95.2159 160.401 92.7699 160.051V159.915C94.6619 159.506 95.9318 158.099 95.9233 156.139C95.9318 153.48 93.6648 151.307 90.179 151.307C86.7869 151.307 84.1619 153.327 84.0938 156.25H87.1364C87.1875 154.784 88.5511 153.872 90.1619 153.872C91.7898 153.872 92.8722 154.861 92.8636 156.327C92.8722 157.852 91.6108 158.866 89.804 158.866H88.2614V161.304H89.804C92.0114 161.304 93.3239 162.412 93.3153 163.989C93.3239 165.531 91.9858 166.588 90.1193 166.588C88.3636 166.588 87.0085 165.676 86.9318 164.253H83.7273C83.8125 167.202 86.446 169.239 90.1278 169.239ZM105.701 169.239C109.477 169.239 112.178 167.159 112.187 164.321C112.178 162.139 110.567 160.315 108.539 159.974V159.855C110.303 159.463 111.531 157.878 111.539 155.986C111.531 153.301 109.059 151.307 105.701 151.307C102.317 151.307 99.8459 153.293 99.8544 155.986C99.8459 157.878 101.056 159.463 102.854 159.855V159.974C100.792 160.315 99.1982 162.139 99.2067 164.321C99.1982 167.159 101.891 169.239 105.701 169.239ZM105.701 166.801C103.724 166.801 102.445 165.71 102.462 164.099C102.445 162.429 103.817 161.244 105.701 161.244C107.559 161.244 108.923 162.438 108.94 164.099C108.923 165.71 107.653 166.801 105.701 166.801ZM105.701 158.849C104.082 158.849 102.923 157.801 102.94 156.284C102.923 154.784 104.048 153.778 105.701 153.778C107.329 153.778 108.445 154.784 108.462 156.284C108.445 157.81 107.295 158.849 105.701 158.849ZM124.321 165.727C124.33 167.756 125.616 169.486 128.011 169.486C130.398 169.486 131.71 167.756 131.702 165.727V164.807C131.71 162.761 130.432 161.048 128.011 161.048C125.651 161.048 124.33 162.778 124.321 164.807V165.727ZM115.449 155.739C115.457 157.767 116.744 159.48 119.148 159.48C121.526 159.48 122.838 157.784 122.83 155.739V154.818C122.838 152.773 121.56 151.06 119.148 151.06C116.795 151.06 115.457 152.773 115.449 154.818V155.739ZM116.216 169H118.355L130.355 151.545H128.216L116.216 169ZM126.545 164.807C126.554 163.903 126.938 162.991 128.011 162.991C129.136 162.991 129.469 163.903 129.46 164.807V165.727C129.469 166.631 129.102 167.526 128.011 167.526C126.92 167.526 126.554 166.622 126.545 165.727V164.807ZM117.69 154.818C117.699 153.923 118.065 153.003 119.148 153.003C120.273 153.003 120.597 153.915 120.588 154.818V155.739C120.597 156.642 120.239 157.537 119.148 157.537C118.057 157.537 117.699 156.642 117.69 155.739V154.818Z" fill="#1C2A53"/>
<circle cx="41" cy="211" r="6" fill="#FFB531"/>
<path d="M204 54C209.523 54 214 49.5228 214 44C214 38.4772 209.523 34 204 34C198.477 34 194 38.4772 194 44C194 49.5228 198.477 54 204 54Z" stroke="#C8CAD8" stroke-width="2" stroke-linecap="round" stroke-linejoin="round"/>
<path d="M204 48V44" stroke="#C8CAD8" stroke-width="2" stroke-linecap="round" stroke-linejoin="round"/>
<path d="M204 40H204.01" stroke="#C8CAD8" stroke-width="2" stroke-linecap="round" stroke-linejoin="round"/>
<defs>
<filter id="filter0_d_442_1054" x="16" y="80" width="184" height="184" filterUnits="userSpaceOnUse" color-interpolation-filters="sRGB">
<feFlood flood-opacity="0" result="BackgroundImageFix"/>
<feColorMatrix in="SourceAlpha" type="matrix" values="0 0 0 0 0 0 0 0 0 0 0 0 0 0 0 0 0 0 127 0" result="hardAlpha"/>
<feOffset dy="12"/>
<feGaussianBlur stdDeviation="16"/>
<feColorMatrix type="matrix" values="0 0 0 0 0.2 0 0 0 0 0.14902 0 0 0 0 0.682353 0 0 0 0.08 0"/>
<feBlend mode="normal" in2="BackgroundImageFix" result="effect1_dropShadow_442_1054"/>
<feBlend mode="normal" in="SourceGraphic" in2="effect1_dropShadow_442_1054" result="shape"/>
</filter>
<linearGradient id="paint0_linear_442_1054" x1="109.5" y1="75.5" x2="39.9999" y2="213" gradientUnits="userSpaceOnUse">
<stop stop-color="#FFB531" stop-opacity="0.06"/>
<stop offset="1" stop-color="#FFB531"/>
</linearGradient>
</defs>
</svg>
